<svg width="951" height="623" viewBox="0 0 951 623" fill="none" xmlns="http://www.w3.org/2000/svg">
<path fill-rule="evenodd" clip-rule="evenodd" d="M363.5 569L334 567C332.053 582.214 330.471 591.294 327.898 599.05C321.787 599.606 317 604.744 317 611C317 617.627 322.373 623 329 623C333.176 623 336.853 620.867 339.003 617.632L339.004 617.633C342.172 612.913 345.383 605.014 348.7 596.854C353.365 585.376 358.24 573.384 363.5 569Z" fill="#6C7D95"/>
<path fill-rule="evenodd" clip-rule="evenodd" d="M589.5 569L619 567C620.947 582.214 622.529 591.294 625.102 599.05C631.213 599.606 636 604.744 636 611C636 617.627 630.627 623 624 623C619.824 623 616.147 620.867 613.997 617.632L613.996 617.633C610.828 612.913 607.617 605.014 604.3 596.854C599.635 585.376 594.76 573.384 589.5 569Z" fill="#6C7D95"/>
<path d="M312 515C312 501.745 322.745 491 336 491H612C625.255 491 636 501.745 636 515V568C636 572.418 632.418 576 628 576H320C315.582 576 312 572.418 312 568V515Z" fill="#A8B6C9"/>
<circle cx="342" cy="506" r="4" fill="#8D9EB7"/>
<circle cx="386" cy="525" r="4" fill="#8D9EB7"/>
<circle cx="342" cy="549" r="4" fill="#8D9EB7"/>
<circle cx="606" cy="506" r="4" fill="#8D9EB7"/>
<circle cx="606" cy="549" r="4" fill="#8D9EB7"/>
<circle cx="430" cy="506" r="4" fill="#8D9EB7"/>
<circle cx="474" cy="525" r="4" fill="#8D9EB7"/>
<circle cx="430" cy="549" r="4" fill="#8D9EB7"/>
<circle cx="518" cy="506" r="4" fill="#8D9EB7"/>
<circle cx="562" cy="525" r="4" fill="#8D9EB7"/>
<circle cx="518" cy="549" r="4" fill="#8D9EB7"/>
<rect x="714" y="87.5" width="190" height="232.5" rx="16" fill="#F6F9FE" stroke="#D3DAE5" stroke-width="16"/>
<path d="M720 175C798.837 154.781 838.846 153.843 901 175V316H720V175Z" fill="#E5ECF5"/>
<rect x="720" y="249" width="181" height="67" fill="#B3BFD0"/>
<path d="M789 203.5C790.841 190 794 176 796 166.5C798 157 805.596 146.629 820.5 144.5C835.404 142.371 839.744 146.667 846.284 152.75C852.823 158.833 853.528 168.441 854.192 175.743C854.856 183.046 852.701 199.646 853 211.563C853.229 220.69 855.187 225.313 856.437 227.188C857.687 229.063 860.687 232.313 860.687 232.313L846.284 230.188L811.001 231.556L807.96 234.598C804.512 242.912 800.051 260.147 800.051 262.58C800.051 265.014 793.842 248.485 789 236.5C784.158 224.515 787.158 217 789 203.5Z" fill="#A8B6C9"/>
<path d="M866 312.5H766L788.115 243.554C790.304 236.73 794.762 230.83 800.948 227.211C805.865 224.335 811.596 221.218 815.25 220C821.25 217.5 819.43 207.93 818.125 203.875L836 198.125C833.572 204.412 833.25 215.875 836 218C842.905 223.336 851.274 227.3 852.76 235.899L866 312.5Z" fill="#D3DAE5"/>
<path d="M815.268 241.909C802 240 802.125 232.625 805 223.375C789.5 231 784 239 775.5 257.5C754 275.5 747 300 756.5 312.25H872C882 299.5 872 249.5 867.25 241.909C862.5 234.319 862.75 233.5 858 229.375C853.25 225.25 848.375 221.75 848.375 221.75C844.125 229.417 830.858 244.153 815.268 241.909Z" fill="#A8B6C9"/>
<path d="M810.037 292.25C816.912 291.125 825.537 291 825.537 291C829.412 291 832.287 295.5 830.662 297.375C822.912 298 820.309 296.598 814.625 301.125C803.759 306.263 799.125 305 799.125 302C799.125 299 803.162 293.375 810.037 292.25Z" fill="#B3BFD0"/>
<path d="M814.969 287.5C808.094 286.375 799.469 286.25 799.469 286.25C795.594 286.25 792.719 290.75 794.344 292.625C802.094 293.25 803.066 291.598 808.75 296.125C816.018 301.913 826.406 301.375 828.5 298.75C830.594 296.125 821.844 288.625 814.969 287.5Z" fill="#D3DAE5"/>
<path d="M848.235 178.312C848.235 196.792 832.237 211 818 211C803.763 211 799.899 199.556 799.899 181.076C799.899 162.596 808.219 147.76 822.456 147.76C836.693 147.76 848.235 159.832 848.235 178.312Z" fill="#D3DAE5"/>
<path d="M835.875 167.625C833.375 161.25 807 158 801 168.5L802.789 156.125L812.978 148.392L825.753 146.719L837.767 150.521L849.021 165.098L851.606 183.347L850.688 210.5L855.408 233.077C855.408 233.077 840.581 255.509 830.011 252.695C837.007 246.004 839.75 236.5 844 227.125C844 227.125 848.5 219.469 834.359 205.133C838.75 199.625 840.3 178.909 835.875 167.625Z" fill="#A8B6C9"/>
<ellipse cx="807.625" cy="182.854" rx="1.36871" ry="1.60369" fill="#8D9EB7"/>
<ellipse cx="823.395" cy="182.854" rx="1.36871" ry="1.60369" fill="#8D9EB7"/>
<path d="M808.065 192.632C807.89 192.345 807.516 192.254 807.229 192.429C806.942 192.604 806.851 192.978 807.025 193.265L808.065 192.632ZM823.777 193.477C824.069 193.31 824.17 192.939 824.003 192.647C823.837 192.355 823.465 192.254 823.173 192.421L823.777 193.477ZM807.025 193.265C807.667 194.32 808.809 194.983 810.124 195.371C811.446 195.762 813.017 195.896 814.634 195.838C817.86 195.721 821.411 194.829 823.777 193.477L823.173 192.421C821.015 193.654 817.666 194.511 814.59 194.622C813.056 194.678 811.626 194.546 810.468 194.205C809.303 193.861 808.487 193.327 808.065 192.632L807.025 193.265Z" fill="#8D9EB7"/>
<rect x="714" y="87.5" width="190" height="232.5" rx="16" stroke="#D3DAE5" stroke-width="16"/>
<rect x="342" y="57" width="268" height="323" rx="24" fill="#FFD3BA" stroke="#FFEEE4" stroke-width="32"/>
<rect x="334" y="49" width="284" height="339" rx="24" stroke="#FF8D4E" stroke-width="16"/>
<path d="M326 208C326 201.875 342 208 342 208V232C342 232 326 238.375 326 232C326 228.083 318.022 224.448 311.871 222.228C309.954 221.537 309.94 218.416 311.852 217.711C318.005 215.442 326 211.769 326 208Z" fill="#FF8D4E"/>
<path d="M626 208C626 201.875 610 208 610 208V232C610 232 626 238.375 626 232C626 228.083 633.978 224.448 640.129 222.228C642.046 221.537 642.06 218.416 640.148 217.711C633.995 215.442 626 211.769 626 208Z" fill="#FF8D4E"/>
<path d="M488.056 396.5C494.181 396.5 488.056 380.5 488.056 380.5H464.056C464.056 380.5 457.681 396.5 464.056 396.5C467.973 396.5 471.608 404.478 473.828 410.629C474.519 412.546 477.64 412.56 478.345 410.648C480.614 404.495 484.287 396.5 488.056 396.5Z" fill="#FF8D4E"/>
<path d="M487.833 41C493.958 41 487.833 57 487.833 57L463.833 57C463.833 57 457.458 41 463.833 41C467.75 41 471.385 33.0216 473.605 26.8711C474.297 24.9543 477.417 24.9396 478.122 26.8516C480.391 33.0047 484.065 41 487.833 41Z" fill="#FF8D4E"/>
<path fill-rule="evenodd" clip-rule="evenodd" d="M346 54C352.627 54 358 48.6274 358 42C358 35.3726 352.627 30 346 30C342.134 30 338.695 31.8284 336.5 34.6676C334.305 31.8284 330.866 30 327 30C320.373 30 315 35.3726 315 42C315 45.8662 316.828 49.3054 319.668 51.5C316.828 53.6946 315 57.1338 315 61C315 67.6274 320.373 73 327 73C333.627 73 339 67.6274 339 61C339 60.6405 338.984 60.2847 338.953 59.9333C341.599 58.7325 343.733 56.5994 344.933 53.9532C345.285 53.9842 345.641 54 346 54Z" fill="#FF8D4E"/>
<path fill-rule="evenodd" clip-rule="evenodd" d="M604 54C597.373 54 592 48.6274 592 42C592 35.3726 597.373 30 604 30C607.866 30 611.305 31.8284 613.5 34.6676C615.695 31.8284 619.134 30 623 30C629.627 30 635 35.3726 635 42C635 45.8662 633.172 49.3054 630.332 51.5C633.172 53.6946 635 57.1338 635 61C635 67.6274 629.627 73 623 73C616.373 73 611 67.6274 611 61C611 60.6405 611.016 60.2847 611.047 59.9333C608.401 58.7325 606.267 56.5994 605.067 53.9532C604.715 53.9842 604.359 54 604 54Z" fill="#FF8D4E"/>
<path fill-rule="evenodd" clip-rule="evenodd" d="M604 381C597.373 381 592 386.373 592 393C592 399.627 597.373 405 604 405C607.866 405 611.305 403.172 613.5 400.332C615.695 403.172 619.134 405 623 405C629.627 405 635 399.627 635 393C635 389.134 633.172 385.695 630.332 383.5C633.172 381.305 635 377.866 635 374C635 367.373 629.627 362 623 362C616.373 362 611 367.373 611 374C611 374.359 611.016 374.715 611.047 375.067C608.401 376.267 606.267 378.401 605.067 381.047C604.715 381.016 604.359 381 604 381Z" fill="#FF8D4E"/>
<path fill-rule="evenodd" clip-rule="evenodd" d="M346 382C352.627 382 358 387.373 358 394C358 400.627 352.627 406 346 406C342.134 406 338.695 404.172 336.5 401.332C334.305 404.172 330.866 406 327 406C320.373 406 315 400.627 315 394C315 390.134 316.828 386.695 319.668 384.5C316.828 382.305 315 378.866 315 375C315 368.373 320.373 363 327 363C333.627 363 339 368.373 339 375C339 375.359 338.984 375.715 338.953 376.067C341.599 377.267 343.733 379.401 344.933 382.047C345.285 382.016 345.641 382 346 382Z" fill="#FF8D4E"/>
<rect x="48" y="81" width="190" height="119" rx="8" fill="#E5ECF5" stroke="#D3DAE5" stroke-width="16"/>
<path d="M56 149C142.932 157.133 189.638 160.804 231 149V192H56V149Z" fill="#D3DAE5"/>
<path d="M162.5 162C153.018 172.909 146.644 177.419 133 182V185H197L196.5 181C185.259 175.278 180.786 170.565 173 162H162.5Z" fill="#8D9EB7"/>
<mask id="mask0" mask-type="alpha" maskUnits="userSpaceOnUse" x="133" y="162" width="64" height="23">
<path d="M162.5 162C153.018 172.909 146.644 177.419 133 182V185H197L196.5 181C185.259 175.278 180.786 170.565 173 162H162.5Z" fill="#8D9EB7"/>
</mask>
<g mask="url(#mask0)">
<path d="M153 174L140 179.5L161.5 160.5H174L189.5 177L181 173.5L181.5 176.5L173 171.5L172.5 176L166 171L162 174.5V171L149.5 178L153 174Z" fill="white"/>
</g>
<path d="M106 116.5C89.2 118.1 65.3333 136.167 55.5 145L52.5 196.5H238.5V145C235.833 136.333 230.4 122.6 230 137C229.5 155 201 175 192 178C183 181 141.5 186.5 125.5 178C109.5 169.5 106 157.5 106 151C106 145.8 113.5 135 117 133C120.5 131 123.395 134.053 125.5 137C128 140.5 127.5 140 135.5 140C141.9 140 139.167 135 138 130C134.333 124.833 122.8 114.9 106 116.5Z" fill="#B3BFD0"/>
<path d="M65 165.5C61.4 165.9 57.1667 161.667 55.5 159.5L49.5 146.5C64 136.167 72.5 121 93.5 115C97 113 112 113 122.5 116.5C130 120 140.151 131.651 141 132.5C143 134.5 145.5 140.875 143 144C141 146.5 131 144.5 127 142.5C123 140.5 119.5 132 117.5 131C115.5 130 111 126.5 107 126C103 125.5 96.5 128 95.5 128C94.5 128 96 136 93 134.5C90 133 83.5 135.5 80.5 137C77.5 138.5 81.9661 148.117 83.5 148.5C85.5 149 97 155 98 157.5C99 160 97 164.5 89.5 163.5C82 162.5 74.5 153.5 73 153.5C71.5 153.5 70 157 69.5 159C69 161 69.5 165 65 165.5Z" fill="white"/>
<path d="M62.5 192C76.5 189 101.407 180.967 104 168C105 163 110 160.5 117 164.5C125.5 170 125.5 177 125.5 177C125.5 177 116 171.5 115 173C110.192 180.212 117 186.5 123.5 189.5C126.851 191.046 129.82 191.731 132.337 192H138.634C139.69 191.924 140.487 191.872 141 192H138.634C137.075 192.113 134.949 192.28 132.337 192H62.5Z" fill="white"/>
<rect x="48" y="81" width="190" height="119" rx="8" stroke="#D3DAE5" stroke-width="16"/>
<rect y="619" width="951" height="4" fill="#6C7D95"/>
<path d="M149.5 425C146.299 431.403 138.5 450 137.5 466C137.311 469.016 138 484.5 140 497C142.5 483.5 153.424 470.617 149 458.5C144.886 447.232 150 424 149.5 425Z" fill="#B3BFD0"/>
<path d="M143.5 539.5C143.5 539.5 139.562 511 140 497M140 497C138 484.5 137.311 469.016 137.5 466C138.5 450 146.299 431.403 149.5 425C150 424 144.886 447.232 149 458.5C153.424 470.617 142.5 483.5 140 497Z" stroke="#B3BFD0" stroke-linecap="round" stroke-linejoin="round"/>
<path d="M157.5 489C149.167 476 138.744 456.396 148 433.5C149.331 430.209 151.749 426.3 155.017 422C155.647 421.171 162.5 424.5 166 427.5C167 424 158.629 417.483 159.5 416.466C165.681 409.253 173.715 401.303 182.666 393.5C185 392.5 188.5 400.5 186.5 390.214C209.465 370.862 237.332 353.202 255.5 351C256.888 353.081 248.074 376.9 236.209 403.5C235.617 404.827 223 406 217.5 408C224 407.5 233.048 410.496 232.355 412C227.472 422.596 222.234 433.312 217.076 443C214.047 441.532 181.953 439.344 183.493 442.983C183.562 442.468 214.063 446.679 213.538 449.5C209.696 456.398 205.955 462.562 202.5 467.5C188.5 470.5 169.5 472 199.5 472C187.5 485.5 157.5 489 157.5 489Z" fill="#E5ECF5"/>
<path d="M124.651 459.178C118.242 447.216 80.7086 421.746 63.0823 421.564C61.7704 424.139 89.2273 473.941 101.601 481.996C106.495 485.183 122.961 489.315 122.961 489.315C126.576 481.895 130.896 470.832 124.651 459.178Z" fill="#D3DAE5"/>
<path d="M124.651 459.178C118.242 447.216 80.7086 421.746 63.0823 421.564C61.7704 424.139 89.2273 473.941 101.601 481.996C106.495 485.183 122.961 489.315 122.961 489.315C126.576 481.895 130.896 470.832 124.651 459.178Z" fill="#D3DAE5"/>
<path d="M135 482.5C131.5 482.5 109.9 470.5 104.5 457C103.133 453.582 101.299 448.763 99.3763 443.5C99.016 442.514 104.5 440 112 441C102.5 437.5 97.5732 438.505 97.217 437.5C94.2086 429.012 91.3281 420.313 90 415C89.9234 414.694 89.8228 414.36 89.6999 414C99.3763 407.5 89.4689 413.352 89.3295 413C85.4519 403.201 69.6074 379.033 71 366.5C76.5746 365.046 86.6137 372.638 96.6752 382.5C97 383 92.5 383 98.1886 384C108.37 394.201 118.345 406.381 123.5 413.5C133.462 427.257 141 450 141 458.5C141 463.028 138.5 482.5 135 482.5Z" fill="#E5ECF5"/>
<path d="M68.147 480.507C64.1731 476.011 42.3246 464.954 39.1188 455.657C46.424 449.677 79.5849 462.048 91.7239 467.788C103.241 473.233 115.868 485.367 118.565 490.889C120.001 493.831 124.384 507.359 121.871 508.586C119.358 509.813 100.042 509.589 91.8821 502.711C90.7807 501.783 95 500 99 499C96 496 87.5521 499 84.2137 496C80.2624 492.449 75.9344 488.436 72.5 485.039C82.5 482 69.2618 481.768 68.147 480.507Z" fill="#E5ECF5"/>
<path d="M251 354.5C196.559 388.346 164.5 446 144 539.5" stroke="#B3BFD0" stroke-linecap="round" stroke-linejoin="round"/>
<path d="M142 538.5C144.5 516.667 132.812 465 125.5 445.5C118 425.5 101.5 393.5 74.5 369.5" stroke="#B3BFD0" stroke-linecap="round" stroke-linejoin="round"/>
<path d="M142 538.5C139 520 134.5 506.5 124 488C113.457 469.424 104 454.5 77 430.5" stroke="#B3BFD0" stroke-linecap="round" stroke-linejoin="round"/>
<path d="M45 456.5C91 470.5 126.664 503.56 140 539" stroke="#B3BFD0" stroke-linecap="round" stroke-linejoin="round"/>
<path d="M223 485.5C216 487 180 509 171.5 512.5C168.706 513.651 164.69 517.036 160.5 521.157C161.167 516.438 165.3 505.4 176.5 499C190.5 491 230 484 223 485.5Z" fill="#B3BFD0"/>
<path d="M144.5 538.5C145.482 534.687 156.31 525.279 160.5 521.157M160.5 521.157C164.69 517.036 168.706 513.651 171.5 512.5C180 509 216 487 223 485.5C230 484 190.5 491 176.5 499C165.3 505.4 161.167 516.438 160.5 521.157Z" stroke="#B3BFD0" stroke-linecap="round" stroke-linejoin="round"/>
<path d="M99.0691 538.012C99.0245 535.784 100.821 534 103.05 534H182.95C185.179 534 186.976 535.784 186.931 538.012C186.604 554.35 184.923 615 178 615C170 615 116 615 108 615C101.078 615 99.3964 554.35 99.0691 538.012Z" fill="#D3DAE5"/>
<rect x="107" y="611" width="72" height="8" rx="4" fill="#B3BFD0"/>
<path d="M837.08 519.013C831.239 530.567 832.001 534.503 834.287 543.644H829.716C822.666 533.069 823.254 526.611 824.108 517.223L824.13 516.982C825.018 507.206 825.653 475.084 828.447 459.848C830.849 446.743 835.506 440.965 836.762 433.141C836.908 432.23 838.269 431.997 838.587 432.863C842.023 442.222 843.774 453.147 844.444 459.848C845.205 467.466 845.879 501.605 837.08 519.013Z" fill="#D3DAE5"/>
<path d="M765.271 454.422C770.724 461.197 771.478 477.519 772.328 484.987C774.407 503.229 782.568 524.15 803.815 543.073C804.831 535.709 797.239 521.654 793.785 513.935C789.469 504.285 789.849 502.762 787.056 487.526C784.476 473.455 777.131 455.485 766.021 452.82C765.197 452.623 764.74 453.761 765.271 454.422Z" fill="#D3DAE5"/>
<path d="M779.057 452.865C777.649 430.812 780.902 394.345 788.214 367.996C788.481 367.033 789.817 367.275 789.773 368.273C788.886 388.415 789.175 407.283 790.325 413.034C794.388 433.349 802.037 447.279 805.084 470.64C807.522 489.329 805.084 521.806 809.909 546.691C809.909 546.691 794.896 525.488 790.325 507.84C785.754 490.192 780.61 477.196 779.057 452.865Z" fill="#E5ECF5"/>
<path d="M812.449 417.95C809.839 398.226 806.206 384.844 798.674 376.311C798.115 375.677 797.101 376.216 797.234 377.051C799.629 392.089 800.456 433.032 798.558 452.484C797.488 463.453 794.745 479.979 800.768 497.176C808.954 520.546 805.847 530.821 804.831 540.343C804.831 540.343 815.496 540.343 818.162 521.172C820.828 502 815.331 439.735 812.449 417.95Z" fill="#D3DAE5"/>
<path d="M832.509 434.963C832.181 432.413 824.712 391.636 814.515 363.482C814.169 362.527 812.559 362.933 812.629 363.946C813.358 374.549 812.957 387.78 812.957 390.526C812.957 409.952 808.386 436.614 808.132 456.166C807.878 475.719 817.782 498.064 816.385 509.745C814.988 521.426 809.148 537.804 814.227 547.199C817.02 537.381 823.622 528.408 828.446 508.348C830.857 498.325 834.16 447.787 832.509 434.963Z" fill="#E5ECF5"/>
<path d="M848.507 513.681C845.841 522.985 843.936 531.71 825.399 545.168C831.621 538.853 831.305 533.218 832.509 508.348C834.245 472.513 842.325 457.49 866.282 437.503C867.882 436.359 857.159 449.959 855.363 483.21C854.636 496.654 853.71 495.521 848.507 513.681Z" fill="#E5ECF5"/>
<path d="M751.435 474.203C755.439 493.366 758.768 495.722 762.425 502.762C772.582 522.314 783.656 521.985 792.96 540.978C802.264 559.971 801.467 544.66 801.467 544.66C797.488 538.142 791.271 520.638 787.818 512.919C783.501 503.27 781.978 503.27 769.789 492.859C758.218 482.975 765.413 489.569 752.918 473.532C752.369 472.827 751.252 473.329 751.435 474.203Z" fill="#E5ECF5"/>
<path d="M769.07 538.013C769.025 535.785 770.822 534.001 773.05 534.001H852.951C855.179 534.001 856.976 535.785 856.931 538.013C856.604 554.351 854.923 615.001 848 615.001C840 615.001 786 615.001 778 615.001C771.078 615.001 769.397 554.351 769.07 538.013Z" fill="#D3DAE5"/>
<rect x="777" y="611.001" width="72" height="8" rx="4" fill="#B3BFD0"/>
<g clip-path="url(#clip0)">
<path d="M496.942 326.07C514.252 349.769 542.653 351.319 560.99 351.425C563.935 353.195 572.05 353.571 573.295 350.16C579.953 331.921 582.354 330.003 567.296 332.125C551.314 334.378 540.358 314.834 549.652 279.081C562.514 229.597 517.94 197.588 498.23 190.377C453.201 173.902 424.057 186.299 416.329 219.034C441.364 213.534 459.04 217.081 472.172 248.768C484.898 279.475 472.917 293.176 496.942 326.07Z" fill="#FFB48A"/>
<mask id="mask1" mask-type="alpha" maskUnits="userSpaceOnUse" x="395" y="176" width="199" height="214">
<path d="M469.359 335.245C478.625 370.738 533.58 386.386 551.917 386.492C554.862 388.261 562.084 388.152 567.411 373.561C574.069 355.322 569.568 368.361 561.412 355.527C551.522 339.964 540.359 326.239 552.763 278.517C565.217 230.607 517.94 197.588 498.23 190.377C453.201 173.902 424.057 186.299 416.329 219.033C441.364 213.534 459.04 217.081 472.172 248.768C484.898 279.475 459.907 299.035 469.359 335.245Z" fill="#FFB48A"/>
</mask>
<g mask="url(#mask1)">
<path d="M413.215 223.133L418.146 197.574L440.235 181.802L467.821 182.035C466.034 183.484 459.22 182.569 458.971 184.301C458.773 185.687 467.513 189.427 467.558 191.785C467.603 194.143 456.147 191.663 455.899 193.395C455.65 195.127 463.266 197.815 463.869 201.674C464.472 205.532 453.34 199.87 451.969 201.672C450.599 203.473 464.927 214.095 461.926 215.212C458.926 216.329 453.864 212.132 451.721 213.762C450.007 215.067 452.128 222.166 453.402 225.552L413.215 223.133Z" fill="#FFEEE4"/>
</g>
<path d="M453.385 225.486C452.11 222.1 449.99 215.001 451.704 213.697C453.846 212.066 458.909 216.264 461.909 215.147C464.909 214.03 450.581 203.408 451.952 201.606C453.323 199.804 464.455 205.466 463.852 201.608C463.249 197.75 455.632 195.062 455.881 193.329C456.13 191.597 467.585 194.077 467.54 191.719C467.496 189.361 458.755 185.622 458.954 184.236C459.202 182.503 466.017 183.418 467.803 181.97" stroke="#FF8D4E" stroke-width="2" stroke-linecap="round"/>
<path d="M598.34 360.836C592.5 372.389 593.262 376.325 595.547 385.467H590.977C583.927 374.892 584.514 368.433 585.368 359.045L585.39 358.804C586.279 349.028 586.914 316.906 589.707 301.671C592.11 288.565 596.767 282.787 598.022 274.963C598.168 274.052 599.53 273.819 599.847 274.685C603.284 284.045 605.034 294.97 605.704 301.671C606.466 309.289 607.14 343.428 598.34 360.836Z" fill="#FFB48A"/>
<path d="M526.532 296.244C531.984 303.02 532.738 319.342 533.589 326.809C535.667 345.051 543.829 365.972 565.076 384.895C566.092 377.531 558.499 363.476 555.046 355.757C550.729 346.108 551.11 344.584 548.317 329.349C545.737 315.277 538.392 297.307 527.282 294.643C526.458 294.445 526.001 295.583 526.532 296.244Z" fill="#FFB48A"/>
<path d="M540.318 294.688C538.91 272.635 542.162 236.168 549.475 209.818C549.742 208.855 551.078 209.097 551.034 210.096C550.146 230.237 550.435 249.105 551.586 254.857C555.649 275.171 563.298 289.101 566.345 312.462C568.783 331.151 566.345 363.629 571.17 388.514C571.17 388.514 556.157 367.311 551.586 349.663C547.015 332.015 541.871 319.018 540.318 294.688Z" fill="#FFC6A6"/>
<path d="M573.71 259.773C571.1 240.048 567.467 226.666 559.935 218.133C559.375 217.499 558.362 218.038 558.495 218.873C560.89 233.911 561.717 274.855 559.819 294.307C558.749 305.275 556.006 321.801 562.029 338.998C570.215 362.369 567.108 372.643 566.092 382.165C566.092 382.165 576.757 382.165 579.423 362.994C582.089 343.823 576.592 281.557 573.71 259.773Z" fill="#FFB48A"/>
<path d="M593.77 276.786C593.442 274.236 585.973 233.459 575.776 205.304C575.43 204.349 573.82 204.755 573.89 205.768C574.619 216.371 574.218 229.602 574.218 232.349C574.218 251.774 569.647 278.436 569.393 297.989C569.139 317.541 579.042 339.887 577.646 351.567C576.249 363.248 570.409 379.626 575.487 389.021C578.281 379.203 584.883 370.231 589.707 350.171C592.118 340.147 595.421 289.609 593.77 276.786Z" fill="#FFC6A6"/>
<path d="M609.767 355.503C607.102 364.807 605.197 373.532 586.66 386.99C592.882 380.675 592.565 375.04 593.77 350.171C595.506 314.336 603.586 299.313 627.542 279.325C629.143 278.182 618.42 291.781 616.623 325.032C615.897 338.477 614.97 337.343 609.767 355.503Z" fill="#FFC6A6"/>
<path d="M512.695 316.026C516.7 335.188 520.029 337.545 523.686 344.584C533.843 364.137 544.917 363.807 554.221 382.8C563.525 401.794 562.727 386.482 562.727 386.482C558.749 379.965 552.532 362.461 549.079 354.741C544.762 345.092 543.238 345.092 531.05 334.681C519.479 324.797 526.674 331.392 514.179 315.355C513.629 314.65 512.513 315.151 512.695 316.026Z" fill="#FFC6A6"/>
<path d="M495.084 405.118C489.243 416.672 490.005 420.607 492.29 429.749H487.72C480.67 419.174 481.257 412.716 482.111 403.327L482.133 403.086C483.022 393.31 483.657 361.189 486.451 345.953C488.853 332.848 493.51 327.07 494.765 319.245C494.912 318.335 496.273 318.102 496.591 318.967C500.027 328.327 501.777 339.252 502.448 345.953C503.209 353.571 503.883 387.71 495.084 405.118Z" fill="#FFB48A"/>
<path d="M423.275 340.526C428.728 347.302 429.481 363.624 430.332 371.092C432.411 389.334 440.572 410.255 461.819 429.178C462.835 421.814 455.243 407.759 451.789 400.039C447.472 390.39 447.853 388.867 445.06 373.631C442.48 359.56 435.135 341.589 424.025 338.925C423.201 338.727 422.744 339.866 423.275 340.526Z" fill="#FFB48A"/>
<path d="M437.061 338.97C435.653 316.917 438.906 280.45 446.218 254.101C446.485 253.137 447.821 253.379 447.777 254.378C446.889 274.52 447.179 293.387 448.329 299.139C452.392 319.453 460.041 333.384 463.088 356.745C465.526 375.434 463.088 407.911 467.913 432.796C467.913 432.796 452.9 411.593 448.329 393.945C443.758 376.297 438.614 363.301 437.061 338.97Z" fill="#FFC6A6"/>
<path d="M470.453 304.055C467.843 284.33 464.21 270.949 456.678 262.416C456.119 261.782 455.105 262.32 455.238 263.155C457.633 278.194 458.46 319.137 456.562 338.589C455.492 349.557 452.749 366.084 458.772 383.28C466.958 406.651 463.851 416.926 462.835 426.448C462.835 426.448 473.5 426.448 476.166 407.276C478.832 388.105 473.335 325.839 470.453 304.055Z" fill="#FFB48A"/>
<path d="M490.513 321.068C490.185 318.518 482.716 277.741 472.519 249.587C472.173 248.632 470.563 249.037 470.633 250.051C471.362 260.654 470.961 273.885 470.961 276.631C470.961 296.056 466.39 322.719 466.136 342.271C465.882 361.823 475.785 384.169 474.389 395.85C472.992 407.53 467.152 423.909 472.23 433.304C475.024 423.485 481.626 414.513 486.45 394.453C488.861 384.429 492.164 333.891 490.513 321.068Z" fill="#FFC6A6"/>
<path d="M506.511 399.785C503.845 409.089 501.94 417.814 483.403 431.272C489.625 424.957 489.308 419.322 490.513 394.453C492.249 358.618 500.329 343.595 524.285 323.607C525.886 322.464 515.163 336.063 513.367 369.314C512.64 382.759 511.713 381.625 506.511 399.785Z" fill="#FFC6A6"/>
<path d="M409.438 360.308C413.443 379.47 416.772 381.827 420.429 388.867C430.586 408.419 441.66 408.089 450.964 427.083C460.268 446.076 459.47 430.765 459.47 430.765C455.492 424.247 449.275 406.743 445.822 399.024C441.505 389.374 439.982 389.374 427.793 378.963C416.222 369.08 423.417 375.674 410.922 359.637C410.373 358.932 409.256 359.433 409.438 360.308Z" fill="#FFC6A6"/>
<path d="M418.337 357.712C412.496 369.266 413.258 373.202 415.543 382.343H410.973C403.923 371.768 404.51 365.31 405.364 355.922L405.386 355.681C406.275 345.904 406.91 313.783 409.703 298.547C412.106 285.442 416.763 279.664 418.018 271.84C418.165 270.929 419.526 270.696 419.844 271.561C423.28 280.921 425.03 291.846 425.7 298.547C426.462 306.165 427.136 340.304 418.337 357.712Z" fill="#FFB48A"/>
<path d="M346.528 293.12C351.981 299.896 352.734 316.218 353.585 323.686C355.664 341.928 363.825 362.849 385.072 381.772C386.088 374.408 378.496 360.353 375.042 352.633C370.725 342.984 371.106 341.461 368.313 326.225C365.733 312.154 358.388 294.184 347.278 291.519C346.454 291.322 345.997 292.46 346.528 293.12Z" fill="#FFB48A"/>
<path d="M360.314 291.564C358.906 269.511 362.159 233.044 369.471 206.695C369.738 205.732 371.074 205.974 371.03 206.972C370.142 227.114 370.432 245.981 371.582 251.733C375.645 272.047 383.294 285.978 386.341 309.339C388.779 328.028 386.341 360.505 391.166 385.39C391.166 385.39 376.153 364.187 371.582 346.539C367.011 328.891 361.867 315.895 360.314 291.564Z" fill="#FFC6A6"/>
<path d="M393.706 256.649C391.096 236.924 387.463 223.543 379.931 215.01C379.372 214.376 378.358 214.914 378.491 215.75C380.886 230.788 381.713 271.731 379.815 291.183C378.745 302.151 376.002 318.678 382.025 335.874C390.211 359.245 387.104 369.52 386.088 379.042C386.088 379.042 396.753 379.042 399.419 359.87C402.085 340.699 396.588 278.434 393.706 256.649Z" fill="#FFB48A"/>
<path d="M413.766 273.662C413.438 271.112 405.969 230.335 395.772 202.181C395.426 201.226 393.816 201.631 393.886 202.645C394.615 213.248 394.214 226.479 394.214 229.225C394.214 248.65 389.643 275.313 389.389 294.865C389.135 314.418 399.038 336.763 397.642 348.444C396.245 360.124 390.405 376.503 395.483 385.898C398.277 376.079 404.879 367.107 409.703 347.047C412.114 337.023 415.417 286.486 413.766 273.662Z" fill="#FFC6A6"/>
<path d="M429.763 352.38C427.098 361.683 425.193 370.408 406.656 383.867C412.878 377.552 412.561 371.917 413.766 347.047C415.502 311.212 423.582 296.189 447.538 276.202C449.139 275.058 438.416 288.658 436.62 321.908C435.893 335.353 434.966 334.22 429.763 352.38Z" fill="#FFC6A6"/>
<path d="M332.691 312.902C336.696 332.064 340.025 334.421 343.682 341.461C353.839 361.013 364.913 360.683 374.217 379.677C383.521 398.67 382.723 383.359 382.723 383.359C378.745 376.841 372.528 359.337 369.075 351.618C364.758 341.969 363.234 341.969 351.046 331.558C339.475 321.674 346.67 328.268 334.175 312.231C333.626 311.526 332.509 312.028 332.691 312.902Z" fill="#FFC6A6"/>
</g>
<defs>
<clipPath id="clip0">
<rect x="358" y="73" width="236" height="291" rx="8" fill="white"/>
</clipPath>
</defs>
</svg>
