<svg width="951" height="623" viewBox="0 0 951 623" fill="none" xmlns="http://www.w3.org/2000/svg">
<path fill-rule="evenodd" clip-rule="evenodd" d="M363.5 569L334 567C332.053 582.214 330.471 591.294 327.898 599.05C321.787 599.606 317 604.744 317 611C317 617.627 322.373 623 329 623C333.176 623 336.853 620.867 339.003 617.632L339.004 617.633C342.172 612.913 345.383 605.014 348.7 596.854C353.365 585.376 358.24 573.384 363.5 569Z" fill="#6C7D95"/>
<path fill-rule="evenodd" clip-rule="evenodd" d="M589.5 569L619 567C620.947 582.214 622.529 591.294 625.102 599.05C631.213 599.606 636 604.744 636 611C636 617.627 630.627 623 624 623C619.824 623 616.147 620.867 613.997 617.632L613.996 617.633C610.828 612.913 607.617 605.014 604.3 596.854C599.635 585.376 594.76 573.384 589.5 569Z" fill="#6C7D95"/>
<path d="M312 515C312 501.745 322.745 491 336 491H612C625.255 491 636 501.745 636 515V568C636 572.418 632.418 576 628 576H320C315.582 576 312 572.418 312 568V515Z" fill="#A8B6C9"/>
<circle cx="342" cy="506" r="4" fill="#8D9EB7"/>
<circle cx="386" cy="525" r="4" fill="#8D9EB7"/>
<circle cx="342" cy="549" r="4" fill="#8D9EB7"/>
<circle cx="606" cy="506" r="4" fill="#8D9EB7"/>
<circle cx="606" cy="549" r="4" fill="#8D9EB7"/>
<circle cx="430" cy="506" r="4" fill="#8D9EB7"/>
<circle cx="474" cy="525" r="4" fill="#8D9EB7"/>
<circle cx="430" cy="549" r="4" fill="#8D9EB7"/>
<circle cx="518" cy="506" r="4" fill="#8D9EB7"/>
<circle cx="562" cy="525" r="4" fill="#8D9EB7"/>
<circle cx="518" cy="549" r="4" fill="#8D9EB7"/>
<rect x="714" y="87.5" width="190" height="232.5" rx="16" fill="#F6F9FE" stroke="#D3DAE5" stroke-width="16"/>
<path d="M720 175C798.837 154.781 838.846 153.843 901 175V316H720V175Z" fill="#E5ECF5"/>
<rect x="720" y="249" width="181" height="67" fill="#B3BFD0"/>
<path d="M789 203.5C790.841 190 794 176 796 166.5C798 157 805.596 146.629 820.5 144.5C835.404 142.371 839.744 146.667 846.284 152.75C852.823 158.833 853.528 168.441 854.192 175.743C854.856 183.046 852.701 199.646 853 211.563C853.229 220.69 855.187 225.313 856.437 227.188C857.687 229.063 860.687 232.313 860.687 232.313L846.284 230.188L811.001 231.556L807.96 234.598C804.512 242.912 800.051 260.147 800.051 262.58C800.051 265.014 793.842 248.485 789 236.5C784.158 224.515 787.158 217 789 203.5Z" fill="#A8B6C9"/>
<path d="M866 312.5H766L788.115 243.554C790.304 236.73 794.762 230.83 800.948 227.211C805.865 224.335 811.596 221.218 815.25 220C821.25 217.5 819.43 207.93 818.125 203.875L836 198.125C833.572 204.412 833.25 215.875 836 218C842.905 223.336 851.274 227.3 852.76 235.899L866 312.5Z" fill="#D3DAE5"/>
<path d="M815.268 241.909C802 240 802.125 232.625 805 223.375C789.5 231 784 239 775.5 257.5C754 275.5 747 300 756.5 312.25H872C882 299.5 872 249.5 867.25 241.909C862.5 234.319 862.75 233.5 858 229.375C853.25 225.25 848.375 221.75 848.375 221.75C844.125 229.417 830.858 244.153 815.268 241.909Z" fill="#A8B6C9"/>
<path d="M810.037 292.25C816.912 291.125 825.537 291 825.537 291C829.412 291 832.287 295.5 830.662 297.375C822.912 298 820.309 296.598 814.625 301.125C803.759 306.263 799.125 305 799.125 302C799.125 299 803.162 293.375 810.037 292.25Z" fill="#B3BFD0"/>
<path d="M814.969 287.5C808.094 286.375 799.469 286.25 799.469 286.25C795.594 286.25 792.719 290.75 794.344 292.625C802.094 293.25 803.066 291.598 808.75 296.125C816.018 301.913 826.406 301.375 828.5 298.75C830.594 296.125 821.844 288.625 814.969 287.5Z" fill="#D3DAE5"/>
<path d="M848.235 178.312C848.235 196.792 832.237 211 818 211C803.763 211 799.899 199.556 799.899 181.076C799.899 162.596 808.219 147.76 822.456 147.76C836.693 147.76 848.235 159.832 848.235 178.312Z" fill="#D3DAE5"/>
<path d="M835.875 167.625C833.375 161.25 807 158 801 168.5L802.789 156.125L812.978 148.392L825.753 146.719L837.767 150.521L849.021 165.098L851.606 183.347L850.688 210.5L855.408 233.077C855.408 233.077 840.581 255.509 830.011 252.695C837.007 246.004 839.75 236.5 844 227.125C844 227.125 848.5 219.469 834.359 205.133C838.75 199.625 840.3 178.909 835.875 167.625Z" fill="#A8B6C9"/>
<ellipse cx="807.625" cy="182.854" rx="1.36871" ry="1.60369" fill="#8D9EB7"/>
<ellipse cx="823.395" cy="182.854" rx="1.36871" ry="1.60369" fill="#8D9EB7"/>
<path d="M808.065 192.632C807.89 192.345 807.516 192.254 807.229 192.429C806.942 192.604 806.851 192.978 807.025 193.265L808.065 192.632ZM823.777 193.477C824.069 193.31 824.17 192.939 824.003 192.647C823.837 192.355 823.465 192.254 823.173 192.421L823.777 193.477ZM807.025 193.265C807.667 194.32 808.809 194.983 810.124 195.371C811.446 195.762 813.017 195.896 814.634 195.838C817.86 195.721 821.411 194.829 823.777 193.477L823.173 192.421C821.015 193.654 817.666 194.511 814.59 194.622C813.056 194.678 811.626 194.546 810.468 194.205C809.303 193.861 808.487 193.327 808.065 192.632L807.025 193.265Z" fill="#8D9EB7"/>
<rect x="714" y="87.5" width="190" height="232.5" rx="16" stroke="#D3DAE5" stroke-width="16"/>
<rect x="342" y="57" width="268" height="323" rx="24" fill="#FFD3BA" stroke="#FFEEE4" stroke-width="32"/>
<rect x="334" y="49" width="284" height="339" rx="24" stroke="#FF8D4E" stroke-width="16"/>
<path d="M326 208C326 201.875 342 208 342 208V232C342 232 326 238.375 326 232C326 228.083 318.022 224.448 311.871 222.228C309.954 221.537 309.94 218.416 311.852 217.711C318.005 215.442 326 211.769 326 208Z" fill="#FF8D4E"/>
<path d="M626 208C626 201.875 610 208 610 208V232C610 232 626 238.375 626 232C626 228.083 633.978 224.448 640.129 222.228C642.046 221.537 642.06 218.416 640.148 217.711C633.995 215.442 626 211.769 626 208Z" fill="#FF8D4E"/>
<path d="M488.056 396.5C494.181 396.5 488.056 380.5 488.056 380.5H464.056C464.056 380.5 457.681 396.5 464.056 396.5C467.973 396.5 471.608 404.478 473.828 410.629C474.519 412.546 477.64 412.56 478.345 410.648C480.614 404.495 484.287 396.5 488.056 396.5Z" fill="#FF8D4E"/>
<path d="M487.833 41C493.958 41 487.833 57 487.833 57L463.833 57C463.833 57 457.458 41 463.833 41C467.75 41 471.385 33.0216 473.605 26.8711C474.297 24.9543 477.417 24.9396 478.122 26.8516C480.391 33.0047 484.065 41 487.833 41Z" fill="#FF8D4E"/>
<path fill-rule="evenodd" clip-rule="evenodd" d="M346 54C352.627 54 358 48.6274 358 42C358 35.3726 352.627 30 346 30C342.134 30 338.695 31.8284 336.5 34.6676C334.305 31.8284 330.866 30 327 30C320.373 30 315 35.3726 315 42C315 45.8662 316.828 49.3054 319.668 51.5C316.828 53.6946 315 57.1338 315 61C315 67.6274 320.373 73 327 73C333.627 73 339 67.6274 339 61C339 60.6405 338.984 60.2847 338.953 59.9333C341.599 58.7325 343.733 56.5994 344.933 53.9532C345.285 53.9842 345.641 54 346 54Z" fill="#FF8D4E"/>
<path fill-rule="evenodd" clip-rule="evenodd" d="M604 54C597.373 54 592 48.6274 592 42C592 35.3726 597.373 30 604 30C607.866 30 611.305 31.8284 613.5 34.6676C615.695 31.8284 619.134 30 623 30C629.627 30 635 35.3726 635 42C635 45.8662 633.172 49.3054 630.332 51.5C633.172 53.6946 635 57.1338 635 61C635 67.6274 629.627 73 623 73C616.373 73 611 67.6274 611 61C611 60.6405 611.016 60.2847 611.047 59.9333C608.401 58.7325 606.267 56.5994 605.067 53.9532C604.715 53.9842 604.359 54 604 54Z" fill="#FF8D4E"/>
<path fill-rule="evenodd" clip-rule="evenodd" d="M604 381C597.373 381 592 386.373 592 393C592 399.627 597.373 405 604 405C607.866 405 611.305 403.172 613.5 400.332C615.695 403.172 619.134 405 623 405C629.627 405 635 399.627 635 393C635 389.134 633.172 385.695 630.332 383.5C633.172 381.305 635 377.866 635 374C635 367.373 629.627 362 623 362C616.373 362 611 367.373 611 374C611 374.359 611.016 374.715 611.047 375.067C608.401 376.267 606.267 378.401 605.067 381.047C604.715 381.016 604.359 381 604 381Z" fill="#FF8D4E"/>
<path fill-rule="evenodd" clip-rule="evenodd" d="M346 382C352.627 382 358 387.373 358 394C358 400.627 352.627 406 346 406C342.134 406 338.695 404.172 336.5 401.332C334.305 404.172 330.866 406 327 406C320.373 406 315 400.627 315 394C315 390.134 316.828 386.695 319.668 384.5C316.828 382.305 315 378.866 315 375C315 368.373 320.373 363 327 363C333.627 363 339 368.373 339 375C339 375.359 338.984 375.715 338.953 376.067C341.599 377.267 343.733 379.401 344.933 382.047C345.285 382.016 345.641 382 346 382Z" fill="#FF8D4E"/>
<rect x="48" y="81" width="190" height="119" rx="16" fill="#E5ECF5" stroke="#D3DAE5" stroke-width="16"/>
<path d="M56 149C142.932 157.133 189.638 160.804 231 149V192H56V149Z" fill="#D3DAE5"/>
<path d="M162.5 162C153.018 172.909 146.644 177.419 133 182V185H197L196.5 181C185.259 175.278 180.786 170.565 173 162H162.5Z" fill="#8D9EB7"/>
<mask id="mask0" mask-type="alpha" maskUnits="userSpaceOnUse" x="133" y="162" width="64" height="23">
<path d="M162.5 162C153.018 172.909 146.644 177.419 133 182V185H197L196.5 181C185.259 175.278 180.786 170.565 173 162H162.5Z" fill="#8D9EB7"/>
</mask>
<g mask="url(#mask0)">
<path d="M153 174L140 179.5L161.5 160.5H174L189.5 177L181 173.5L181.5 176.5L173 171.5L172.5 176L166 171L162 174.5V171L149.5 178L153 174Z" fill="white"/>
</g>
<path d="M106 116.5C89.2 118.1 65.3333 136.167 55.5 145L52.5 196.5H238.5V145C235.833 136.333 230.4 122.6 230 137C229.5 155 201 175 192 178C183 181 141.5 186.5 125.5 178C109.5 169.5 106 157.5 106 151C106 145.8 113.5 135 117 133C120.5 131 123.395 134.053 125.5 137C128 140.5 127.5 140 135.5 140C141.9 140 139.167 135 138 130C134.333 124.833 122.8 114.9 106 116.5Z" fill="#B3BFD0"/>
<path d="M65 165.5C61.4 165.9 57.1667 161.667 55.5 159.5L49.5 146.5C64 136.167 72.5 121 93.5 115C97 113 112 113 122.5 116.5C130 120 140.151 131.651 141 132.5C143 134.5 145.5 140.875 143 144C141 146.5 131 144.5 127 142.5C123 140.5 119.5 132 117.5 131C115.5 130 111 126.5 107 126C103 125.5 96.5 128 95.5 128C94.5 128 96 136 93 134.5C90 133 83.5 135.5 80.5 137C77.5 138.5 81.9661 148.117 83.5 148.5C85.5 149 97 155 98 157.5C99 160 97 164.5 89.5 163.5C82 162.5 74.5 153.5 73 153.5C71.5 153.5 70 157 69.5 159C69 161 69.5 165 65 165.5Z" fill="white"/>
<path d="M101.5 168C96 179.5 77 190 63 193L139 192.5C137.5 191.5 132.681 193.737 123.5 189.5C117 186.5 108.871 179.129 115 173C117.366 170.634 121.331 173.294 123.652 175.267C124.344 175.855 125.312 175.38 125.056 174.509C124.312 171.976 122.322 167.944 117 164.5C110 160.5 103.7 163.4 101.5 168Z" fill="white"/>
<rect x="48" y="81" width="190" height="119" rx="15" stroke="#D3DAE5" stroke-width="16"/>
<rect y="619" width="951" height="4" fill="#6C7D95"/>
<path d="M149.5 425C146.299 431.403 138.5 450 137.5 466C137.311 469.016 138 484.5 140 497C142.5 483.5 153.424 470.617 149 458.5C144.886 447.232 150 424 149.5 425Z" fill="#B3BFD0"/>
<path d="M143.5 539.5C143.5 539.5 139.562 511 140 497M140 497C138 484.5 137.311 469.016 137.5 466C138.5 450 146.299 431.403 149.5 425C150 424 144.886 447.232 149 458.5C153.424 470.617 142.5 483.5 140 497Z" stroke="#B3BFD0" stroke-linecap="round" stroke-linejoin="round"/>
<path d="M157.5 489C149.167 476 138.744 456.396 148 433.5C149.331 430.209 151.749 426.3 155.017 422C155.647 421.171 162.5 424.5 166 427.5C167 424 158.629 417.483 159.5 416.466C165.681 409.253 173.715 401.303 182.666 393.5C185 392.5 188.5 400.5 186.5 390.214C209.465 370.862 237.332 353.202 255.5 351C256.888 353.081 248.074 376.9 236.209 403.5C235.617 404.827 223 406 217.5 408C224 407.5 233.048 410.496 232.355 412C227.472 422.596 222.234 433.312 217.076 443C214.047 441.532 181.953 439.344 183.493 442.983C183.562 442.468 214.063 446.679 213.538 449.5C209.696 456.398 205.955 462.562 202.5 467.5C188.5 470.5 169.5 472 199.5 472C187.5 485.5 157.5 489 157.5 489Z" fill="#E5ECF5"/>
<path d="M124.651 459.178C118.242 447.216 80.7086 421.746 63.0823 421.564C61.7704 424.139 89.2273 473.941 101.601 481.996C106.495 485.183 122.961 489.315 122.961 489.315C126.576 481.895 130.896 470.832 124.651 459.178Z" fill="#D3DAE5"/>
<path d="M124.651 459.178C118.242 447.216 80.7086 421.746 63.0823 421.564C61.7704 424.139 89.2273 473.941 101.601 481.996C106.495 485.183 122.961 489.315 122.961 489.315C126.576 481.895 130.896 470.832 124.651 459.178Z" fill="#D3DAE5"/>
<path d="M135 482.5C131.5 482.5 109.9 470.5 104.5 457C103.133 453.582 101.299 448.763 99.3763 443.5C99.016 442.514 104.5 440 112 441C102.5 437.5 97.5732 438.505 97.217 437.5C94.2086 429.012 91.3281 420.313 90 415C89.9234 414.694 89.8228 414.36 89.6999 414C99.3763 407.5 89.4689 413.352 89.3295 413C85.4519 403.201 69.6074 379.033 71 366.5C76.5746 365.046 86.6137 372.638 96.6752 382.5C97 383 92.5 383 98.1886 384C108.37 394.201 118.345 406.381 123.5 413.5C133.462 427.257 141 450 141 458.5C141 463.028 138.5 482.5 135 482.5Z" fill="#E5ECF5"/>
<path d="M68.147 480.507C64.1731 476.011 42.3246 464.954 39.1188 455.657C46.424 449.677 79.5849 462.048 91.7239 467.788C103.241 473.233 115.868 485.367 118.565 490.889C120.001 493.831 124.384 507.359 121.871 508.586C119.358 509.813 100.042 509.589 91.8821 502.711C90.7807 501.783 95 500 99 499C96 496 87.5521 499 84.2137 496C80.2624 492.449 75.9344 488.436 72.5 485.039C82.5 482 69.2618 481.768 68.147 480.507Z" fill="#E5ECF5"/>
<path d="M251 354.5C196.559 388.346 164.5 446 144 539.5" stroke="#B3BFD0" stroke-linecap="round" stroke-linejoin="round"/>
<path d="M142 538.5C144.5 516.667 132.812 465 125.5 445.5C118 425.5 101.5 393.5 74.5 369.5" stroke="#B3BFD0" stroke-linecap="round" stroke-linejoin="round"/>
<path d="M142 538.5C139 520 134.5 506.5 124 488C113.457 469.424 104 454.5 77 430.5" stroke="#B3BFD0" stroke-linecap="round" stroke-linejoin="round"/>
<path d="M45 456.5C91 470.5 126.664 503.56 140 539" stroke="#B3BFD0" stroke-linecap="round" stroke-linejoin="round"/>
<path d="M223 485.5C216 487 180 509 171.5 512.5C168.706 513.651 164.69 517.036 160.5 521.157C161.167 516.438 165.3 505.4 176.5 499C190.5 491 230 484 223 485.5Z" fill="#B3BFD0"/>
<path d="M144.5 538.5C145.482 534.687 156.31 525.279 160.5 521.157M160.5 521.157C164.69 517.036 168.706 513.651 171.5 512.5C180 509 216 487 223 485.5C230 484 190.5 491 176.5 499C165.3 505.4 161.167 516.438 160.5 521.157Z" stroke="#B3BFD0" stroke-linecap="round" stroke-linejoin="round"/>
<path d="M99.0691 538.012C99.0245 535.784 100.821 534 103.05 534H182.95C185.179 534 186.976 535.784 186.931 538.012C186.604 554.35 184.923 615 178 615C170 615 116 615 108 615C101.078 615 99.3964 554.35 99.0691 538.012Z" fill="#D3DAE5"/>
<rect x="107" y="611" width="72" height="8" rx="4" fill="#B3BFD0"/>
<path d="M828.436 547.144C826.856 538.068 830.275 529.149 835.741 518.336C840.006 509.9 842.27 497.253 843.353 485.62C844.434 474.017 844.319 463.68 843.951 459.998C843.72 457.693 843.72 454.863 843.72 451.858C843.72 450.402 843.72 448.904 843.693 447.406C843.622 443.352 843.366 439.144 842.473 435.186C841.448 437.988 839.822 440.592 838.163 443.25C837.744 443.921 837.323 444.595 836.909 445.277C834.482 449.273 832.077 453.817 830.922 460.119C828.865 471.34 827.443 491.764 826.477 505.634C826.139 510.491 825.857 514.544 825.623 517.118C825.419 519.361 825.011 521.704 824.605 524.042C824.566 524.262 824.528 524.482 824.49 524.701C824.043 527.284 823.614 529.877 823.428 532.49C823.074 537.454 823.605 542.389 826.535 547.144H828.436Z" fill="#BEC9D9" stroke="#D3DAE5" stroke-width="3" stroke-linecap="round" stroke-linejoin="round"/>
<path d="M773.818 484.817C773.701 483.784 773.583 482.553 773.452 481.185C773.122 477.741 772.709 473.425 772.005 469.198C771.14 464.011 769.793 458.606 767.415 454.851C771.611 456.603 775.341 460.899 778.417 466.607C781.873 473.023 784.312 480.876 785.58 487.797C786.12 490.743 786.542 493.182 786.904 495.272C788.401 503.933 788.864 506.608 792.416 514.547C793.039 515.941 793.776 517.498 794.565 519.165C796.024 522.249 797.66 525.707 799.087 529.204C800.175 531.871 801.108 534.487 801.707 536.865C801.953 537.841 802.137 538.757 802.255 539.605C783.203 521.58 775.773 501.973 773.818 484.817Z" fill="#BEC9D9" stroke="#D3DAE5" stroke-width="3" stroke-linecap="round" stroke-linejoin="round"/>
<path d="M781.552 452.706C780.821 441.261 780.851 426.239 782.317 412.211C783.539 400.511 785.732 389.834 789.114 382.469C789.559 385.992 789.709 389.595 789.793 393.036C789.812 393.829 789.828 394.621 789.843 395.406C789.922 399.411 789.997 403.229 790.549 405.99C791.469 410.589 792.432 415.234 793.408 419.938C796.761 436.103 800.256 452.953 802.605 470.963C803.046 474.342 803.643 479.086 804.355 484.736C806.837 504.446 810.709 535.192 814.171 557.555C812.53 554.164 810.731 550.403 808.89 546.477C802.14 532.084 794.961 515.768 792.745 507.214C791.732 503.301 790.699 499.638 789.687 496.052C786.082 483.275 782.749 471.461 781.552 452.706Z" fill="#D3DAE5" stroke="#E5ECF5" stroke-width="5" stroke-linecap="round" stroke-linejoin="round"/>
<path d="M810.961 418.147C808.539 399.836 805.263 387.36 799.048 379.138C800.077 387.104 800.762 399.903 801.005 413.085C801.275 427.65 801.008 442.817 800.051 452.63C799.934 453.83 799.798 455.09 799.656 456.403C798.49 467.222 796.931 481.685 802.183 496.68C806.321 508.492 807.627 517.062 807.75 523.926C807.84 528.962 807.283 533.102 806.789 536.781C806.712 537.352 806.637 537.911 806.566 538.461C807.393 538.173 808.444 537.667 809.56 536.775C812.187 534.676 815.381 530.274 816.676 520.965C817.984 511.563 817.293 491.369 815.889 470.642C814.489 449.979 812.397 429 810.961 418.147Z" fill="#BEC9D9" stroke="#D3DAE5" stroke-width="3" stroke-linecap="round" stroke-linejoin="round"/>
<path d="M829.37 541.236C832.526 534.516 834.212 524.847 835.006 508.469C835.814 491.795 837.998 479.916 842.409 470.011C846.728 460.309 853.27 452.303 863.156 443.491C860.981 449.965 857 461.848 857 483C857 487.649 855.666 494.415 853.783 501.333C851.915 508.196 849.573 514.971 847.688 519.548C845.944 523.784 844.071 528.197 840.298 532.55C837.766 535.473 834.318 538.43 829.37 541.236ZM864.748 442.396C864.748 442.396 864.745 442.397 864.738 442.397C864.745 442.396 864.749 442.396 864.748 442.396ZM819.837 387.724C820.111 381.555 820.199 374.38 819.588 367.304C819.6 367.321 819.613 367.339 819.625 367.357C820.771 368.967 821.897 371.054 822.981 373.545C825.151 378.529 827.054 384.891 828.625 391.722C831.77 405.394 833.5 420.552 833.5 429.5C833.5 438.865 832.226 455.962 830.639 472.045C829.047 488.182 827.172 502.954 826.015 507.764C822.05 524.249 816.898 545.212 813.645 557.587C812.766 555.005 812.158 552.179 811.865 548.763C811.316 542.368 811.866 533.83 813.968 520.901C816.115 507.688 816.055 499.004 815.483 491.15C815.318 488.893 815.116 486.74 814.914 484.592C814.411 479.238 813.911 473.909 814 467.032C814.116 458.074 815.166 448.904 816.274 439.224C816.356 438.506 816.439 437.786 816.521 437.062C817.711 426.626 818.884 415.638 818.884 404C818.884 402.738 819.03 400.634 819.23 397.772L819.231 397.763C819.428 394.953 819.668 391.516 819.837 387.724Z" fill="#D3DAE5" stroke="#E5ECF5" stroke-width="5" stroke-linecap="round" stroke-linejoin="round"/>
<mask id="mask1" mask-type="alpha" maskUnits="userSpaceOnUse" x="751" y="473" width="51" height="78">
<path d="M751.434 474.203C755.439 493.366 758.768 495.722 762.425 502.762C772.582 522.314 783.655 521.985 792.959 540.978C802.264 559.971 801.466 544.66 801.466 544.66C797.488 538.142 791.271 520.638 787.817 512.919C783.501 503.27 781.977 503.27 769.789 492.859C758.217 482.975 765.413 489.569 752.917 473.532C752.368 472.827 751.251 473.329 751.434 474.203Z" fill="#D3DAE5"/>
</mask>
<g mask="url(#mask1)">
<path d="M751.434 474.203C755.439 493.366 758.768 495.722 762.425 502.762C772.582 522.314 783.655 521.985 792.959 540.978C802.264 559.971 801.466 544.66 801.466 544.66C797.488 538.142 791.271 520.638 787.817 512.919C783.501 503.27 781.977 503.27 769.789 492.859C758.217 482.975 765.413 489.569 752.917 473.532C752.368 472.827 751.251 473.329 751.434 474.203Z" fill="#E5ECF5"/>
<path d="M753.434 470.203C757.439 489.366 760.768 491.722 764.425 498.762C774.582 518.314 785.655 517.985 794.959 536.978C804.264 555.971 803.466 540.66 803.466 540.66C799.488 534.142 793.271 516.638 789.817 508.919C785.501 499.27 783.977 499.27 771.789 488.859C760.217 478.975 767.413 485.569 754.917 469.532C754.368 468.827 753.251 469.329 753.434 470.203Z" fill="#D3DAE5"/>
</g>
<path d="M769.069 538.013C769.024 535.785 770.821 534.001 773.05 534.001H852.95C855.179 534.001 856.976 535.785 856.931 538.013C856.604 554.351 854.923 615.001 848 615.001C840 615.001 786 615.001 778 615.001C771.078 615.001 769.396 554.351 769.069 538.013Z" fill="#D3DAE5"/>
<rect x="777" y="611.001" width="72" height="8" rx="4" fill="#B3BFD0"/>
<g clip-path="url(#clip0)">
<path d="M500.485 343.07C517.794 366.769 546.195 368.319 564.533 368.425C567.478 370.195 575.592 370.571 576.837 367.16C583.496 348.921 585.896 347.003 570.838 349.125C554.856 351.378 543.901 331.834 553.194 296.081C566.057 246.597 521.483 214.588 501.773 207.377C456.743 190.902 427.6 203.299 419.872 236.034C444.907 230.534 462.582 234.081 475.714 265.768C488.441 296.475 476.46 310.176 500.485 343.07Z" fill="#FFA776"/>
<mask id="mask2" mask-type="alpha" maskUnits="userSpaceOnUse" x="419" y="200" width="156" height="205">
<path d="M472.902 352.245C482.167 387.738 537.122 403.386 555.46 403.492C558.405 405.261 565.627 405.152 570.953 390.561C577.612 372.322 573.11 385.361 564.954 372.527C555.065 356.964 543.901 343.239 556.306 295.517C568.759 247.607 521.482 214.588 501.773 207.377C456.743 190.902 427.6 203.299 419.872 236.033C444.907 230.534 462.582 234.081 475.714 265.768C488.44 296.475 463.449 316.035 472.902 352.245Z" fill="#DB6B2C"/>
</mask>
<g mask="url(#mask2)">
<path d="M416.758 240.133L421.688 214.574L443.778 198.802L471.363 199.035C469.577 200.484 462.762 199.569 462.514 201.301C462.315 202.687 471.056 206.427 471.1 208.785C471.145 211.143 459.69 208.663 459.441 210.395C459.192 212.127 466.809 214.815 467.412 218.674C468.015 222.532 456.883 216.87 455.512 218.672C454.141 220.473 468.469 231.095 465.469 232.212C462.469 233.329 457.406 229.132 455.264 230.762C453.55 232.067 455.67 239.166 456.945 242.552L416.758 240.133Z" fill="#FFEEE4"/>
</g>
<path d="M456.927 242.486C455.653 239.1 453.532 232.001 455.246 230.697C457.389 229.066 462.451 233.264 465.452 232.147C468.452 231.03 454.124 220.408 455.494 218.606C456.865 216.804 467.997 222.466 467.394 218.608C466.791 214.75 459.175 212.062 459.424 210.329C459.672 208.597 471.128 211.077 471.083 208.719C471.038 206.361 462.298 202.622 462.496 201.236C462.745 199.503 469.559 200.418 471.346 198.97" stroke="#FF8D4E" stroke-width="2" stroke-linecap="round"/>
<path d="M598.34 360.836C592.5 372.389 593.262 376.325 595.547 385.467H590.977C583.927 374.892 584.514 368.433 585.368 359.045L585.39 358.804C586.279 349.028 586.914 316.906 589.707 301.671C592.11 288.565 596.767 282.787 598.022 274.963C598.168 274.052 599.53 273.819 599.847 274.685C603.284 284.045 605.034 294.97 605.704 301.671C606.466 309.289 607.14 343.428 598.34 360.836Z" fill="#FFB48A"/>
<path d="M526.532 296.244C531.984 303.02 532.738 319.342 533.589 326.809C535.667 345.051 543.829 365.972 565.076 384.895C566.092 377.531 558.499 363.476 555.046 355.757C550.729 346.108 551.11 344.584 548.317 329.349C545.737 315.277 538.392 297.307 527.282 294.643C526.458 294.445 526.001 295.583 526.532 296.244Z" fill="#FFB48A"/>
<path d="M540.318 294.688C538.91 272.635 542.162 236.168 549.475 209.818C549.742 208.855 551.078 209.097 551.034 210.096C550.146 230.237 550.435 249.105 551.586 254.857C555.649 275.171 563.298 289.101 566.345 312.462C568.783 331.151 566.345 363.629 571.17 388.514C571.17 388.514 556.157 367.311 551.586 349.663C547.015 332.015 541.871 319.018 540.318 294.688Z" fill="#FFC6A6"/>
<path d="M573.71 259.773C571.1 240.048 567.467 226.666 559.935 218.133C559.375 217.499 558.362 218.038 558.495 218.873C560.89 233.911 561.717 274.855 559.819 294.307C558.749 305.275 556.006 321.801 562.029 338.998C570.215 362.369 567.108 372.643 566.092 382.165C566.092 382.165 576.757 382.165 579.423 362.994C582.089 343.823 576.592 281.557 573.71 259.773Z" fill="#FFB48A"/>
<path d="M593.77 276.786C593.442 274.236 585.973 233.459 575.776 205.304C575.43 204.349 573.82 204.755 573.89 205.768C574.619 216.371 574.218 229.602 574.218 232.349C574.218 251.774 569.647 278.436 569.393 297.989C569.139 317.541 579.042 339.887 577.646 351.567C576.249 363.248 570.409 379.626 575.487 389.021C578.281 379.203 584.883 370.231 589.707 350.171C592.118 340.147 595.421 289.609 593.77 276.786Z" fill="#FFC6A6"/>
<path d="M609.767 355.503C607.102 364.807 605.197 373.532 586.66 386.99C592.882 380.675 592.565 375.04 593.77 350.171C595.506 314.336 603.586 299.313 627.542 279.325C629.143 278.182 618.42 291.781 616.623 325.032C615.897 338.477 614.97 337.343 609.767 355.503Z" fill="#FFC6A6"/>
<path d="M512.695 316.026C516.7 335.188 520.029 337.545 523.686 344.584C533.843 364.137 544.917 363.807 554.221 382.8C563.525 401.794 562.727 386.482 562.727 386.482C558.749 379.965 552.532 362.461 549.079 354.741C544.762 345.092 543.238 345.092 531.05 334.681C519.479 324.797 526.674 331.392 514.179 315.355C513.629 314.65 512.513 315.151 512.695 316.026Z" fill="#FFC6A6"/>
<path d="M503.335 405.513C497.495 417.067 498.257 421.003 500.542 430.144H495.971C488.921 419.569 489.509 413.111 490.363 403.723L490.385 403.482C491.274 393.706 491.909 361.584 494.702 346.348C497.105 333.243 501.762 327.465 503.017 319.641C503.163 318.73 504.524 318.497 504.842 319.363C508.278 328.722 510.029 339.647 510.699 346.348C511.461 353.966 512.135 388.105 503.335 405.513Z" fill="#FFB48A"/>
<path d="M431.527 340.922C436.979 347.697 437.733 364.019 438.584 371.487C440.662 389.729 448.823 410.65 470.071 429.573C471.086 422.209 463.494 408.154 460.041 400.435C455.724 390.785 456.105 389.262 453.312 374.026C450.732 359.955 443.387 341.985 432.277 339.32C431.452 339.123 430.995 340.261 431.527 340.922Z" fill="#FFB48A"/>
<path d="M445.312 339.365C443.905 317.312 447.157 280.845 454.469 254.496C454.737 253.533 456.073 253.775 456.028 254.773C455.141 274.915 455.43 293.783 456.58 299.534C460.643 319.849 468.293 333.779 471.34 357.14C473.777 375.829 471.34 408.306 476.165 433.191C476.165 433.191 461.151 411.988 456.58 394.34C452.01 376.692 446.865 363.696 445.312 339.365Z" fill="#FFC6A6"/>
<path d="M478.704 304.45C476.095 284.726 472.462 271.344 464.93 262.811C464.37 262.177 463.357 262.716 463.49 263.551C465.884 278.589 466.712 319.532 464.814 338.984C463.744 349.953 461 366.479 467.024 383.676C475.21 407.046 472.102 417.321 471.086 426.843C471.086 426.843 481.751 426.843 484.418 407.672C487.084 388.5 481.586 326.235 478.704 304.45Z" fill="#FFB48A"/>
<path d="M498.765 321.463C498.436 318.913 490.967 278.136 480.771 249.982C480.425 249.027 478.815 249.433 478.884 250.446C479.614 261.049 479.212 274.28 479.212 277.026C479.212 296.452 474.642 323.114 474.388 342.666C474.134 362.219 484.037 384.564 482.64 396.245C481.244 407.926 475.403 424.304 480.482 433.699C483.275 423.881 489.877 414.908 494.702 394.848C497.113 384.825 500.415 334.287 498.765 321.463Z" fill="#FFC6A6"/>
<path d="M514.762 400.181C512.096 409.485 510.191 418.21 491.655 431.668C497.877 425.353 497.56 419.718 498.765 394.848C500.501 359.013 508.58 343.99 532.537 324.003C534.138 322.859 523.415 336.459 521.618 369.71C520.892 383.154 519.965 382.021 514.762 400.181Z" fill="#FFC6A6"/>
<path d="M417.69 360.703C421.694 379.866 425.024 382.222 428.681 389.262C438.838 408.814 449.911 408.485 459.215 427.478C468.519 446.471 467.722 431.16 467.722 431.16C463.744 424.642 457.527 407.138 454.073 399.419C449.757 389.77 448.233 389.77 436.045 379.359C424.473 369.475 431.669 376.069 419.173 360.032C418.624 359.327 417.507 359.829 417.69 360.703Z" fill="#FFC6A6"/>
<path d="M423.335 365.513C417.495 377.067 418.257 381.003 420.542 390.144H415.971C408.921 379.569 409.509 373.111 410.363 363.723L410.385 363.482C411.274 353.706 411.909 321.584 414.702 306.348C417.105 293.243 421.762 287.465 423.017 279.641C423.163 278.73 424.524 278.497 424.842 279.363C428.278 288.722 430.029 299.647 430.699 306.348C431.461 313.966 432.135 348.105 423.335 365.513Z" fill="#FFB48A"/>
<path d="M351.527 300.922C356.979 307.697 357.733 324.019 358.584 331.487C360.662 349.729 368.823 370.65 390.071 389.573C391.086 382.209 383.494 368.154 380.041 360.435C375.724 350.785 376.105 349.262 373.312 334.026C370.732 319.955 363.387 301.985 352.277 299.32C351.452 299.123 350.995 300.261 351.527 300.922Z" fill="#FFB48A"/>
<path d="M365.312 299.365C363.905 277.312 367.157 240.845 374.469 214.496C374.737 213.533 376.073 213.775 376.028 214.773C375.141 234.915 375.43 253.783 376.58 259.534C380.643 279.849 388.293 293.779 391.34 317.14C393.777 335.829 391.34 368.306 396.165 393.191C396.165 393.191 381.151 371.988 376.58 354.34C372.01 336.692 366.865 323.696 365.312 299.365Z" fill="#FFC6A6"/>
<path d="M398.704 264.45C396.095 244.726 392.462 231.344 384.93 222.811C384.37 222.177 383.357 222.716 383.49 223.551C385.884 238.589 386.712 279.532 384.814 298.984C383.744 309.953 381 326.479 387.024 343.676C395.21 367.046 392.102 377.321 391.086 386.843C391.086 386.843 401.751 386.843 404.418 367.672C407.084 348.5 401.586 286.235 398.704 264.45Z" fill="#FFB48A"/>
<path d="M418.765 281.463C418.436 278.913 410.967 238.136 400.771 209.982C400.425 209.027 398.815 209.433 398.884 210.446C399.614 221.049 399.212 234.28 399.212 237.026C399.212 256.452 394.642 283.114 394.388 302.666C394.134 322.219 404.037 344.564 402.64 356.245C401.244 367.926 395.403 384.304 400.482 393.699C403.275 383.881 409.877 374.908 414.702 354.848C417.113 344.825 420.415 294.287 418.765 281.463Z" fill="#FFC6A6"/>
<path d="M434.762 360.181C432.096 369.485 430.191 378.21 411.655 391.668C417.877 385.353 417.56 379.718 418.765 354.848C420.501 319.013 428.58 303.99 452.537 284.003C454.138 282.859 443.415 296.459 441.618 329.71C440.892 343.154 439.965 342.021 434.762 360.181Z" fill="#FFC6A6"/>
<path d="M337.69 320.703C341.694 339.866 345.024 342.222 348.681 349.262C358.838 368.814 369.911 368.485 379.215 387.478C388.519 406.471 387.722 391.16 387.722 391.16C383.744 384.642 377.527 367.138 374.073 359.419C369.757 349.77 368.233 349.77 356.045 339.359C344.473 329.475 351.669 336.069 339.173 320.032C338.624 319.327 337.507 319.829 337.69 320.703Z" fill="#FFC6A6"/>
</g>
<defs>
<clipPath id="clip0">
<rect x="358" y="73" width="236" height="291" rx="8" fill="white"/>
</clipPath>
</defs>
</svg>
