<svg width="28" height="34" viewBox="0 0 28 34" fill="none" xmlns="http://www.w3.org/2000/svg">
<mask id="path-1-outside-1" maskUnits="userSpaceOnUse" x="0" y="0" width="28" height="34" fill="black">
<rect fill="white" width="28" height="34"/>
<path fill-rule="evenodd" clip-rule="evenodd" d="M17.8085 25.383C22.569 23.791 26 19.2962 26 14C26 7.37258 20.6274 2 14 2C7.37258 2 2 7.37258 2 14C2 19.2962 5.43098 23.791 10.1915 25.383L13.1056 31.2111C13.4741 31.9482 14.5259 31.9482 14.8944 31.2111L17.8085 25.383Z"/>
</mask>
<path fill-rule="evenodd" clip-rule="evenodd" d="M17.8085 25.383C22.569 23.791 26 19.2962 26 14C26 7.37258 20.6274 2 14 2C7.37258 2 2 7.37258 2 14C2 19.2962 5.43098 23.791 10.1915 25.383L13.1056 31.2111C13.4741 31.9482 14.5259 31.9482 14.8944 31.2111L17.8085 25.383Z" fill="#FF5D5D"/>
<path d="M17.8085 25.383L17.1742 23.4863L16.3896 23.7487L16.0196 24.4886L17.8085 25.383ZM10.1915 25.383L11.9804 24.4886L11.6104 23.7487L10.8258 23.4863L10.1915 25.383ZM24 14C24 18.4104 21.1436 22.1588 17.1742 23.4863L18.4428 27.2798C23.9945 25.4232 28 20.1819 28 14H24ZM14 4C19.5228 4 24 8.47715 24 14H28C28 6.26801 21.732 0 14 0V4ZM4 14C4 8.47715 8.47715 4 14 4V0C6.26801 0 0 6.26801 0 14H4ZM10.8258 23.4863C6.85645 22.1588 4 18.4104 4 14H0C0 20.1819 4.00551 25.4232 9.5572 27.2798L10.8258 23.4863ZM14.8944 30.3167L11.9804 24.4886L8.40267 26.2775L11.3167 32.1056L14.8944 30.3167ZM13.1056 30.3167C13.4741 29.5797 14.5259 29.5797 14.8944 30.3167L11.3167 32.1056C12.4223 34.3167 15.5777 34.3167 16.6833 32.1056L13.1056 30.3167ZM16.0196 24.4886L13.1056 30.3167L16.6833 32.1056L19.5973 26.2775L16.0196 24.4886Z" fill="white" mask="url(#path-1-outside-1)"/>
<path d="M8 15L10.7929 17.7929C11.1834 18.1834 11.8166 18.1834 12.2071 17.7929L20 10" stroke="white" stroke-width="3" stroke-linecap="round"/>
</svg>
