<svg width="56" height="63" viewBox="0 0 56 63" fill="none" xmlns="http://www.w3.org/2000/svg">
<path d="M53.5 9.49683V36V47.3164C53.5 48.0464 53.1024 48.7183 52.4625 49.0696L28.9625 61.9715C28.363 62.3007 27.637 62.3007 27.0375 61.9715L3.53748 49.0696C2.89765 48.7183 2.5 48.0464 2.5 47.3164V36V9.49683C2.5 7.95 4.18077 6.98869 5.51404 7.77297L28 21L50.486 7.77297C51.8192 6.98869 53.5 7.95 53.5 9.49683Z" fill="#FFB48A"/>
<path d="M0.749765 6.74998C-1.00023 17.5 2.49977 35.5 2.49977 36.5C2.49976 38.25 3.24977 24.1935 11.4998 21C19.2498 18 26.2498 26.75 27.9998 26.75C29.7498 26.75 36.7498 18 44.4998 21C52.7498 24.1935 53.4998 38.25 53.4998 36.5C53.4998 35.5 56.9998 17.5 55.2498 6.74998C54.8882 4.52921 54.7498 -0.562521 50.4998 0.49997C43.7498 2.18746 33.9998 9.99998 27.9998 17C21.9998 9.99998 12.2498 2.18746 5.49976 0.49997C1.24976 -0.562521 1.11129 4.52921 0.749765 6.74998Z" fill="#59311A"/>
<path d="M54.5 50C54.5 53.75 39.1458 61.5 28 62.25C16.8542 61.5 1.5 53.75 1.5 50V48C1.5 45.0523 9.30204 46.183 15.2391 49.0027C17.0658 49.8702 19.408 49.6463 21.2382 48.7861C23.4849 47.7301 26.2883 47 28 47C29.7117 47 32.5151 47.7301 34.7618 48.7861C36.592 49.6463 38.9342 49.8702 40.7609 49.0027C46.698 46.183 54.5 45.0523 54.5 48V50Z" fill="#FFF1E9"/>
<ellipse rx="2.65" ry="1.75" transform="matrix(-1 0 0 1 27.9999 49.75)" fill="#59311A"/>
<path d="M18.5 42.4999C18.5 43.6045 17.9404 44.4999 17.25 44.4999C16.5596 44.4999 16 43.6045 16 42.4999C16 41.3954 16.5596 40.4999 17.25 40.4999C17.9404 40.4999 18.5 41.3954 18.5 42.4999Z" fill="#59311A"/>
<path d="M40.0005 42.4999C40.0005 43.6045 39.4408 44.4999 38.7505 44.4999C38.0601 44.4999 37.5005 43.6045 37.5005 42.4999C37.5005 41.3954 38.0601 40.4999 38.7505 40.4999C39.4408 40.4999 40.0005 41.3954 40.0005 42.4999Z" fill="#59311A"/>
<path d="M17.372 36.8351C16.6123 37.224 15.9608 37.7301 15.2863 38.4444C14.9281 38.8238 14.4352 38.5664 14.6942 38.1135C14.9655 37.639 15.3351 37.1593 15.8333 36.7865C16.2721 36.4583 16.768 36.2609 17.25 36.146C17.7709 36.0218 17.8487 36.591 17.372 36.8351Z" fill="#59311A"/>
<path d="M38.628 36.8351C39.3877 37.224 40.0392 37.7301 40.7137 38.4444C41.0719 38.8238 41.5648 38.5664 41.3058 38.1135C41.0345 37.639 40.6649 37.1593 40.1667 36.7865C39.7279 36.4583 39.232 36.2609 38.75 36.146C38.2291 36.0218 38.1513 36.591 38.628 36.8351Z" fill="#59311A"/>
</svg>
