<?xml version="1.0" encoding="UTF-8" standalone="no"?>
<svg width="520px" height="480px" viewBox="0 0 520 480" version="1.1" xmlns="http://www.w3.org/2000/svg" xmlns:xlink="http://www.w3.org/1999/xlink" xmlns:sketch="http://www.bohemiancoding.com/sketch/ns">
    <!-- Generator: Sketch 3.5.2 (25235) - http://www.bohemiancoding.com/sketch -->
    <title>proj_travel_con</title>
    <desc>Created with Sketch.</desc>
    <defs>
        <rect id="path-1" x="0" y="0" width="520" height="480"></rect>
        <rect id="path-3" x="29" y="50" width="262" height="240"></rect>
        <path id="path-5" d="M19.5933303,179.402344 L116.720703,179.402344 L244.527344,179.402344 C244.527344,179.402344 254,155.558849 254,138 C254,61.7847045 194.901587,0 122,0 C80.6816554,0 43.7972612,19.846907 19.5933303,50.9193666 C6.86688906,67.2572842 19.5933303,179.402344 19.5933303,179.402344 Z"></path>
        <path id="path-7" d="M2.99524609,26.9614326 C0.0367830382,29.693645 0.000152520948,40.5978108 0.000152520948,40.6719018 C0.000152520948,40.6719018 13.4471344,35.8698548 20.1706254,33.4688314 C28.5682049,30.4699747 45.3633641,24.4722614 45.3633641,24.4722614 L45.3633641,16.9124293 L35.2307552,-1.13686838e-13 C35.2307552,-1.13686838e-13 8.98046477,21.4339382 2.99524609,26.9614326 Z"></path>
        <path id="path-9" d="M2.99524609,26.9614326 C0.0367830382,29.693645 0.000152520948,40.5978108 0.000152520948,40.6719018 C0.000152520948,40.6719018 13.4471344,35.8698548 20.1706254,33.4688314 C28.5682049,30.4699747 45.3633641,24.4722614 45.3633641,24.4722614 L45.3633641,16.9124293 L35.2307552,-8.52651283e-14 C35.2307552,-8.52651283e-14 8.98046477,21.4339382 2.99524609,26.9614326 Z"></path>
        <path d="M3.65856116,0.00166628507 C3.65856116,0.00166628507 2.43221492,-0.0794985748 1.20266874,0.891113008 C-0.0268774297,1.86172459 0.0763420598,5.93328678 0.0763420598,5.93328678 L-6.39488462e-14,32.5956133 C-6.39488462e-14,32.5956133 3.11690727,48.4813618 5.92431671,51.7823815 C7.87227014,51.7994763 9.7197842,51.8388491 9.7197842,51.8388491 L9.7197842,0.00166628506 L3.65856116,0.00166628507 L3.65856116,0.00166628507 Z M15.7810072,0.00166628507 C15.7810072,0.00166628507 17.0073535,-0.0794985748 18.2368997,0.891113008 C19.4664458,1.86172459 19.3632263,5.93328678 19.3632263,5.93328678 L19.4395684,32.5956133 C19.4395684,32.5956133 16.3226611,48.4813618 13.5152517,51.7823815 C11.5672983,51.7994763 9.7197842,51.8388491 9.7197842,51.8388491 L9.7197842,0.00166628506 L15.7810072,0.00166628507 L15.7810072,0.00166628507 Z" id="path-11"></path>
        <path d="M-28.7407195,12.9613786 C-28.7407195,12.9613786 -29.9670657,12.8802137 -31.1966119,13.8508253 C-32.4261581,14.8214369 -32.3229386,18.892999 -32.3229386,18.892999 L-32.3992807,45.5553255 C-32.3992807,45.5553255 -29.2823734,61.4410741 -26.474964,64.7420938 C-24.5270105,64.7591886 -22.6794965,64.7985613 -22.6794965,64.7985613 L-22.6794965,12.9613786 L-28.7407195,12.9613786 L-28.7407195,12.9613786 Z M-16.6182734,12.9613786 C-16.6182734,12.9613786 -15.3919272,12.8802137 -14.162381,13.8508253 C-12.9328348,14.8214369 -13.0360543,18.892999 -13.0360543,18.892999 L-12.9597123,45.5553255 C-12.9597123,45.5553255 -16.0766195,61.4410741 -18.884029,64.7420938 C-20.8319824,64.7591886 -22.6794965,64.7985613 -22.6794965,64.7985613 L-22.6794965,12.9613786 L-16.6182734,12.9613786 L-16.6182734,12.9613786 Z" id="path-13"></path>
        <path id="path-15" d="M11.7607256,61.6978369 C8.00235695,63.6112962 0,83.1581537 0,83.1581537 L80.3996981,59.4505504 C82.5196053,58.8254496 86.0292131,58.3187052 88.2314722,58.3187052 L113.397479,58.3187052 L113.397482,0 C113.397482,0 15.5190942,59.7843776 11.7607256,61.6978369 Z"></path>
        <path d="M3.65856116,0.00166628507 C3.65856116,0.00166628507 2.43221492,-0.0794985748 1.20266874,0.891113008 C-0.0268774297,1.86172459 0.0763420598,5.93328678 0.0763420598,5.93328678 L0,32.5956133 C0,32.5956133 3.11690727,48.4813618 5.92431671,51.7823815 C7.87227014,51.7994763 9.7197842,51.8388491 9.7197842,51.8388491 L9.7197842,0.00166628506 L3.65856116,0.00166628507 L3.65856116,0.00166628507 Z M15.7810072,0.00166628507 C15.7810072,0.00166628507 17.0073535,-0.0794985748 18.2368997,0.891113008 C19.4664458,1.86172459 19.3632263,5.93328678 19.3632263,5.93328678 L19.4395684,32.5956133 C19.4395684,32.5956133 16.3226611,48.4813618 13.5152517,51.7823815 C11.5672983,51.7994763 9.7197842,51.8388491 9.7197842,51.8388491 L9.7197842,0.00166628506 L15.7810072,0.00166628507 L15.7810072,0.00166628507 Z" id="path-17"></path>
        <path d="M-28.7407195,12.9613786 C-28.7407195,12.9613786 -29.9670657,12.8802137 -31.1966119,13.8508253 C-32.4261581,14.8214369 -32.3229386,18.892999 -32.3229386,18.892999 L-32.3992807,45.5553255 C-32.3992807,45.5553255 -29.2823734,61.4410741 -26.474964,64.7420938 C-24.5270105,64.7591886 -22.6794965,64.7985613 -22.6794965,64.7985613 L-22.6794965,12.9613786 L-28.7407195,12.9613786 L-28.7407195,12.9613786 Z M-16.6182734,12.9613786 C-16.6182734,12.9613786 -15.3919272,12.8802137 -14.162381,13.8508253 C-12.9328348,14.8214369 -13.0360543,18.892999 -13.0360543,18.892999 L-12.9597123,45.5553255 C-12.9597123,45.5553255 -16.0766195,61.4410741 -18.884029,64.7420938 C-20.8319824,64.7591886 -22.6794965,64.7985613 -22.6794965,64.7985613 L-22.6794965,12.9613786 L-16.6182734,12.9613786 L-16.6182734,12.9613786 Z" id="path-19"></path>
        <path id="path-21" d="M11.7607256,61.6978369 C8.00235695,63.6112962 1.70530257e-13,83.1581537 1.70530257e-13,83.1581537 L80.3996981,59.4505504 C82.5196053,58.8254496 86.0292131,58.3187052 88.2314722,58.3187052 L113.397479,58.3187052 L113.397482,1.84741111e-13 C113.397482,1.84741111e-13 15.5190942,59.7843776 11.7607256,61.6978369 Z"></path>
        <path d="M16.1996403,0.00241703429 C18.0732971,0.117649226 24.5736263,4.34480024 28.5699376,10.8904613 C31.4305669,15.5759597 32.323487,22.2683203 32.323487,25.8962219 C32.323487,34.6631171 31.2055431,158.453787 31.2055431,167.965802 C31.2055431,177.477817 29.3079355,184.525392 26.8149765,191.34665 C24.530241,197.598165 17.0345772,207.15147 16.1996403,208.205067 L16.1996403,208.300375 C16.1996403,208.300375 16.1867173,208.284234 16.1617435,208.252818 C16.1367697,208.284234 16.1238467,208.300375 16.1238467,208.300375 L16.1238467,208.205067 C15.2889098,207.15147 7.79324609,197.598165 5.50851051,191.34665 C3.01555158,184.525392 1.11794393,177.477817 1.11794393,167.965802 C1.11794393,158.453787 -7.07169871e-14,34.6631171 -7.10542736e-14,25.8962219 C-7.1161155e-14,22.2683203 0.892920127,15.5759597 3.75354948,10.8904613 C7.74986079,4.34480024 14.2501899,0.117649226 16.1238467,0.00241703429 C16.1362409,-1.98951966e-13 16.148874,0.000209180136 16.1617435,0.000626895592 C16.1746131,0.000209180136 16.1872462,-1.70530257e-13 16.1996403,-1.70530257e-13 Z" id="path-23"></path>
        <circle id="path-25" cx="260" cy="1128" r="750"></circle>
        <filter x="-50%" y="-50%" width="200%" height="200%" filterUnits="objectBoundingBox" id="filter-27">
            <feOffset dx="0" dy="1" in="SourceAlpha" result="shadowOffsetOuter1"></feOffset>
            <feGaussianBlur stdDeviation="7.5" in="shadowOffsetOuter1" result="shadowBlurOuter1"></feGaussianBlur>
            <feColorMatrix values="0 0 0 0 0.229723069   0 0 0 0 0.67272534   0 0 0 0 0.339377096  0 0 0 0.7 0" in="shadowBlurOuter1" type="matrix" result="shadowMatrixOuter1"></feColorMatrix>
            <feMerge>
                <feMergeNode in="shadowMatrixOuter1"></feMergeNode>
                <feMergeNode in="SourceGraphic"></feMergeNode>
            </feMerge>
        </filter>
        <radialGradient cx="48.0752021%" cy="82.1536541%" fx="48.0752021%" fy="82.1536541%" r="76.9111411%" id="radialGradient-28">
            <stop stop-color="#FFFFFF" offset="0%"></stop>
            <stop stop-color="#0060C0" offset="100%"></stop>
        </radialGradient>
        <rect id="path-29" x="29" y="50" width="262" height="240"></rect>
        <path id="path-31" d="M19.5933303,179.402344 L116.720703,179.402344 L244.527344,179.402344 C244.527344,179.402344 254,155.558849 254,138 C254,61.7847045 194.901587,0 122,0 C80.6816554,0 43.7972612,19.846907 19.5933303,50.9193666 C6.86688906,67.2572842 19.5933303,179.402344 19.5933303,179.402344 Z"></path>
        <path id="path-33" d="M2.99524609,26.9614326 C0.0367830382,29.693645 0.000152520948,40.5978108 0.000152520948,40.6719018 C0.000152520948,40.6719018 13.4471344,35.8698548 20.1706254,33.4688314 C28.5682049,30.4699747 45.3633641,24.4722614 45.3633641,24.4722614 L45.3633641,16.9124293 L35.2307552,0 C35.2307552,0 8.98046477,21.4339382 2.99524609,26.9614326 Z"></path>
        <path id="path-35" d="M2.99524609,26.9614326 C0.0367830382,29.693645 0.000152520948,40.5978108 0.000152520948,40.6719018 C0.000152520948,40.6719018 13.4471344,35.8698548 20.1706254,33.4688314 C28.5682049,30.4699747 45.3633641,24.4722614 45.3633641,24.4722614 L45.3633641,16.9124293 L35.2307552,0 C35.2307552,0 8.98046477,21.4339382 2.99524609,26.9614326 Z"></path>
        <path d="M3.65856116,0.00166628507 C3.65856116,0.00166628507 2.43221492,-0.0794985748 1.20266874,0.891113008 C-0.0268774297,1.86172459 0.0763420598,5.93328678 0.0763420598,5.93328678 L0,32.5956133 C0,32.5956133 3.11690727,48.4813618 5.92431671,51.7823815 C7.87227014,51.7994763 9.7197842,51.8388491 9.7197842,51.8388491 L9.7197842,0.00166628506 L3.65856116,0.00166628507 L3.65856116,0.00166628507 Z M15.7810072,0.00166628507 C15.7810072,0.00166628507 17.0073535,-0.0794985748 18.2368997,0.891113008 C19.4664458,1.86172459 19.3632263,5.93328678 19.3632263,5.93328678 L19.4395684,32.5956133 C19.4395684,32.5956133 16.3226611,48.4813618 13.5152517,51.7823815 C11.5672983,51.7994763 9.7197842,51.8388491 9.7197842,51.8388491 L9.7197842,0.00166628506 L15.7810072,0.00166628507 L15.7810072,0.00166628507 Z" id="path-37"></path>
        <path d="M-28.7407195,12.9613786 C-28.7407195,12.9613786 -29.9670657,12.8802137 -31.1966119,13.8508253 C-32.4261581,14.8214369 -32.3229386,18.892999 -32.3229386,18.892999 L-32.3992807,45.5553255 C-32.3992807,45.5553255 -29.2823734,61.4410741 -26.474964,64.7420938 C-24.5270105,64.7591886 -22.6794965,64.7985613 -22.6794965,64.7985613 L-22.6794965,12.9613786 L-28.7407195,12.9613786 L-28.7407195,12.9613786 Z M-16.6182734,12.9613786 C-16.6182734,12.9613786 -15.3919272,12.8802137 -14.162381,13.8508253 C-12.9328348,14.8214369 -13.0360543,18.892999 -13.0360543,18.892999 L-12.9597123,45.5553255 C-12.9597123,45.5553255 -16.0766195,61.4410741 -18.884029,64.7420938 C-20.8319824,64.7591886 -22.6794965,64.7985613 -22.6794965,64.7985613 L-22.6794965,12.9613786 L-16.6182734,12.9613786 L-16.6182734,12.9613786 Z" id="path-39"></path>
        <path id="path-41" d="M11.7607256,61.6978369 C8.00235695,63.6112962 0,83.1581537 0,83.1581537 L80.3996981,59.4505504 C82.5196053,58.8254496 86.0292131,58.3187052 88.2314722,58.3187052 L113.397479,58.3187052 L113.397482,0 C113.397482,0 15.5190942,59.7843776 11.7607256,61.6978369 Z"></path>
        <path d="M3.65856116,0.00166628507 C3.65856116,0.00166628507 2.43221492,-0.0794985748 1.20266874,0.891113008 C-0.0268774297,1.86172459 0.0763420598,5.93328678 0.0763420598,5.93328678 L0,32.5956133 C0,32.5956133 3.11690727,48.4813618 5.92431671,51.7823815 C7.87227014,51.7994763 9.7197842,51.8388491 9.7197842,51.8388491 L9.7197842,0.00166628506 L3.65856116,0.00166628507 L3.65856116,0.00166628507 Z M15.7810072,0.00166628507 C15.7810072,0.00166628507 17.0073535,-0.0794985748 18.2368997,0.891113008 C19.4664458,1.86172459 19.3632263,5.93328678 19.3632263,5.93328678 L19.4395684,32.5956133 C19.4395684,32.5956133 16.3226611,48.4813618 13.5152517,51.7823815 C11.5672983,51.7994763 9.7197842,51.8388491 9.7197842,51.8388491 L9.7197842,0.00166628506 L15.7810072,0.00166628507 L15.7810072,0.00166628507 Z" id="path-43"></path>
        <path d="M-28.7407195,12.9613786 C-28.7407195,12.9613786 -29.9670657,12.8802137 -31.1966119,13.8508253 C-32.4261581,14.8214369 -32.3229386,18.892999 -32.3229386,18.892999 L-32.3992807,45.5553255 C-32.3992807,45.5553255 -29.2823734,61.4410741 -26.474964,64.7420938 C-24.5270105,64.7591886 -22.6794965,64.7985613 -22.6794965,64.7985613 L-22.6794965,12.9613786 L-28.7407195,12.9613786 L-28.7407195,12.9613786 Z M-16.6182734,12.9613786 C-16.6182734,12.9613786 -15.3919272,12.8802137 -14.162381,13.8508253 C-12.9328348,14.8214369 -13.0360543,18.892999 -13.0360543,18.892999 L-12.9597123,45.5553255 C-12.9597123,45.5553255 -16.0766195,61.4410741 -18.884029,64.7420938 C-20.8319824,64.7591886 -22.6794965,64.7985613 -22.6794965,64.7985613 L-22.6794965,12.9613786 L-16.6182734,12.9613786 L-16.6182734,12.9613786 Z" id="path-45"></path>
        <path id="path-47" d="M11.7607256,61.6978369 C8.00235695,63.6112962 1.13686838e-13,83.1581537 1.13686838e-13,83.1581537 L80.3996981,59.4505504 C82.5196053,58.8254496 86.0292131,58.3187052 88.2314722,58.3187052 L113.397479,58.3187052 L113.397482,1.42108547e-13 C113.397482,1.42108547e-13 15.5190942,59.7843776 11.7607256,61.6978369 Z"></path>
        <path d="M16.1996403,0.00241703429 C18.0732971,0.117649226 24.5736263,4.34480024 28.5699376,10.8904613 C31.4305669,15.5759597 32.323487,22.2683203 32.323487,25.8962219 C32.323487,34.6631171 31.2055431,158.453787 31.2055431,167.965802 C31.2055431,177.477817 29.3079355,184.525392 26.8149765,191.34665 C24.530241,197.598165 17.0345772,207.15147 16.1996403,208.205067 L16.1996403,208.300375 C16.1996403,208.300375 16.1867173,208.284234 16.1617435,208.252818 C16.1367697,208.284234 16.1238467,208.300375 16.1238467,208.300375 L16.1238467,208.205067 C15.2889098,207.15147 7.79324609,197.598165 5.50851051,191.34665 C3.01555158,184.525392 1.11794393,177.477817 1.11794393,167.965802 C1.11794393,158.453787 3.37286484e-16,34.6631171 0,25.8962219 C-1.06881471e-16,22.2683203 0.892920127,15.5759597 3.75354948,10.8904613 C7.74986079,4.34480024 14.2501899,0.117649226 16.1238467,0.00241703429 C16.1362409,0 16.148874,0.000209180136 16.1617435,0.000626895592 C16.1746131,0.000209180136 16.1872462,0 16.1996403,0 Z" id="path-49"></path>
        <rect id="path-51" x="0" y="0" width="520" height="35"></rect>
    </defs>
    <g id="Page-1" stroke="none" stroke-width="1" fill="none" fill-rule="evenodd" sketch:type="MSPage">
        <g id="proj_travel_con" sketch:type="MSArtboardGroup">
            <rect id="Rectangle-73" fill="#F1F8E9" sketch:type="MSShapeGroup" x="1" y="1" width="520" height="480"></rect>
            <mask id="mask-2" sketch:name="Mask" fill="white">
                <use xlink:href="#path-1"></use>
            </mask>
            <use id="Mask" fill="#E3F2FD" sketch:type="MSShapeGroup" xlink:href="#path-1"></use>
            <g id="Outlines" sketch:type="MSLayerGroup" mask="url(#mask-2)">
                <g transform="translate(101.000000, 80.000000)">
                    <path d="M320,51.7205616 C320,48.1111155 316.85802,45.1866523 312.983652,45.1866523 L312.983652,36.0692949 C313.221441,36.0692949 313.460814,36.0574848 313.698603,36.0368172 C317.236897,35.6987546 320,32.9174882 320,29.5353856 C320,26.1488542 317.236897,23.369064 313.698603,23.0339539 C313.460814,23.0103338 313.221441,23 312.983652,23 C312.739522,23 312.500149,23.0103338 312.265531,23.0339539 C308.725651,23.369064 305.964134,26.1488542 305.964134,29.5353856 L296.173586,29.5353856 C296.173586,25.9244632 293.034777,23 289.155652,23 C285.281284,23 282.137719,25.9244632 282.137719,29.5353856 L272.350342,29.5353856 C272.350342,25.9244632 269.208362,23 265.333994,23 C261.459625,23 258.314475,25.9244632 258.314475,29.5353856 L248.527098,29.5353856 C248.527098,25.9244632 245.385118,23 241.509165,23 C237.634796,23 234.492817,25.9244632 234.492817,29.5353856 L224.705439,29.5353856 C224.705439,25.9244632 221.561875,23 217.685921,23 C213.813138,23 210.669573,25.9244632 210.669573,29.5353856 L200.875855,29.5353856 C200.875855,25.9244632 197.733875,23 193.862677,23 C189.983553,23 186.846329,25.9244632 186.846329,29.5353856 L177.055781,29.5353856 C177.055781,25.9244632 173.912216,23 170.036263,23 C166.161894,23 163.019915,25.9244632 163.019915,29.5353856 L153.230952,29.5353856 C153.230952,25.9244632 150.087387,23 146.214604,23 C142.338651,23 139.196671,25.9244632 139.196671,29.5353856 L129.407708,29.5353856 C129.407708,25.9244632 126.265729,23 122.389775,23 C118.512236,23 115.371842,25.9244632 115.371842,29.5353856 L105.582879,29.5353856 C105.582879,25.9244632 102.442485,23 98.564946,23 C94.6889924,23 91.5470128,25.9244632 91.5470128,29.5353856 L81.7596354,29.5353856 C81.7596354,25.9244632 78.6144853,23 74.7432874,23 C70.8673338,23 67.7221837,25.9244632 67.7221837,29.5353856 L57.9363916,29.5353856 C57.9363916,25.9244632 54.7928267,23 50.9184583,23 C47.0409194,23 43.9005251,25.9244632 43.9005251,29.5353856 L34.1099772,29.5353856 C34.1099772,25.9244632 30.9695829,23 27.0904587,23 C23.2176756,23 20.0725255,25.9244632 20.0725255,29.5353856 L14.0326959,29.5353856 C14.0326959,25.9244632 10.8923016,23 7.01634796,23 C3.13722382,23 0,25.9244632 0,29.5353856 C0,33.1448316 3.13722382,36.0692949 7.01634796,36.0692949 L7.01634796,45.1866523 C3.14197959,45.1866523 0,48.1111155 0,51.7205616 C0,55.3300076 3.14197959,58.2559471 7.01634796,58.2559471 L7.01634796,67.3718283 C3.14197959,67.3718283 0,70.299244 0,73.9072138 C0,77.5166599 3.14197959,80.4411231 7.01634796,80.4411231 L7.01634796,89.5584805 C3.14197959,89.5584805 0,92.4858963 0,96.0923899 C0,99.7018359 3.14197959,102.629252 7.01634796,102.629252 L7.01634796,111.745133 C3.14197959,111.745133 0,114.671072 0,118.279042 C0,121.887012 3.14197959,124.812951 7.01634796,124.812951 L7.01634796,133.930309 C3.14197959,133.930309 0,136.857725 0,140.465694 C0,144.073664 3.14197959,147.00108 7.01634796,147.00108 L7.01634796,156.115485 C3.14197959,156.115485 0,159.042901 0,162.649394 C0,166.25884 3.14197959,169.18478 7.01634796,169.18478 L7.01634796,178.302137 C3.14197959,178.302137 0,181.228077 0,184.837523 C0,188.444016 3.14197959,191.372908 7.01634796,191.372908 L7.01634796,200.487313 C3.14197959,200.487313 0,203.413253 0,207.022699 C0,210.632145 3.14197959,213.558084 7.01634796,213.558084 L7.01634796,222.673965 C3.14197959,222.673965 0,225.599905 0,229.215256 C0,232.829131 3.14197959,235.753594 7.01634796,235.753594 L7.01634796,244.853236 C3.14197959,244.853236 0,247.780652 0,251.387146 C0,254.996592 3.14197959,257.922531 7.01634796,257.922531 L7.01634796,267.038412 C3.14197959,267.038412 0,269.964352 0,273.575274 C0,277.190625 3.14197959,280.118041 7.01634796,280.118041 L7.01634796,289.235398 C3.14197959,289.235398 0,292.159862 0,295.770784 C0,299.38023 3.14197959,302.304693 7.01634796,302.304693 L7.01634796,307.930705 C3.38293867,307.930705 0.39472902,310.502343 0.0348756564,313.79587 C0.00951154265,314.017309 0,314.2417 0,314.464614 C0,314.689005 0.00951154265,314.913396 0.0348756564,315.134835 C0.39472902,318.423933 3.38293867,321 7.01634796,321 C10.648172,321 13.6379669,318.423933 13.9978203,315.134835 C14.0200139,314.913396 14.0326959,314.689005 14.0326959,314.464614 L20.0725255,314.464614 C20.0725255,318.072584 23.2176756,321 27.0904587,321 C30.9695829,321 34.1099772,318.072584 34.1099772,314.464614 L43.9005251,314.464614 C43.9005251,318.072584 47.0409194,321 50.9184583,321 C54.7928267,321 57.9363916,318.072584 57.9363916,314.464614 L67.7221837,314.464614 C67.7221837,318.072584 70.8673338,321 74.7432874,321 C78.6144853,321 81.7596354,318.072584 81.7596354,314.464614 L91.5470128,314.464614 C91.5470128,318.072584 94.6889924,321 98.564946,321 C102.442485,321 105.582879,318.072584 105.582879,314.464614 L115.371842,314.464614 C115.371842,318.072584 118.512236,321 122.389775,321 C126.265729,321 129.407708,318.072584 129.407708,314.464614 L139.196671,314.464614 C139.196671,318.072584 142.338651,321 146.214604,321 C150.087387,321 153.230952,318.072584 153.230952,314.464614 L163.019915,314.464614 C163.019915,318.072584 166.161894,321 170.036263,321 C173.912216,321 177.055781,318.072584 177.055781,314.464614 L186.846329,314.464614 C186.846329,318.072584 189.983553,321 193.862677,321 C197.733875,321 200.875855,318.072584 200.875855,314.464614 L210.669573,314.464614 C210.669573,318.072584 213.813138,321 217.685921,321 C221.561875,321 224.705439,318.072584 224.705439,314.464614 L234.492817,314.464614 C234.492817,318.072584 237.634796,321 241.509165,321 C245.385118,321 248.527098,318.072584 248.527098,314.464614 L258.314475,314.464614 C258.314475,318.072584 261.459625,321 265.333994,321 C269.208362,321 272.350342,318.072584 272.350342,314.464614 L282.137719,314.464614 C282.137719,318.072584 285.281284,321 289.155652,321 C293.034777,321 296.173586,318.072584 296.173586,314.464614 L305.964134,314.464614 C305.964134,318.072584 309.104528,321 312.983652,321 C316.85802,321 320,318.072584 320,314.464614 C320,310.853692 316.85802,307.930705 312.983652,307.930705 L312.983652,302.304693 C316.85802,302.304693 320,299.38023 320,295.770784 C320,292.159862 316.85802,289.235398 312.983652,289.235398 L312.983652,280.118041 C316.85802,280.118041 320,277.190625 320,273.575274 C320,269.964352 316.85802,267.038412 312.983652,267.038412 L312.983652,257.922531 C316.85802,257.922531 320,254.996592 320,251.387146 C320,247.780652 316.85802,244.853236 312.983652,244.853236 L312.983652,235.753594 C316.85802,235.753594 320,232.829131 320,229.215256 C320,225.599905 316.85802,222.673965 312.983652,222.673965 L312.983652,213.558084 C316.85802,213.558084 320,210.632145 320,207.022699 C320,203.413253 316.85802,200.487313 312.983652,200.487313 L312.983652,191.372908 C316.85802,191.372908 320,188.444016 320,184.837523 C320,181.228077 316.85802,178.302137 312.983652,178.302137 L312.983652,169.18478 C316.85802,169.18478 320,166.25884 320,162.649394 C320,159.042901 316.85802,156.115485 312.983652,156.115485 L312.983652,147.00108 C316.85802,147.00108 320,144.073664 320,140.465694 C320,136.857725 316.85802,133.930309 312.983652,133.930309 L312.983652,124.812951 C316.85802,124.812951 320,121.887012 320,118.279042 C320,114.671072 316.85802,111.745133 312.983652,111.745133 L312.983652,102.629252 C316.85802,102.629252 320,99.7018359 320,96.0923899 C320,92.4858963 316.85802,89.5584805 312.983652,89.5584805 L312.983652,80.4411231 C316.85802,80.4411231 320,77.5166599 320,73.9072138 C320,70.299244 316.85802,67.3718283 312.983652,67.3718283 L312.983652,58.2559471 C316.85802,58.2559471 320,55.3300076 320,51.7205616" id="Fill-49" stroke="#2196F3" stroke-width="1" fill="none" sketch:type="MSShapeGroup"></path>
                    <mask id="mask-4" sketch:name="Mask" fill="white">
                        <use xlink:href="#path-3"></use>
                    </mask>
                    <g id="Mask" fill="none">
                        <use stroke="#2196F3" stroke-width="1" sketch:type="MSShapeGroup" xlink:href="#path-3"></use>
                        <use stroke="none" xlink:href="#path-3"></use>
                    </g>
                    <g id="EarthLines" stroke="none" stroke-width="1" fill="none" fill-rule="evenodd" sketch:type="MSLayerGroup" mask="url(#mask-4)">
                        <g transform="translate(159.472366, 287.284132) rotate(-358.000000) translate(-159.472366, -287.284132) translate(-84.527634, 170.784132)" stroke="#2196F3" sketch:type="MSShapeGroup">
                            <path d="M127.652308,145.521346 L131.01,99.4617308 L245.919615,112.255962 L213.535,145.521346 L127.652308,145.521346 Z" id="Fill-72"></path>
                            <path d="M127.652308,145.521346 L131.01,99.4617308 L101.983077,162.794423 L127.652308,145.521346 Z" id="Fill-73"></path>
                            <path d="M88.3098077,64.2773077 L131.011731,99.4619231 L101.982885,162.794615 L88.3098077,64.2773077 Z" id="Fill-74"></path>
                            <path d="M88.3098077,64.2773077 L131.011731,99.4619231 L214.494423,70.035 L131.011731,43.8061538 L88.3098077,64.2773077 Z" id="Fill-75"></path>
                            <path d="M88.3098077,64.2773077 L21.3790385,151.758077 L101.982885,162.794615 L88.3098077,64.2773077 Z" id="Fill-76"></path>
                            <path d="M88.3098077,64.2773077 L131.011731,43.8061538 L24.7386538,64.2773077 L88.3098077,64.2773077 Z" id="Fill-80"></path>
                            <path d="M66.0796154,39.3282692 L131.010385,43.8071154 L24.7373077,64.2763462 L66.0796154,39.3282692 Z" id="Fill-81"></path>
                            <path d="M214.493846,70.0346154 L131.011154,99.4615385 L245.920769,112.255769 L277.826538,70.0346154 L214.493846,70.0346154 Z" id="Fill-82"></path>
                            <path d="M313.65,70.0346154 L245.919231,112.255769 L277.825,70.0346154 L313.65,70.0346154 Z" id="Fill-83"></path>
                            <path d="M368.985577,152.238269 L299.335577,178.626731 L299.335577,149.359423 L318.208654,124.890192 L368.985577,152.238269 Z" id="Fill-91"></path>
                            <path d="M374.743077,32.2913462 L406.889231,32.2913462 L452.948846,54.0413462 L391.025769,43.8067308 L374.743077,32.2913462 Z" id="Fill-106"></path>
                            <path d="M374.743077,32.2913462 L406.889231,32.2913462 L380.500769,21.7355769 L374.743077,32.2913462 Z" id="Fill-107"></path>
                            <path d="M374.743077,32.2913462 L364.187308,16.2182692 L380.500769,21.7355769 L374.743077,32.2913462 Z" id="Fill-108"></path>
                            <path d="M374.743077,32.2913462 L364.187308,16.2182692 L343.077692,32.2913462 L374.743077,32.2913462 Z" id="Fill-109"></path>
                            <path d="M313.65,20.2967308 L364.188462,16.2178846 L343.076923,32.2909615 L313.65,20.2967308 Z" id="Fill-110"></path>
                            <path d="M313.65,20.2967308 L364.188462,16.2178846 L337.078846,8.06211538 L315.488462,3.98326923 L313.65,20.2967308 Z" id="Fill-111"></path>
                            <path d="M391.025769,43.8063462 L452.948846,54.0409615 L487.971923,80.2698077 L391.025769,43.8063462 Z" id="Fill-112"></path>
                            <path d="M391.025769,43.8063462 L416.964231,85.0678846 L460.145,99.4621154 L487.971923,80.2698077 L391.025769,43.8063462 Z" id="Fill-113"></path>
                            <path d="M127.652308,145.521346 L153.081154,232.8425 L206.736923,222.7675 L127.652308,145.521346 Z" id="Fill-199"></path>
                            <path d="M127.652308,145.521346 L268.523462,183.904038 L206.736923,222.7675 L127.652308,145.521346 Z" id="Fill-200"></path>
                            <path d="M127.652308,145.521346 L268.523462,183.904038 L213.535,145.521346 L127.652308,145.521346 Z" id="Fill-201"></path>
                            <path d="M127.652308,145.521346 L131.01,99.4617308 L245.919615,112.255962 L213.535,145.521346 L127.652308,145.521346 Z" id="Fill-202"></path>
                            <path d="M127.652308,145.521346 L131.01,99.4617308 L101.983077,162.794423 L127.652308,145.521346 Z" id="Fill-203"></path>
                            <path d="M88.3098077,64.2773077 L131.011731,99.4619231 L101.982885,162.794615 L88.3098077,64.2773077 Z" id="Fill-204"></path>
                            <path d="M88.3098077,64.2773077 L131.011731,99.4619231 L214.494423,70.035 L131.011731,43.8061538 L88.3098077,64.2773077 Z" id="Fill-205"></path>
                            <path d="M88.3098077,64.2773077 L21.3790385,151.758077 L101.982885,162.794615 L88.3098077,64.2773077 Z" id="Fill-206"></path>
                            <path d="M88.3098077,64.2773077 L21.3790385,151.758077 L0.188653846,124.890769 L24.7386538,64.2773077 L88.3098077,64.2773077 Z" id="Fill-207"></path>
                            <path d="M88.3098077,64.2773077 L131.011731,43.8061538 L24.7386538,64.2773077 L88.3098077,64.2773077 Z" id="Fill-210"></path>
                            <path d="M66.0796154,39.3282692 L131.010385,43.8071154 L24.7373077,64.2763462 L66.0796154,39.3282692 Z" id="Fill-211"></path>
                            <path d="M214.493846,70.0346154 L131.011154,99.4615385 L245.920769,112.255769 L277.826538,70.0346154 L214.493846,70.0346154 Z" id="Fill-212"></path>
                            <path d="M313.65,70.0346154 L245.919231,112.255769 L277.825,70.0346154 L313.65,70.0346154 Z" id="Fill-213"></path>
                            <path d="M368.985577,152.238269 L299.335577,178.626731 L299.335577,149.359423 L318.208654,124.890192 L368.985577,152.238269 Z" id="Fill-221"></path>
                            <path d="M374.743077,32.2913462 L406.889231,32.2913462 L452.948846,54.0413462 L391.025769,43.8067308 L374.743077,32.2913462 Z" id="Fill-236"></path>
                            <path d="M374.743077,32.2913462 L406.889231,32.2913462 L380.500769,21.7355769 L374.743077,32.2913462 Z" id="Fill-237"></path>
                            <path d="M374.743077,32.2913462 L364.187308,16.2182692 L380.500769,21.7355769 L374.743077,32.2913462 Z" id="Fill-238"></path>
                            <path d="M374.743077,32.2913462 L364.187308,16.2182692 L343.077692,32.2913462 L374.743077,32.2913462 Z" id="Fill-239"></path>
                            <path d="M313.65,20.2967308 L364.188462,16.2178846 L343.076923,32.2909615 L313.65,20.2967308 Z" id="Fill-240"></path>
                            <path d="M313.65,20.2967308 L364.188462,16.2178846 L337.078846,8.06211538 L315.488462,3.98326923 L313.65,20.2967308 Z" id="Fill-241"></path>
                            <path d="M391.025769,43.8063462 L452.948846,54.0409615 L487.971923,80.2698077 L391.025769,43.8063462 Z" id="Fill-242"></path>
                            <path d="M391.025769,43.8063462 L416.964231,85.0678846 L460.145,99.4621154 L487.971923,80.2698077 L391.025769,43.8063462 Z" id="Fill-243"></path>
                            <path d="M368.985577,152.238269 L416.964423,85.0671154 L452.949038,178.626731 L368.985577,152.238269 Z" id="Fill-288"></path>
                            <path d="M368.985577,152.238269 L416.964423,85.0671154 L391.025962,43.8055769 L368.985577,152.238269 Z" id="Fill-289"></path>
                            <path d="M368.985577,152.238269 L318.208654,124.890192 L391.025962,43.8055769 L368.985577,152.238269 Z" id="Fill-290"></path>
                            <path d="M313.65,70.0346154 L318.207692,124.890385 L391.025,43.8057692 L374.742308,32.2903846 L313.65,70.0346154 Z" id="Fill-291"></path>
                            <path d="M313.65,70.0346154 L343.076923,32.2903846 L374.742308,32.2903846 L313.65,70.0346154 Z" id="Fill-292"></path>
                            <path d="M313.65,70.0346154 L343.076923,32.2903846 L313.65,20.2961538 L313.65,70.0346154 Z" id="Fill-293"></path>
                            <path d="M313.65,70.0346154 L277.825,70.0346154 L313.65,20.2961538 L313.65,70.0346154 Z" id="Fill-294"></path>
                            <path d="M313.65,70.0346154 L245.919231,112.255769 L318.207692,124.890385 L313.65,70.0346154 Z" id="Fill-354"></path>
                            <path d="M213.534423,145.521346 L318.2075,124.890577 L245.920962,112.255962 L213.534423,145.521346 Z" id="Fill-355"></path>
                            <path d="M277.826538,70.0342308 L313.649615,20.2976923 L315.49,3.98423077 L273.028462,0.0592307692 L277.826538,70.0342308 Z" id="Fill-360"></path>
                            <path d="M273.028846,0.0592307692 L214.494231,70.0342308 L277.826923,70.0342308 L273.028846,0.0592307692 Z" id="Fill-361"></path>
                            <path d="M273.028846,0.0592307692 L204.417308,1.05346154 L186.786538,27.015 L214.494231,70.0342308 L273.028846,0.0592307692 Z" id="Fill-362"></path>
                            <path d="M131.010962,15.5015385 L186.785962,27.0130769 L204.418654,1.05153846 L131.010962,15.5015385 Z" id="Fill-363"></path>
                            <path d="M186.786154,27.0136538 L131.011154,43.8059615 L214.493846,70.0348077 L186.786154,27.0136538 Z" id="Fill-364"></path>
                            <path d="M186.786154,27.0136538 L131.011154,43.8059615 L66.0803846,39.3290385 L131.011154,15.5021154 L186.786154,27.0136538 Z" id="Fill-365"></path>
                        </g>
                    </g>
                    <g id="TrailsLines" stroke="none" stroke-width="1" fill="none" fill-rule="evenodd" sketch:type="MSLayerGroup" mask="url(#mask-4)">
                        <g transform="translate(10.000000, 111.000000)">
                            <mask id="mask-6" sketch:name="Mask" fill="white">
                                <use xlink:href="#path-5"></use>
                            </mask>
                            <use id="Mask" stroke="none" fill="none" sketch:type="MSShapeGroup" xlink:href="#path-5"></use>
                            <path d="M217.843773,-25.9999982 C100.801484,2.83620904 14,108.506668 14,234.450699 C14,238.250253 14.0790018,242.031355 14.2354525,245.792452 C19.2231077,119.100967 102.953659,12.6423716 217.843779,-26 Z" id="Oval-48-Copy" stroke="#2196F3" stroke-width="1" opacity="0.6" fill="none" sketch:type="MSShapeGroup" mask="url(#mask-6)"></path>
                            <path d="M324.843773,75.0000018 C207.801484,103.836209 121,209.506668 121,335.450699 C121,339.250253 121.079002,343.031355 121.235452,346.792452 C126.223108,220.100967 209.953659,113.642372 324.843779,75 Z" id="Oval-48-Copy-2" stroke="#2196F3" stroke-width="1" opacity="0.6" fill="none" sketch:type="MSShapeGroup" mask="url(#mask-6)"></path>
                            <path d="M246.843773,-6.99999816 C129.801484,21.836209 43,127.506668 43,253.450699 C43,257.250253 43.0790018,261.031355 43.2354525,264.792452 C48.2231077,138.100967 131.953659,31.6423716 246.843779,-7 Z" id="Oval-48-Copy-3" stroke="#2196F3" stroke-width="1" opacity="0.6" fill="none" sketch:type="MSShapeGroup" mask="url(#mask-6)"></path>
                            <path d="M311.843773,44.0000018 C194.801484,72.836209 108,178.506668 108,304.450699 C108,308.250253 108.079002,312.031355 108.235452,315.792452 C113.223108,189.100967 196.953659,82.6423716 311.843779,44 Z" id="Oval-48-Copy-4" stroke="#2196F3" stroke-width="1" opacity="0.6" fill="none" sketch:type="MSShapeGroup" mask="url(#mask-6)"></path>
                        </g>
                    </g>
                    <g id="Airplane" stroke="none" stroke-width="1" fill="none" fill-rule="evenodd" sketch:type="MSLayerGroup" transform="translate(215.554074, 160.285460) rotate(-310.000000) translate(-215.554074, -160.285460) translate(101.554074, 46.785460)">
                        <g id="LeftBackWing" transform="translate(68.038489, 185.755876)">
                            <mask id="mask-8" sketch:name="Mask" fill="white">
                                <use xlink:href="#path-7"></use>
                            </mask>
                            <use id="Mask" stroke="#2196F3" sketch:type="MSShapeGroup" xlink:href="#path-7"></use>
                            <path d="M45.3589945,14.0668459 C45.3589945,14.0668459 13.3544201,29.9440227 7.21759366,33.5072053 C1.08076719,37.0703879 -0.603004191,41.9033861 -0.603004191,41.9033861 L45.3589945,28.6051266 L45.3589945,14.0668459 Z" id="Path-1091" stroke="#2196F3" sketch:type="MSShapeGroup" mask="url(#mask-8)"></path>
                        </g>
                        <g id="RighyBackWing" transform="translate(135.756475, 206.255876) scale(-1, 1) translate(-135.756475, -206.255876) translate(112.756475, 185.755876)">
                            <mask id="mask-10" sketch:name="Mask" fill="white">
                                <use xlink:href="#path-9"></use>
                            </mask>
                            <use id="Mask" stroke="#2196F3" sketch:type="MSShapeGroup" xlink:href="#path-9"></use>
                            <path d="M45.3589945,14.0668459 C45.3589945,14.0668459 13.3544201,29.9440227 7.21759366,33.5072053 C1.08076719,37.0703879 -0.603004191,41.9033861 -0.603004191,41.9033861 L45.3589945,28.6051266 L45.3589945,14.0668459 Z" id="Path-1091" stroke="#2196F3" sketch:type="MSShapeGroup" mask="url(#mask-10)"></path>
                            <path d="M31.8592927,0.479872158 L45.3589929,-23.3629188 L46.438969,38.8791368 L14.3212836,42.2572259 L31.8592927,0.479872158 Z" id="Rectangle-96" stroke="#2196F3" sketch:type="MSShapeGroup" mask="url(#mask-10)"></path>
                        </g>
                        <g id="LeftWing" transform="translate(-0.000000, 70.198441)">
                            <g id="Group-5" transform="translate(63.718585, 17.279616)">
                                <mask id="mask-12" sketch:name="Mask" fill="white">
                                    <use xlink:href="#path-11"></use>
                                </mask>
                                <use id="Mask" stroke="#2196F3" sketch:type="MSShapeGroup" xlink:href="#path-11"></use>
                                <rect id="Rectangle-85" stroke="#2196F3" sketch:type="MSShapeGroup" mask="url(#mask-12)" x="-3.23992807" y="-10.7997602" width="25.9194245" height="14.0396883"></rect>
                                <path d="M-38.7630227,46.131007 L19.8282766,65.4767103 L21.7183185,34.7575096 L-41.0390888,-1.07997602 L-38.7630227,46.131007 Z" id="Path-1103" stroke="#2196F3" sketch:type="MSShapeGroup" mask="url(#mask-12)">
                                    <g transform="translate(-9.660385, 32.198367) scale(-1, 1) translate(9.660385, -32.198367) "></g>
                                </path>
                                <mask id="mask-14" sketch:name="Mask" fill="white">
                                    <use xlink:href="#path-13"></use>
                                </mask>
                                <use id="Mask" stroke="#2196F3" sketch:type="MSShapeGroup" xlink:href="#path-13"></use>
                                <rect id="Rectangle-85" stroke="#2196F3" sketch:type="MSShapeGroup" mask="url(#mask-14)" x="-35.6392087" y="2.15995204" width="25.9194245" height="14.0396883"></rect>
                                <path d="M-38.8791368,47.2109831 L19.7095624,66.5566864 L21.5995204,35.8374856 L-41.1551019,7.10542736e-14 L-38.8791368,47.2109831 Z" id="Path-1103" stroke="#2196F3" sketch:type="MSShapeGroup" mask="url(#mask-14)">
                                    <g transform="translate(-9.777791, 33.278343) scale(-1, 1) translate(9.777791, -33.278343) "></g>
                                </path>
                            </g>
                            <mask id="mask-16" sketch:name="Mask" fill="white">
                                <use xlink:href="#path-15"></use>
                            </mask>
                            <use id="Mask" stroke="#2196F3" sketch:type="MSShapeGroup" xlink:href="#path-15"></use>
                            <path d="M8.54617491,73.2967467 C12.0911327,70.3858394 14.8192256,69.000114 19.4986296,66.8456643 C30.1038537,61.9629013 60.8196672,47.6930927 81.7997464,40.5022648 C93.7057961,36.4215198 102.597722,36.9628122 102.597722,36.9628122 L102.597722,82.9735875 L0.311125905,82.9735875 C0.311125905,82.9735875 5.00121709,76.207654 8.54617491,73.2967467 Z" id="Rectangle-83" stroke="#2196F3" sketch:type="MSShapeGroup" mask="url(#mask-16)"></path>
                            <path d="M18.4713868,75.8830809 C39.0729412,68.8572972 77.463495,55.2227387 84.3109016,54.2160619 C91.1583081,53.209385 102.597722,53.3575653 102.597722,53.3575653 L102.597722,82.9735875 L0.311125905,82.9735875 C0.311125905,82.9735875 10.9274724,78.455795 18.4713868,75.8830809 Z" id="Rectangle-83" stroke="#2196F3" sketch:type="MSShapeGroup" mask="url(#mask-16)"></path>
                            <path d="M97.0101118,2.15995204 L113.157019,2.15995204 L113.157019,68.0384894 L95.6221739,69.1406134 L97.0101118,2.15995204 Z" id="Rectangle-96" stroke="#2196F3" sketch:type="MSShapeGroup" mask="url(#mask-16)"></path>
                        </g>
                        <g id="RightWing" transform="translate(170.874941, 112.198441) scale(-1, 1) translate(-170.874941, -112.198441) translate(113.874941, 70.198441)">
                            <g id="Group-5" transform="translate(63.718585, 17.279616)">
                                <mask id="mask-18" sketch:name="Mask" fill="white">
                                    <use xlink:href="#path-17"></use>
                                </mask>
                                <use id="Mask" stroke="#2196F3" sketch:type="MSShapeGroup" xlink:href="#path-17"></use>
                                <rect id="Rectangle-85" stroke="#2196F3" sketch:type="MSShapeGroup" mask="url(#mask-18)" x="-3.23992807" y="-10.7997602" width="25.9194245" height="14.0396883"></rect>
                                <path d="M-36.6031717,45.051031 L21.9855275,64.3967343 L23.8754855,33.6775335 L-38.8791368,-2.15995204 L-36.6031717,45.051031 Z" id="Path-1103" stroke="#2196F3" sketch:type="MSShapeGroup" mask="url(#mask-18)">
                                    <g transform="translate(-7.501826, 31.118391) scale(-1, 1) translate(7.501826, -31.118391) "></g>
                                </path>
                                <mask id="mask-20" sketch:name="Mask" fill="white">
                                    <use xlink:href="#path-19"></use>
                                </mask>
                                <use id="Mask" stroke="#2196F3" sketch:type="MSShapeGroup" xlink:href="#path-19"></use>
                                <rect id="Rectangle-85" stroke="#2196F3" sketch:type="MSShapeGroup" mask="url(#mask-20)" x="-35.6392087" y="2.15995204" width="25.9194245" height="14.0396883"></rect>
                                <path d="M-36.6031717,46.131007 L21.9855275,65.4767103 L23.8754855,34.7575096 L-38.8791368,-1.07997602 L-36.6031717,46.131007 Z" id="Path-1103" stroke="#2196F3" sketch:type="MSShapeGroup" mask="url(#mask-20)">
                                    <g transform="translate(-7.501826, 32.198367) scale(-1, 1) translate(7.501826, -32.198367) "></g>
                                </path>
                            </g>
                            <mask id="mask-22" sketch:name="Mask" fill="white">
                                <use xlink:href="#path-21"></use>
                            </mask>
                            <use id="Mask" stroke="#2196F3" sketch:type="MSShapeGroup" xlink:href="#path-21"></use>
                            <path d="M8.54617491,73.2967467 C12.0911327,70.3858394 14.8192256,69.000114 19.4986296,66.8456643 C30.1038537,61.9629013 60.8196672,47.6930927 81.7997464,40.5022648 C93.7057961,36.4215198 102.597722,36.9628122 102.597722,36.9628122 L102.597722,82.9735875 L0.311125905,82.9735875 C0.311125905,82.9735875 5.00121709,76.207654 8.54617491,73.2967467 Z" id="Rectangle-83" stroke="#2196F3" sketch:type="MSShapeGroup" mask="url(#mask-22)"></path>
                            <path d="M18.4713868,75.8830809 C39.0729412,68.8572972 77.463495,55.2227387 84.3109016,54.2160619 C91.1583081,53.209385 102.597722,53.3575653 102.597722,53.3575653 L102.597722,82.9735875 L0.311125905,82.9735875 C0.311125905,82.9735875 10.9274724,78.455795 18.4713868,75.8830809 Z" id="Rectangle-83" stroke="#2196F3" sketch:type="MSShapeGroup" mask="url(#mask-22)"></path>
                            <path d="M90.7707191,2.15995204 L106.917626,2.15995204 L106.917626,68.0384894 L86.6385452,68.0384894 L90.7707191,2.15995204 Z" id="Rectangle-96" stroke="#2196F3" sketch:type="MSShapeGroup" mask="url(#mask-22)"></path>
                        </g>
                        <g id="Body" transform="translate(96.349218, 0.000000)">
                            <g id="Group-7" transform="translate(16.747904, 104.500000) scale(-1, 1) translate(-16.747904, -104.500000) translate(0.247904, 0.000000)">
                                <mask id="mask-24" sketch:name="Mask" fill="white">
                                    <use xlink:href="#path-23"></use>
                                </mask>
                                <use id="Mask" stroke="#2196F3" sketch:type="MSShapeGroup" xlink:href="#path-23"></use>
                                <path d="M32.4974789,178.719157 C32.4974789,178.719157 23.5834581,173.579779 18.858563,160.286266 C14.1336679,146.992752 16.9229907,107.289659 16.9229907,107.289659 C16.9229907,107.289659 17.6126577,115.926589 18.8585631,123.855531 C19.7549212,129.559954 21.1150606,134.731234 21.8886128,136.837919 C23.9077277,142.336759 27.030943,147.160694 28.2234526,149.391849 C30.0437082,152.797501 32.4974797,154.338487 32.4974797,154.338487 L32.4974789,178.719157 Z" id="Path-1094" stroke="#2196F3" sketch:type="MSShapeGroup" mask="url(#mask-24)">
                                    <g transform="translate(24.301395, 143.004408) scale(-1, 1) translate(-24.301395, -143.004408) "></g>
                                </path>
                                <path d="M32.2290363,196.536652 C32.2290363,196.536652 26.7397453,190.721462 22.7381142,183.083884 C22.0834123,181.83431 17.8479272,173.548864 17.0213074,164.343558 C14.997191,141.802829 16.6231717,123.507229 16.6231717,123.507229 C16.6231717,123.507229 19.8516853,150.361705 22.7381145,158.238635 C26.7504671,169.188158 32.2290366,174.52634 32.2290366,174.52634 L32.2290363,196.536652 Z" id="Path-1094" stroke="#2196F3" sketch:type="MSShapeGroup" mask="url(#mask-24)">
                                    <g transform="translate(24.117250, 160.021940) scale(-1, 1) translate(-24.117250, -160.021940) "></g>
                                </path>
                                <path d="M16.2913961,178.719157 C16.2913961,178.719157 7.37737537,173.579779 2.65248027,160.286266 C-2.07241483,146.992752 0.716907913,107.289659 0.716907913,107.289659 C0.716907913,107.289659 1.40657493,115.926589 2.65248036,123.855531 C3.54883845,129.559954 4.90897786,134.731234 5.68253002,136.837919 C7.7016449,142.336759 10.8248602,147.160694 12.0173698,149.391849 C13.8376255,152.797501 16.2913969,154.338487 16.2913969,154.338487 L16.2913961,178.719157 Z" id="Path-1094" stroke="#2196F3" sketch:type="MSShapeGroup" mask="url(#mask-24)"></path>
                                <path d="M16.4390493,196.536652 C16.4390493,196.536652 10.9497582,190.721462 6.94812716,183.083884 C6.29342517,181.83431 2.05794008,173.548864 1.23132035,164.343558 C-0.792796125,141.802829 0.833184629,123.507229 0.833184629,123.507229 C0.833184629,123.507229 4.06169823,150.361705 6.94812741,158.238635 C10.96048,169.188158 16.4390495,174.52634 16.4390495,174.52634 L16.4390493,196.536652 Z" id="Path-1094" stroke="#2196F3" sketch:type="MSShapeGroup" mask="url(#mask-24)"></path>
                                <path d="M9.53165648,184.88407 C8.68079156,180.69036 7.96575438,176.218029 7.55983216,171.716188 C6.22286153,156.888642 6.23324127,150.858292 6.07908378,132.364561 C5.82350051,101.703136 6.07908378,57.012996 6.07908378,29.9798813 C6.07908378,29.2518089 5.97500501,22.5004557 6.94707232,17.4858032 C7.73612888,13.4152574 8.6155509,11.0660629 9.71609288,8.576001 C12.8234751,1.54530676 16.1996403,2.84217094e-14 16.1996403,2.84217094e-14 L-1.07997602,2.84217094e-14 L-1.07997602,208.435372 L15.027735,208.435372 L16.1996403,215.995204 L16.1996403,173.87614 C16.1996403,173.87614 12.5354538,180.840461 11.1129954,183.121589 C10.7183338,183.754488 10.1452065,184.353378 9.53165648,184.88407 Z M14.0068011,202.035702 C14.0256642,202.095165 14.0444531,202.15428 14.0631658,202.213043 L14.035997,202.03778 C14.035997,202.03778 14.0259706,202.037462 14.0068011,202.035702 Z" id="Rectangle-95" stroke="#2196F3" sketch:type="MSShapeGroup" mask="url(#mask-24)"></path>
                            </g>
                        </g>
                        <g id="Back" transform="translate(111.237530, 173.876140)" stroke="#2196F3" sketch:type="MSShapeGroup">
                            <path d="M0,29.1593526 C0.0814728005,18.6339756 1.07997602,0 2.15995204,0 L2.15995204,42.1190649 C2.15995204,42.1190649 0.0814728005,39.5476233 0,29.1593526 Z" id="Rectangle-98"></path>
                            <path d="M2.15995204,29.1593526 C2.24142485,18.6339756 3.23992807,1.13686838e-13 4.31990409,1.13686838e-13 L4.31990409,42.1190649 C4.31990409,42.1190649 2.24142485,39.5476233 2.15995204,29.1593526 Z" id="Rectangle-98" transform="translate(3.239928, 21.059532) scale(-1, 1) translate(-3.239928, -21.059532) "></path>
                        </g>
                        <g id="Windows" transform="translate(102.597722, 8.399880)" stroke="#2196F3" sketch:type="MSShapeGroup">
                            <path d="M11.3397482,0.254667882 C13.0970998,0.348996724 14.7491465,0.89251009 16.1996403,1.78233442 L16.1996403,5.60089039 C14.6887661,4.93651729 13.0515502,4.54535995 11.3397482,4.48384192 L11.3397482,0.254667882 Z M10.2597722,0.253651091 C8.49875905,0.344909005 6.84716155,0.88727764 5.39988011,1.77623994 L5.39988011,5.65645933 C6.90522659,4.97468098 8.54227776,4.5662719 10.2597722,4.48880827 L10.2597722,0.253651091 Z M17.2796164,2.53780972 C19.4482688,4.25558511 21.0241788,6.81073741 21.5995204,9.76736593 C20.3900897,8.27578775 18.924733,7.03689575 17.2796164,6.13372609 L17.2796164,2.53780972 Z M4.31990409,2.53346993 C2.10873689,4.29076613 0.525124105,6.9243811 3.7658765e-13,9.95971227 C1.19580722,8.42219455 2.66197005,7.14114429 4.31990409,6.20482652 L4.31990409,2.53346993 Z" id="Fill-115"></path>
                        </g>
                    </g>
                </g>
            </g>
            <mask id="mask-26" sketch:name="Mask" fill="white">
                <use xlink:href="#path-25"></use>
            </mask>
            <use id="Mask" fill="#53BC69" sketch:type="MSShapeGroup" xlink:href="#path-25"></use>
            <g id="Group-2" sketch:type="MSLayerGroup" mask="url(#mask-26)">
                <g transform="translate(101.000000, 80.000000)">
                    <path d="M320,51.7205616 C320,48.1111155 316.85802,45.1866523 312.983652,45.1866523 L312.983652,36.0692949 C313.221441,36.0692949 313.460814,36.0574848 313.698603,36.0368172 C317.236897,35.6987546 320,32.9174882 320,29.5353856 C320,26.1488542 317.236897,23.369064 313.698603,23.0339539 C313.460814,23.0103338 313.221441,23 312.983652,23 C312.739522,23 312.500149,23.0103338 312.265531,23.0339539 C308.725651,23.369064 305.964134,26.1488542 305.964134,29.5353856 L296.173586,29.5353856 C296.173586,25.9244632 293.034777,23 289.155652,23 C285.281284,23 282.137719,25.9244632 282.137719,29.5353856 L272.350342,29.5353856 C272.350342,25.9244632 269.208362,23 265.333994,23 C261.459625,23 258.314475,25.9244632 258.314475,29.5353856 L248.527098,29.5353856 C248.527098,25.9244632 245.385118,23 241.509165,23 C237.634796,23 234.492817,25.9244632 234.492817,29.5353856 L224.705439,29.5353856 C224.705439,25.9244632 221.561875,23 217.685921,23 C213.813138,23 210.669573,25.9244632 210.669573,29.5353856 L200.875855,29.5353856 C200.875855,25.9244632 197.733875,23 193.862677,23 C189.983553,23 186.846329,25.9244632 186.846329,29.5353856 L177.055781,29.5353856 C177.055781,25.9244632 173.912216,23 170.036263,23 C166.161894,23 163.019915,25.9244632 163.019915,29.5353856 L153.230952,29.5353856 C153.230952,25.9244632 150.087387,23 146.214604,23 C142.338651,23 139.196671,25.9244632 139.196671,29.5353856 L129.407708,29.5353856 C129.407708,25.9244632 126.265729,23 122.389775,23 C118.512236,23 115.371842,25.9244632 115.371842,29.5353856 L105.582879,29.5353856 C105.582879,25.9244632 102.442485,23 98.564946,23 C94.6889924,23 91.5470128,25.9244632 91.5470128,29.5353856 L81.7596354,29.5353856 C81.7596354,25.9244632 78.6144853,23 74.7432874,23 C70.8673338,23 67.7221837,25.9244632 67.7221837,29.5353856 L57.9363916,29.5353856 C57.9363916,25.9244632 54.7928267,23 50.9184583,23 C47.0409194,23 43.9005251,25.9244632 43.9005251,29.5353856 L34.1099772,29.5353856 C34.1099772,25.9244632 30.9695829,23 27.0904587,23 C23.2176756,23 20.0725255,25.9244632 20.0725255,29.5353856 L14.0326959,29.5353856 C14.0326959,25.9244632 10.8923016,23 7.01634796,23 C3.13722382,23 0,25.9244632 0,29.5353856 C0,33.1448316 3.13722382,36.0692949 7.01634796,36.0692949 L7.01634796,45.1866523 C3.14197959,45.1866523 0,48.1111155 0,51.7205616 C0,55.3300076 3.14197959,58.2559471 7.01634796,58.2559471 L7.01634796,67.3718283 C3.14197959,67.3718283 0,70.299244 0,73.9072138 C0,77.5166599 3.14197959,80.4411231 7.01634796,80.4411231 L7.01634796,89.5584805 C3.14197959,89.5584805 0,92.4858963 0,96.0923899 C0,99.7018359 3.14197959,102.629252 7.01634796,102.629252 L7.01634796,111.745133 C3.14197959,111.745133 0,114.671072 0,118.279042 C0,121.887012 3.14197959,124.812951 7.01634796,124.812951 L7.01634796,133.930309 C3.14197959,133.930309 0,136.857725 0,140.465694 C0,144.073664 3.14197959,147.00108 7.01634796,147.00108 L7.01634796,156.115485 C3.14197959,156.115485 0,159.042901 0,162.649394 C0,166.25884 3.14197959,169.18478 7.01634796,169.18478 L7.01634796,178.302137 C3.14197959,178.302137 0,181.228077 0,184.837523 C0,188.444016 3.14197959,191.372908 7.01634796,191.372908 L7.01634796,200.487313 C3.14197959,200.487313 0,203.413253 0,207.022699 C0,210.632145 3.14197959,213.558084 7.01634796,213.558084 L7.01634796,222.673965 C3.14197959,222.673965 0,225.599905 0,229.215256 C0,232.829131 3.14197959,235.753594 7.01634796,235.753594 L7.01634796,244.853236 C3.14197959,244.853236 0,247.780652 0,251.387146 C0,254.996592 3.14197959,257.922531 7.01634796,257.922531 L7.01634796,267.038412 C3.14197959,267.038412 0,269.964352 0,273.575274 C0,277.190625 3.14197959,280.118041 7.01634796,280.118041 L7.01634796,289.235398 C3.14197959,289.235398 0,292.159862 0,295.770784 C0,299.38023 3.14197959,302.304693 7.01634796,302.304693 L7.01634796,307.930705 C3.38293867,307.930705 0.39472902,310.502343 0.0348756564,313.79587 C0.00951154265,314.017309 0,314.2417 0,314.464614 C0,314.689005 0.00951154265,314.913396 0.0348756564,315.134835 C0.39472902,318.423933 3.38293867,321 7.01634796,321 C10.648172,321 13.6379669,318.423933 13.9978203,315.134835 C14.0200139,314.913396 14.0326959,314.689005 14.0326959,314.464614 L20.0725255,314.464614 C20.0725255,318.072584 23.2176756,321 27.0904587,321 C30.9695829,321 34.1099772,318.072584 34.1099772,314.464614 L43.9005251,314.464614 C43.9005251,318.072584 47.0409194,321 50.9184583,321 C54.7928267,321 57.9363916,318.072584 57.9363916,314.464614 L67.7221837,314.464614 C67.7221837,318.072584 70.8673338,321 74.7432874,321 C78.6144853,321 81.7596354,318.072584 81.7596354,314.464614 L91.5470128,314.464614 C91.5470128,318.072584 94.6889924,321 98.564946,321 C102.442485,321 105.582879,318.072584 105.582879,314.464614 L115.371842,314.464614 C115.371842,318.072584 118.512236,321 122.389775,321 C126.265729,321 129.407708,318.072584 129.407708,314.464614 L139.196671,314.464614 C139.196671,318.072584 142.338651,321 146.214604,321 C150.087387,321 153.230952,318.072584 153.230952,314.464614 L163.019915,314.464614 C163.019915,318.072584 166.161894,321 170.036263,321 C173.912216,321 177.055781,318.072584 177.055781,314.464614 L186.846329,314.464614 C186.846329,318.072584 189.983553,321 193.862677,321 C197.733875,321 200.875855,318.072584 200.875855,314.464614 L210.669573,314.464614 C210.669573,318.072584 213.813138,321 217.685921,321 C221.561875,321 224.705439,318.072584 224.705439,314.464614 L234.492817,314.464614 C234.492817,318.072584 237.634796,321 241.509165,321 C245.385118,321 248.527098,318.072584 248.527098,314.464614 L258.314475,314.464614 C258.314475,318.072584 261.459625,321 265.333994,321 C269.208362,321 272.350342,318.072584 272.350342,314.464614 L282.137719,314.464614 C282.137719,318.072584 285.281284,321 289.155652,321 C293.034777,321 296.173586,318.072584 296.173586,314.464614 L305.964134,314.464614 C305.964134,318.072584 309.104528,321 312.983652,321 C316.85802,321 320,318.072584 320,314.464614 C320,310.853692 316.85802,307.930705 312.983652,307.930705 L312.983652,302.304693 C316.85802,302.304693 320,299.38023 320,295.770784 C320,292.159862 316.85802,289.235398 312.983652,289.235398 L312.983652,280.118041 C316.85802,280.118041 320,277.190625 320,273.575274 C320,269.964352 316.85802,267.038412 312.983652,267.038412 L312.983652,257.922531 C316.85802,257.922531 320,254.996592 320,251.387146 C320,247.780652 316.85802,244.853236 312.983652,244.853236 L312.983652,235.753594 C316.85802,235.753594 320,232.829131 320,229.215256 C320,225.599905 316.85802,222.673965 312.983652,222.673965 L312.983652,213.558084 C316.85802,213.558084 320,210.632145 320,207.022699 C320,203.413253 316.85802,200.487313 312.983652,200.487313 L312.983652,191.372908 C316.85802,191.372908 320,188.444016 320,184.837523 C320,181.228077 316.85802,178.302137 312.983652,178.302137 L312.983652,169.18478 C316.85802,169.18478 320,166.25884 320,162.649394 C320,159.042901 316.85802,156.115485 312.983652,156.115485 L312.983652,147.00108 C316.85802,147.00108 320,144.073664 320,140.465694 C320,136.857725 316.85802,133.930309 312.983652,133.930309 L312.983652,124.812951 C316.85802,124.812951 320,121.887012 320,118.279042 C320,114.671072 316.85802,111.745133 312.983652,111.745133 L312.983652,102.629252 C316.85802,102.629252 320,99.7018359 320,96.0923899 C320,92.4858963 316.85802,89.5584805 312.983652,89.5584805 L312.983652,80.4411231 C316.85802,80.4411231 320,77.5166599 320,73.9072138 C320,70.299244 316.85802,67.3718283 312.983652,67.3718283 L312.983652,58.2559471 C316.85802,58.2559471 320,55.3300076 320,51.7205616" id="Stample" stroke="none" fill="#FAF2DB" fill-rule="evenodd" filter="url(#filter-27)" sketch:type="MSShapeGroup"></path>
                    <mask id="mask-30" sketch:name="Bg_Sky" fill="white">
                        <use xlink:href="#path-29"></use>
                    </mask>
                    <g id="Bg_Sky" stroke="none" fill-rule="evenodd">
                        <use fill="#81D4FA" sketch:type="MSShapeGroup" xlink:href="#path-29"></use>
                        <use fill-opacity="0.5" fill="url(#radialGradient-28)" xlink:href="#path-29"></use>
                    </g>
                    <g id="Earth" stroke="none" stroke-width="1" fill="none" fill-rule="evenodd" sketch:type="MSLayerGroup" mask="url(#mask-30)">
                        <g transform="translate(-72.991750, 147.621713)" sketch:type="MSShapeGroup">
                            <path d="M127.652308,145.521346 L131.01,99.4617308 L245.919615,112.255962 L213.535,145.521346 L127.652308,145.521346 Z" id="Fill-202" fill="#7EE089"></path>
                            <path d="M127.652308,145.521346 L131.01,99.4617308 L101.983077,162.794423 L127.652308,145.521346 Z" id="Fill-203" fill="#53BC69"></path>
                            <path d="M88.3098077,64.2773077 L131.011731,99.4619231 L101.982885,162.794615 L88.3098077,64.2773077 Z" id="Fill-204" fill="#3EAF60"></path>
                            <path d="M88.3098077,64.2773077 L131.011731,99.4619231 L214.494423,70.035 L131.011731,43.8061538 L88.3098077,64.2773077 Z" id="Fill-205" fill="#53BC69"></path>
                            <path d="M88.3098077,64.2773077 L131.011731,43.8061538 L24.7386538,64.2773077 L88.3098077,64.2773077 Z" id="Fill-210" fill="#6CD37B"></path>
                            <path d="M66.0796154,39.3282692 L131.010385,43.8071154 L24.7373077,64.2763462 L66.0796154,39.3282692 Z" id="Fill-211" fill="#7EE089"></path>
                            <path d="M374.743077,32.2913462 L406.889231,32.2913462 L452.948846,54.0413462 L391.025769,43.8067308 L374.743077,32.2913462 Z" id="Fill-236" fill="#135931"></path>
                            <path d="M374.743077,32.2913462 L406.889231,32.2913462 L380.500769,21.7355769 L374.743077,32.2913462 Z" id="Fill-237" fill="#1B6639"></path>
                            <path d="M374.743077,32.2913462 L364.187308,16.2182692 L380.500769,21.7355769 L374.743077,32.2913462 Z" id="Fill-238" fill="#1D743D"></path>
                            <path d="M374.743077,32.2913462 L364.187308,16.2182692 L343.077692,32.2913462 L374.743077,32.2913462 Z" id="Fill-239" fill="#267F41"></path>
                            <path d="M313.65,20.2967308 L364.188462,16.2178846 L343.076923,32.2909615 L313.65,20.2967308 Z" id="Fill-240" fill="#1D743D"></path>
                            <path d="M313.65,20.2967308 L364.188462,16.2178846 L337.078846,8.06211538 L315.488462,3.98326923 L313.65,20.2967308 Z" id="Fill-241" fill="#1B6639"></path>
                            <path d="M313.65,70.0346154 L318.207692,124.890385 L391.025,43.8057692 L374.742308,32.2903846 L313.65,70.0346154 Z" id="Fill-291" fill="#236E9E"></path>
                            <path d="M313.65,70.0346154 L343.076923,32.2903846 L374.742308,32.2903846 L313.65,70.0346154 Z" id="Fill-292" fill="#216897"></path>
                            <path d="M313.65,70.0346154 L343.076923,32.2903846 L313.65,20.2961538 L313.65,70.0346154 Z" id="Fill-293" fill="#297EB2"></path>
                            <path d="M313.65,70.0346154 L277.825,70.0346154 L313.65,20.2961538 L313.65,70.0346154 Z" id="Fill-294" fill="#216897"></path>
                            <path d="M213.534423,145.521346 L299.336346,149.359808 L318.2075,124.890577 L213.534423,145.521346 Z" id="Fill-356" fill="#297EB2"></path>
                            <path d="M277.826538,70.0342308 L313.649615,20.2976923 L315.49,3.98423077 L273.028462,0.0592307692 L277.826538,70.0342308 Z" id="Fill-360" fill="#236E9E"></path>
                            <path d="M273.028846,0.0592307692 L214.494231,70.0342308 L277.826923,70.0342308 L273.028846,0.0592307692 Z" id="Fill-361" fill="#297EB2"></path>
                            <path d="M186.786154,27.0136538 L131.011154,43.8059615 L66.0803846,39.3290385 L131.011154,15.5021154 L186.786154,27.0136538 Z" id="Fill-365" fill="#216897"></path>
                            <path d="M127.652308,145.521346 L131.01,99.4617308 L245.919615,112.255962 L213.535,145.521346 L127.652308,145.521346 Z" id="Fill-72" fill="#7EE089"></path>
                            <path d="M127.652308,145.521346 L131.01,99.4617308 L101.983077,162.794423 L127.652308,145.521346 Z" id="Fill-73" fill="#53BC69"></path>
                            <path d="M88.3098077,64.2773077 L131.011731,99.4619231 L101.982885,162.794615 L88.3098077,64.2773077 Z" id="Fill-74" fill="#3EAF60"></path>
                            <path d="M88.3098077,64.2773077 L131.011731,99.4619231 L214.494423,70.035 L131.011731,43.8061538 L88.3098077,64.2773077 Z" id="Fill-75" fill="#53BC69"></path>
                            <path d="M88.3098077,64.2773077 L131.011731,43.8061538 L24.7386538,64.2773077 L88.3098077,64.2773077 Z" id="Fill-80" fill="#6CD37B"></path>
                            <path d="M66.0796154,39.3282692 L131.010385,43.8071154 L24.7373077,64.2763462 L66.0796154,39.3282692 Z" id="Fill-81" fill="#7EE089"></path>
                            <path d="M214.493846,70.0346154 L131.011154,99.4615385 L245.920769,112.255769 L277.826538,70.0346154 L214.493846,70.0346154 Z" id="Fill-212" fill="#6CD37B"></path>
                            <path d="M313.65,70.0346154 L245.919231,112.255769 L277.825,70.0346154 L313.65,70.0346154 Z" id="Fill-213" fill="#7EE089"></path>
                            <path d="M313.65,70.0346154 L245.919231,112.255769 L318.207692,124.890385 L313.65,70.0346154 Z" id="Fill-354" fill="#297EB2"></path>
                            <path d="M213.534423,145.521346 L318.2075,124.890577 L245.920962,112.255962 L213.534423,145.521346 Z" id="Fill-355" fill="#378FC3"></path>
                            <path d="M273.028846,0.0592307692 L204.417308,1.05346154 L186.786538,27.015 L214.494231,70.0342308 L273.028846,0.0592307692 Z" id="Fill-362" fill="#236E9E"></path>
                            <path d="M131.010962,15.5015385 L186.785962,27.0130769 L204.418654,1.05153846 L131.010962,15.5015385 Z" id="Fill-363" fill="#1F6084"></path>
                            <path d="M186.786154,27.0136538 L131.011154,43.8059615 L214.493846,70.0348077 L186.786154,27.0136538 Z" id="Fill-364" fill="#378FC3"></path>
                            <path d="M214.493846,70.0346154 L131.011154,99.4615385 L245.920769,112.255769 L277.826538,70.0346154 L214.493846,70.0346154 Z" id="Fill-82" fill="#6CD37B"></path>
                            <path d="M313.65,70.0346154 L245.919231,112.255769 L277.825,70.0346154 L313.65,70.0346154 Z" id="Fill-83" fill="#7EE089"></path>
                            <path d="M374.743077,32.2913462 L406.889231,32.2913462 L452.948846,54.0413462 L391.025769,43.8067308 L374.743077,32.2913462 Z" id="Fill-106" fill="#135931"></path>
                            <path d="M374.743077,32.2913462 L406.889231,32.2913462 L380.500769,21.7355769 L374.743077,32.2913462 Z" id="Fill-107" fill="#1B6639"></path>
                            <path d="M374.743077,32.2913462 L364.187308,16.2182692 L380.500769,21.7355769 L374.743077,32.2913462 Z" id="Fill-108" fill="#1D743D"></path>
                            <path d="M374.743077,32.2913462 L364.187308,16.2182692 L343.077692,32.2913462 L374.743077,32.2913462 Z" id="Fill-109" fill="#267F41"></path>
                            <path d="M313.65,20.2967308 L364.188462,16.2178846 L343.076923,32.2909615 L313.65,20.2967308 Z" id="Fill-110" fill="#1D743D"></path>
                            <path d="M313.65,20.2967308 L364.188462,16.2178846 L337.078846,8.06211538 L315.488462,3.98326923 L313.65,20.2967308 Z" id="Fill-111" fill="#1B6639"></path>
                            <path d="M127.652308,145.521346 L268.523462,183.904038 L206.736923,222.7675 L127.652308,145.521346 Z" id="Fill-200" fill="#53BC69"></path>
                            <path d="M127.652308,145.521346 L268.523462,183.904038 L213.535,145.521346 L127.652308,145.521346 Z" id="Fill-201" fill="#6CD37B"></path>
                            <path d="M368.985577,152.238269 L299.335577,178.626731 L299.335577,149.359423 L318.208654,124.890192 L368.985577,152.238269 Z" id="Fill-221" fill="#7EE089"></path>
                            <path d="M368.985577,152.238269 L416.964423,85.0671154 L391.025962,43.8055769 L368.985577,152.238269 Z" id="Fill-289" fill="#297EB2"></path>
                            <path d="M368.985577,152.238269 L318.208654,124.890192 L391.025962,43.8055769 L368.985577,152.238269 Z" id="Fill-290" fill="#216897"></path>
                            <path d="M213.534423,145.521346 L268.524808,183.904038 L299.336346,178.627115 L299.336346,149.359808 L213.534423,145.521346 Z" id="Fill-357" fill="#42AEE3"></path>
                            <path d="M127.652308,145.521346 L268.523462,183.904038 L206.736923,222.7675 L127.652308,145.521346 Z" id="Fill-70" fill="#53BC69"></path>
                            <path d="M127.652308,145.521346 L268.523462,183.904038 L213.535,145.521346 L127.652308,145.521346 Z" id="Fill-71" fill="#6CD37B"></path>
                            <path d="M368.985577,152.238269 L299.335577,178.626731 L299.335577,149.359423 L318.208654,124.890192 L368.985577,152.238269 Z" id="Fill-91" fill="#7EE089"></path>
                            <path d="M127.652308,145.521346 L101.983077,162.794423 L153.081154,232.8425 L127.652308,145.521346 Z" id="Fill-187" fill="#31A457"></path>
                            <path d="M127.652308,145.521346 L153.081154,232.8425 L206.736923,222.7675 L127.652308,145.521346 Z" id="Fill-199" fill="#3EAF60"></path>
                            <path d="M88.3098077,64.2773077 L21.3790385,151.758077 L101.982885,162.794615 L88.3098077,64.2773077 Z" id="Fill-206" fill="#53BC69"></path>
                            <path d="M368.985577,152.238269 L299.335577,178.626731 L401.610577,209.572885 L368.985577,152.238269 Z" id="Fill-220" fill="#6CD37B"></path>
                            <path d="M391.025769,43.8063462 L452.948846,54.0409615 L487.971923,80.2698077 L391.025769,43.8063462 Z" id="Fill-242" fill="#1B6639"></path>
                            <path d="M391.025769,43.8063462 L416.964231,85.0678846 L460.145,99.4621154 L487.971923,80.2698077 L391.025769,43.8063462 Z" id="Fill-243" fill="#267F41"></path>
                            <path d="M368.985577,152.238269 L401.610577,209.572885 L452.949038,178.626731 L368.985577,152.238269 Z" id="Fill-287" fill="#42AEE3"></path>
                            <path d="M368.985577,152.238269 L416.964423,85.0671154 L452.949038,178.626731 L368.985577,152.238269 Z" id="Fill-288" fill="#378FC3"></path>
                            <path d="M127.652308,145.521346 L101.983077,162.794423 L153.081154,232.8425 L127.652308,145.521346 Z" id="Fill-57" fill="#31A457"></path>
                            <path d="M127.652308,145.521346 L153.081154,232.8425 L206.736923,222.7675 L127.652308,145.521346 Z" id="Fill-69" fill="#3EAF60"></path>
                            <path d="M88.3098077,64.2773077 L21.3790385,151.758077 L101.982885,162.794615 L88.3098077,64.2773077 Z" id="Fill-76" fill="#53BC69"></path>
                            <path d="M88.3098077,64.2773077 L21.3790385,151.758077 L0.188653846,124.890769 L24.7386538,64.2773077 L88.3098077,64.2773077 Z" id="Fill-207" fill="#3EAF60"></path>
                            <path d="M88.3098077,64.2773077 L21.3790385,151.758077 L0.188653846,124.890769 L24.7386538,64.2773077 L88.3098077,64.2773077 Z" id="Fill-77" fill="#3EAF60"></path>
                            <path d="M368.985577,152.238269 L299.335577,178.626731 L401.610577,209.572885 L368.985577,152.238269 Z" id="Fill-90" fill="#6CD37B"></path>
                            <path d="M391.025769,43.8063462 L452.948846,54.0409615 L487.971923,80.2698077 L391.025769,43.8063462 Z" id="Fill-112" fill="#1B6639"></path>
                            <path d="M391.025769,43.8063462 L416.964231,85.0678846 L460.145,99.4621154 L487.971923,80.2698077 L391.025769,43.8063462 Z" id="Fill-113" fill="#267F41"></path>
                            <path d="M91.4284615,222.767115 L101.984231,162.794038 L153.080385,232.842115 L91.4284615,222.767115 Z" id="Fill-186" fill="#319B51"></path>
                            <path d="M91.4284615,222.767115 L101.984231,162.794038 L21.3803846,151.759423 L91.4284615,222.767115 Z" id="Fill-188" fill="#31A457"></path>
                            <path d="M91.4284615,222.767115 L101.984231,162.794038 L153.080385,232.842115 L91.4284615,222.767115 Z" id="Fill-56" fill="#319B51"></path>
                            <path d="M91.4284615,222.767115 L101.984231,162.794038 L21.3803846,151.759423 L91.4284615,222.767115 Z" id="Fill-58" fill="#31A457"></path>
                        </g>
                    </g>
                    <g id="Trails" stroke="none" stroke-width="1" fill="none" fill-rule="evenodd" sketch:type="MSLayerGroup" mask="url(#mask-30)">
                        <g transform="translate(10.000000, 111.000000)">
                            <mask id="mask-32" sketch:name="Mask" fill="white">
                                <use xlink:href="#path-31"></use>
                            </mask>
                            <use id="Mask" stroke="none" fill="none" sketch:type="MSShapeGroup" xlink:href="#path-31"></use>
                            <path d="M217.843773,-25.9999982 C100.801484,2.83620904 14,108.506668 14,234.450699 C14,238.250253 14.0790018,242.031355 14.2354525,245.792452 C19.2231077,119.100967 102.953659,12.6423716 217.843779,-26 Z" id="Oval-48-Copy" stroke="none" opacity="0.6" fill-opacity="0.7" fill="#FFFFFF" fill-rule="evenodd" sketch:type="MSShapeGroup" mask="url(#mask-32)"></path>
                            <path d="M324.843773,75.0000018 C207.801484,103.836209 121,209.506668 121,335.450699 C121,339.250253 121.079002,343.031355 121.235452,346.792452 C126.223108,220.100967 209.953659,113.642372 324.843779,75 Z" id="Oval-48-Copy-2" stroke="none" opacity="0.6" fill-opacity="0.7" fill="#FFFFFF" fill-rule="evenodd" sketch:type="MSShapeGroup" mask="url(#mask-32)"></path>
                            <path d="M246.843773,-6.99999816 C129.801484,21.836209 43,127.506668 43,253.450699 C43,257.250253 43.0790018,261.031355 43.2354525,264.792452 C48.2231077,138.100967 131.953659,31.6423716 246.843779,-7 Z" id="Oval-48-Copy-3" stroke="none" opacity="0.6" fill-opacity="0.7" fill="#FFFFFF" fill-rule="evenodd" sketch:type="MSShapeGroup" mask="url(#mask-32)"></path>
                            <path d="M311.843773,44.0000018 C194.801484,72.836209 108,178.506668 108,304.450699 C108,308.250253 108.079002,312.031355 108.235452,315.792452 C113.223108,189.100967 196.953659,82.6423716 311.843779,44 Z" id="Oval-48-Copy-4" stroke="none" opacity="0.6" fill-opacity="0.7" fill="#FFFFFF" fill-rule="evenodd" sketch:type="MSShapeGroup" mask="url(#mask-32)"></path>
                        </g>
                    </g>
                    <g id="Airplane" stroke="none" stroke-width="1" fill="none" fill-rule="evenodd" sketch:type="MSLayerGroup" transform="translate(215.554074, 160.285460) rotate(-310.000000) translate(-215.554074, -160.285460) translate(101.554074, 46.785460)">
                        <g id="LeftBackWing" transform="translate(68.038489, 185.755876)">
                            <mask id="mask-34" sketch:name="Mask" fill="white">
                                <use xlink:href="#path-33"></use>
                            </mask>
                            <use id="Mask" fill="#F9F9F9" sketch:type="MSShapeGroup" xlink:href="#path-33"></use>
                            <path d="M45.3589945,14.0668459 C45.3589945,14.0668459 13.3544201,29.9440227 7.21759366,33.5072053 C1.08076719,37.0703879 -0.603004191,41.9033861 -0.603004191,41.9033861 L45.3589945,28.6051266 L45.3589945,14.0668459 Z" id="Path-1091" fill="#09CA5B" sketch:type="MSShapeGroup" mask="url(#mask-34)"></path>
                        </g>
                        <g id="RighyBackWing" transform="translate(135.536991, 206.275420) scale(-1, 1) translate(-135.536991, -206.275420) translate(112.317506, 185.755876)">
                            <mask id="mask-36" sketch:name="Mask" fill="white">
                                <use xlink:href="#path-35"></use>
                            </mask>
                            <use id="Mask" fill="#F9F9F9" sketch:type="MSShapeGroup" xlink:href="#path-35"></use>
                            <path d="M45.3589945,14.0668459 C45.3589945,14.0668459 13.3544201,29.9440227 7.21759366,33.5072053 C1.08076719,37.0703879 -0.603004191,41.9033861 -0.603004191,41.9033861 L45.3589945,28.6051266 L45.3589945,14.0668459 Z" id="Path-1091" fill="#09CA5B" sketch:type="MSShapeGroup" mask="url(#mask-36)"></path>
                            <path d="M31.8592927,0.479872158 L45.3589929,-23.3629188 L46.438969,38.8791368 L14.3212836,42.2572259 L31.8592927,0.479872158 Z" id="Rectangle-96" fill="#BAC7BA" sketch:type="MSShapeGroup" mask="url(#mask-36)"></path>
                        </g>
                        <g id="LeftWing" transform="translate(-0.000000, 70.198441)">
                            <g id="Group-5" transform="translate(63.718585, 17.279616)">
                                <mask id="mask-38" sketch:name="Mask" fill="white">
                                    <use xlink:href="#path-37"></use>
                                </mask>
                                <use id="Mask" fill="#09CA5B" sketch:type="MSShapeGroup" xlink:href="#path-37"></use>
                                <rect id="Rectangle-85" fill="#EBEBEB" sketch:type="MSShapeGroup" mask="url(#mask-38)" x="-3.23992807" y="-10.7997602" width="25.9194245" height="14.0396883"></rect>
                                <path d="M-38.7630227,46.131007 L19.8282766,65.4767103 L21.7183185,34.7575096 L-41.0390888,-1.07997602 L-38.7630227,46.131007 Z" id="Path-1103" fill="#AEB9AE" sketch:type="MSShapeGroup" mask="url(#mask-38)">
                                    <g transform="translate(-9.660385, 32.198367) scale(-1, 1) translate(9.660385, -32.198367) "></g>
                                </path>
                                <mask id="mask-40" sketch:name="Mask" fill="white">
                                    <use xlink:href="#path-39"></use>
                                </mask>
                                <use id="Mask" fill="#09CA5B" sketch:type="MSShapeGroup" xlink:href="#path-39"></use>
                                <rect id="Rectangle-85" fill="#EBEBEB" sketch:type="MSShapeGroup" mask="url(#mask-40)" x="-35.6392087" y="2.15995204" width="25.9194245" height="14.0396883"></rect>
                                <path d="M-38.8791368,47.2109831 L19.7095624,66.5566864 L21.5995204,35.8374856 L-41.1551019,0 L-38.8791368,47.2109831 Z" id="Path-1103" fill="#AEB9AE" sketch:type="MSShapeGroup" mask="url(#mask-40)">
                                    <g transform="translate(-9.777791, 33.278343) scale(-1, 1) translate(9.777791, -33.278343) "></g>
                                </path>
                            </g>
                            <mask id="mask-42" sketch:name="Mask" fill="white">
                                <use xlink:href="#path-41"></use>
                            </mask>
                            <use id="Mask" fill="#F9F9F9" sketch:type="MSShapeGroup" xlink:href="#path-41"></use>
                            <path d="M8.54617491,73.2967467 C12.0911327,70.3858394 14.8192256,69.000114 19.4986296,66.8456643 C30.1038537,61.9629013 60.8196672,47.6930927 81.7997464,40.5022648 C93.7057961,36.4215198 102.597722,36.9628122 102.597722,36.9628122 L102.597722,82.9735875 L0.311125905,82.9735875 C0.311125905,82.9735875 5.00121709,76.207654 8.54617491,73.2967467 Z" id="Rectangle-83" fill="#08CA5B" sketch:type="MSShapeGroup" mask="url(#mask-42)"></path>
                            <path d="M18.4713868,75.8830809 C39.0729412,68.8572972 77.463495,55.2227387 84.3109016,54.2160619 C91.1583081,53.209385 102.597722,53.3575653 102.597722,53.3575653 L102.597722,82.9735875 L0.311125905,82.9735875 C0.311125905,82.9735875 10.9274724,78.455795 18.4713868,75.8830809 Z" id="Rectangle-83" fill="#A3A3A3" sketch:type="MSShapeGroup" mask="url(#mask-42)"></path>
                            <path d="M97.0101118,2.15995204 L113.157019,2.15995204 L113.157019,68.0384894 L95.6221739,69.1406134 L97.0101118,2.15995204 Z" id="Rectangle-96" fill-opacity="0.5" fill="#DBE6DB" sketch:type="MSShapeGroup" mask="url(#mask-42)"></path>
                        </g>
                        <g id="RightWing" transform="translate(170.874941, 112.198441) scale(-1, 1) translate(-170.874941, -112.198441) translate(113.874941, 70.198441)">
                            <g id="Group-5" transform="translate(63.718585, 17.279616)">
                                <mask id="mask-44" sketch:name="Mask" fill="white">
                                    <use xlink:href="#path-43"></use>
                                </mask>
                                <use id="Mask" fill="#09CA5B" sketch:type="MSShapeGroup" xlink:href="#path-43"></use>
                                <rect id="Rectangle-85" fill="#EBEBEB" sketch:type="MSShapeGroup" mask="url(#mask-44)" x="-3.23992807" y="-10.7997602" width="25.9194245" height="14.0396883"></rect>
                                <path d="M-36.6031717,45.051031 L21.9855275,64.3967343 L23.8754855,33.6775335 L-38.8791368,-2.15995204 L-36.6031717,45.051031 Z" id="Path-1103" fill="#AEB9AE" sketch:type="MSShapeGroup" mask="url(#mask-44)">
                                    <g transform="translate(-7.501826, 31.118391) scale(-1, 1) translate(7.501826, -31.118391) "></g>
                                </path>
                                <mask id="mask-46" sketch:name="Mask" fill="white">
                                    <use xlink:href="#path-45"></use>
                                </mask>
                                <use id="Mask" fill="#09CA5B" sketch:type="MSShapeGroup" xlink:href="#path-45"></use>
                                <rect id="Rectangle-85" fill="#EBEBEB" sketch:type="MSShapeGroup" mask="url(#mask-46)" x="-35.6392087" y="2.15995204" width="25.9194245" height="14.0396883"></rect>
                                <path d="M-36.6031717,46.131007 L21.9855275,65.4767103 L23.8754855,34.7575096 L-38.8791368,-1.07997602 L-36.6031717,46.131007 Z" id="Path-1103" fill="#AEB9AE" sketch:type="MSShapeGroup" mask="url(#mask-46)">
                                    <g transform="translate(-7.501826, 32.198367) scale(-1, 1) translate(7.501826, -32.198367) "></g>
                                </path>
                            </g>
                            <mask id="mask-48" sketch:name="Mask" fill="white">
                                <use xlink:href="#path-47"></use>
                            </mask>
                            <use id="Mask" fill="#F9F9F9" sketch:type="MSShapeGroup" xlink:href="#path-47"></use>
                            <path d="M8.54617491,73.2967467 C12.0911327,70.3858394 14.8192256,69.000114 19.4986296,66.8456643 C30.1038537,61.9629013 60.8196672,47.6930927 81.7997464,40.5022648 C93.7057961,36.4215198 102.597722,36.9628122 102.597722,36.9628122 L102.597722,82.9735875 L0.311125905,82.9735875 C0.311125905,82.9735875 5.00121709,76.207654 8.54617491,73.2967467 Z" id="Rectangle-83" fill="#08CA5B" sketch:type="MSShapeGroup" mask="url(#mask-48)"></path>
                            <path d="M18.4713868,75.8830809 C39.0729412,68.8572972 77.463495,55.2227387 84.3109016,54.2160619 C91.1583081,53.209385 102.597722,53.3575653 102.597722,53.3575653 L102.597722,82.9735875 L0.311125905,82.9735875 C0.311125905,82.9735875 10.9274724,78.455795 18.4713868,75.8830809 Z" id="Rectangle-83" fill="#A3A3A3" sketch:type="MSShapeGroup" mask="url(#mask-48)"></path>
                            <path d="M90.7707191,2.15995204 L106.917626,2.15995204 L106.917626,68.0384894 L86.6385452,68.0384894 L90.7707191,2.15995204 Z" id="Rectangle-96" fill="#BAC7BA" sketch:type="MSShapeGroup" mask="url(#mask-48)"></path>
                        </g>
                        <g id="Body" transform="translate(96.349218, 0.000000)">
                            <g id="Group-7" transform="translate(16.699746, 104.380692) scale(-1, 1) translate(-16.699746, -104.380692) translate(0.151587, 0.000000)">
                                <mask id="mask-50" sketch:name="Mask" fill="white">
                                    <use xlink:href="#path-49"></use>
                                </mask>
                                <use id="Mask" fill="#FAFAFA" sketch:type="MSShapeGroup" xlink:href="#path-49"></use>
                                <path d="M32.4974789,178.719157 C32.4974789,178.719157 23.5834581,173.579779 18.858563,160.286266 C14.1336679,146.992752 16.9229907,107.289659 16.9229907,107.289659 C16.9229907,107.289659 17.6126577,115.926589 18.8585631,123.855531 C19.7549212,129.559954 21.1150606,134.731234 21.8886128,136.837919 C23.9077277,142.336759 27.030943,147.160694 28.2234526,149.391849 C30.0437082,152.797501 32.4974797,154.338487 32.4974797,154.338487 L32.4974789,178.719157 Z" id="Path-1094" fill="#09CA5B" sketch:type="MSShapeGroup" mask="url(#mask-50)">
                                    <g transform="translate(24.301395, 143.004408) scale(-1, 1) translate(-24.301395, -143.004408) "></g>
                                </path>
                                <path d="M32.2290363,196.536652 C32.2290363,196.536652 26.7397453,190.721462 22.7381142,183.083884 C22.0834123,181.83431 17.8479272,173.548864 17.0213074,164.343558 C14.997191,141.802829 16.6231717,123.507229 16.6231717,123.507229 C16.6231717,123.507229 19.8516853,150.361705 22.7381145,158.238635 C26.7504671,169.188158 32.2290366,174.52634 32.2290366,174.52634 L32.2290363,196.536652 Z" id="Path-1094" fill="#09A25B" sketch:type="MSShapeGroup" mask="url(#mask-50)">
                                    <g transform="translate(24.117250, 160.021940) scale(-1, 1) translate(-24.117250, -160.021940) "></g>
                                </path>
                                <path d="M16.2913961,178.719157 C16.2913961,178.719157 7.37737537,173.579779 2.65248027,160.286266 C-2.07241483,146.992752 0.716907913,107.289659 0.716907913,107.289659 C0.716907913,107.289659 1.40657493,115.926589 2.65248036,123.855531 C3.54883845,129.559954 4.90897786,134.731234 5.68253002,136.837919 C7.7016449,142.336759 10.8248602,147.160694 12.0173698,149.391849 C13.8376255,152.797501 16.2913969,154.338487 16.2913969,154.338487 L16.2913961,178.719157 Z" id="Path-1094" fill="#09CA5B" sketch:type="MSShapeGroup" mask="url(#mask-50)"></path>
                                <path d="M16.4390493,196.536652 C16.4390493,196.536652 10.9497582,190.721462 6.94812716,183.083884 C6.29342517,181.83431 2.05794008,173.548864 1.23132035,164.343558 C-0.792796125,141.802829 0.833184629,123.507229 0.833184629,123.507229 C0.833184629,123.507229 4.06169823,150.361705 6.94812741,158.238635 C10.96048,169.188158 16.4390495,174.52634 16.4390495,174.52634 L16.4390493,196.536652 Z" id="Path-1094" fill="#09A25B" sketch:type="MSShapeGroup" mask="url(#mask-50)"></path>
                                <path d="M9.53165648,184.88407 C8.68079156,180.69036 7.96575438,176.218029 7.55983216,171.716188 C6.22286153,156.888642 6.23324127,150.858292 6.07908378,132.364561 C5.82350051,101.703136 6.07908378,57.012996 6.07908378,29.9798813 C6.07908378,29.2518089 5.97500501,22.5004557 6.94707232,17.4858032 C7.73612888,13.4152574 8.6155509,11.0660629 9.71609288,8.576001 C12.8234751,1.54530676 16.1996403,0 16.1996403,0 L-1.07997602,0 L-1.07997602,208.435372 L15.027735,208.435372 L16.1996403,215.995204 L16.1996403,173.87614 C16.1996403,173.87614 12.5354538,180.840461 11.1129954,183.121589 C10.7183338,183.754488 10.1452065,184.353378 9.53165648,184.88407 Z M14.0068011,202.035702 C14.0256642,202.095165 14.0444531,202.15428 14.0631658,202.213043 L14.035997,202.03778 C14.035997,202.03778 14.0259706,202.037462 14.0068011,202.035702 Z" id="Rectangle-95" fill-opacity="0.8" fill="#D0D7D0" sketch:type="MSShapeGroup" mask="url(#mask-50)"></path>
                            </g>
                        </g>
                        <g id="Back" transform="translate(111.237530, 173.876140)" sketch:type="MSShapeGroup">
                            <path d="M0,29.1593526 C0.0814728005,18.6339756 1.07997602,0 2.15995204,0 L2.15995204,42.1190649 C2.15995204,42.1190649 0.0814728005,39.5476233 0,29.1593526 Z" id="Rectangle-98" fill="#F9F9F9"></path>
                            <path d="M2.15995204,29.1593526 C2.24142485,18.6339756 3.23992807,0 4.31990409,0 L4.31990409,42.1190649 C4.31990409,42.1190649 2.24142485,39.5476233 2.15995204,29.1593526 Z" id="Rectangle-98" fill="#D3D9D3" transform="translate(3.239928, 21.059532) scale(-1, 1) translate(-3.239928, -21.059532) "></path>
                        </g>
                        <g id="Windows" transform="translate(102.597722, 5.399880)" sketch:type="MSShapeGroup">
                            <path d="M10.7426406,7.47581477 C15.0575988,7.43707035 18.9450036,9.49357812 21.5995204,12.7673659 C20.5340088,7.29179801 16.0367792,3.1932006 10.6982625,3.24033042 C5.36812418,3.2883864 0.950416561,7.46609851 5.04485342e-13,12.9597123 C2.58327213,9.63825157 6.4282363,7.51366989 10.7426406,7.47581477" id="Fill-115" fill="#A2C3AF"></path>
                            <rect id="Rectangle-87" fill="#F9F9F9" x="4.31990409" y="1.07997602" width="1.07997602" height="9.7197842"></rect>
                            <rect id="Rectangle-87-Copy" fill="#F9F9F9" x="16.1996403" y="4.31990409" width="1.07997602" height="6.47985613"></rect>
                            <rect id="Rectangle-87-Copy-2" fill="#F9F9F9" x="10.2597722" y="0" width="1.07997602" height="9.7197842"></rect>
                        </g>
                    </g>
                </g>
            </g>
            <g id="Construction" sketch:type="MSLayerGroup" mask="url(#mask-26)">
                <g transform="translate(0.000000, 445.000000)">
                    <mask id="mask-52" sketch:name="Mask" fill="white">
                        <use xlink:href="#path-51"></use>
                    </mask>
                    <use id="Mask" stroke="none" fill="#2A2A2A" fill-rule="evenodd" sketch:type="MSShapeGroup" xlink:href="#path-51"></use>
                    <path d="M504.829842,-21.9699691 L527.36457,0.564759265 L470.564759,57.3645702 L448.030031,34.8298418 L504.829842,-21.9699691 Z M420.262317,-21.9699691 L442.797045,0.564759265 L385.997234,57.3645702 L363.462506,34.8298418 L420.262317,-21.9699691 Z M337.641153,-21.9699691 L360.175882,0.564759265 L303.376071,57.3645702 L280.841342,34.8298418 L337.641153,-21.9699691 Z M255.01999,-21.9699691 L277.554718,0.564759265 L220.754907,57.3645702 L198.220179,34.8298418 L255.01999,-21.9699691 Z M89.4209745,-21.8566879 L111.955703,0.678040515 L55.155892,57.4778515 L32.6211636,34.9431231 L89.4209745,-21.8566879 Z M172.398826,-21.9699691 L194.933554,0.564759265 L138.133743,57.3645702 L115.599015,34.8298418 L172.398826,-21.9699691 Z M6.44312306,-21.8566879 L28.9778515,0.678040515 L-27.8219595,57.4778515 L-50.3566879,34.9431231 L6.44312306,-21.8566879 Z" id="Rectangle-22" stroke="none" fill="#FFD54F" fill-rule="evenodd" sketch:type="MSShapeGroup" mask="url(#mask-52)"></path>
                </g>
            </g>
        </g>
    </g>
</svg>