<?xml version="1.0" encoding="UTF-8" standalone="no"?>
<svg width="520px" height="480px" viewBox="0 0 520 480" version="1.1" xmlns="http://www.w3.org/2000/svg" xmlns:xlink="http://www.w3.org/1999/xlink" xmlns:sketch="http://www.bohemiancoding.com/sketch/ns">
    <!-- Generator: Sketch 3.5.2 (25235) - http://www.bohemiancoding.com/sketch -->
    <title>proj_home</title>
    <desc>Created with Sketch.</desc>
    <defs>
        <linearGradient x1="26.178941%" y1="6.03530128%" x2="84.4856969%" y2="87.0225198%" id="linearGradient-1">
            <stop stop-color="#FFFFFF" stop-opacity="0.836447011" offset="0%"></stop>
            <stop stop-color="#5B5B5B" stop-opacity="0.682263361" offset="45.0294962%"></stop>
            <stop stop-color="#000000" stop-opacity="0.748980978" offset="100%"></stop>
        </linearGradient>
        <linearGradient x1="17.9245283%" y1="11.2659769%" x2="83.8174072%" y2="87.1418138%" id="linearGradient-2">
            <stop stop-color="#9D4837" stop-opacity="0.7" offset="0%"></stop>
            <stop stop-color="#963333" stop-opacity="0.7" offset="100%"></stop>
        </linearGradient>
        <filter x="-50%" y="-50%" width="200%" height="200%" filterUnits="objectBoundingBox" id="filter-3">
            <feMorphology radius="3" in="SourceAlpha" operator="dilate" result="shadowSpreadOuter1"></feMorphology>
            <feOffset dx="0" dy="4" in="shadowSpreadOuter1" result="shadowOffsetOuter1"></feOffset>
            <feGaussianBlur stdDeviation="8" in="shadowOffsetOuter1" result="shadowBlurOuter1"></feGaussianBlur>
            <feColorMatrix values="0 0 0 0 0   0 0 0 0 0   0 0 0 0 0  0 0 0 0.14 0" in="shadowBlurOuter1" type="matrix" result="shadowMatrixOuter1"></feColorMatrix>
            <feMerge>
                <feMergeNode in="shadowMatrixOuter1"></feMergeNode>
                <feMergeNode in="SourceGraphic"></feMergeNode>
            </feMerge>
        </filter>
        <circle id="path-4" cx="260.449219" cy="240.449219" r="160.449219"></circle>
    </defs>
    <g id="Page-1" stroke="none" stroke-width="1" fill="none" fill-rule="evenodd" sketch:type="MSPage">
        <g id="proj_home" sketch:type="MSArtboardGroup">
            <rect id="Rectangle-73" fill="#9D887E" sketch:type="MSShapeGroup" x="1" y="1" width="520" height="480"></rect>
            <mask id="mask-5" sketch:name="Mask" fill="white">
                <use xlink:href="#path-4"></use>
            </mask>
            <g id="Mask" filter="url(#filter-3)">
                <use stroke="none" fill="#F5F5F5" fill-rule="evenodd" sketch:type="MSShapeGroup" xlink:href="#path-4"></use>
                <use stroke="none" fill-opacity="0.1" fill="url(#linearGradient-1)" fill-rule="evenodd" xlink:href="#path-4"></use>
                <use stroke="url(#linearGradient-2)" stroke-width="3" fill="none" xlink:href="#path-4"></use>
            </g>
            <g id="Group" sketch:type="MSLayerGroup" mask="url(#mask-5)">
                <g transform="translate(259.972655, 239.972655) rotate(-315.000000) translate(-259.972655, -239.972655) translate(78.972655, 58.972655)" id="Rectangle-76" sketch:type="MSShapeGroup">
                    <path d="M131,231 L136,235 L155,228.135282 L155,362 L206,362 L206,227.773981 L226,235 L231,231 L181,181 L131,231 Z" fill="#4CAF50"></path>
                    <path d="M131,131 L127,136 L133.864718,155 L4.8316906e-13,155 L4.8316906e-13,206 L134.226019,206 L127,226 L131,231 L181,181 L131,131 Z" fill="#FFCA28"></path>
                    <path d="M231,131 L226,127 L207,133.864718 L207,-2.84217094e-14 L156,-2.84217094e-14 L156,134.226019 L136,127 L131,131 L181,181 L231,131 Z" fill="#F44336"></path>
                    <path d="M231,231 L235,226 L228.135282,207 L362,207 L362,156 L227.773981,156 L235,136 L231,131 L181,181 L231,231 Z" fill="#2196F3"></path>
                </g>
            </g>
        </g>
    </g>
</svg>