<svg width="480" height="640" viewBox="0 0 480 640" fill="none" xmlns="http://www.w3.org/2000/svg">
<g clip-path="url(#clip0)">
<rect width="480" height="640" rx="32" fill="#189095"/>
<g filter="url(#filter0_d)">
<path fill-rule="evenodd" clip-rule="evenodd" d="M428.453 186.176C421.661 199.249 408.792 209.05 393.28 212.367C381.114 240.241 351.836 259.885 317.652 259.885C272.557 259.885 236 225.701 236 183.533C236 162.612 244.998 143.656 259.573 129.865C264.529 89.8246 300.914 58.7398 345.063 58.7398C351.834 58.7398 358.422 59.471 364.743 60.8535C381.854 56.8618 479.435 29.218 479.435 29.218L579 144.762C579 144.762 499.805 163.642 472.599 169.802C452.919 174.257 436.591 181.754 428.453 186.176Z" fill="#B8E986"/>
<path fill-rule="evenodd" clip-rule="evenodd" d="M428.453 186.176C421.661 199.249 408.792 209.05 393.28 212.367C381.114 240.241 351.836 259.885 317.652 259.885C272.557 259.885 236 225.701 236 183.533C236 162.612 244.998 143.656 259.573 129.865C264.529 89.8246 300.914 58.7398 345.063 58.7398C351.834 58.7398 358.422 59.471 364.743 60.8535C381.854 56.8618 479.435 29.218 479.435 29.218L579 144.762C579 144.762 499.805 163.642 472.599 169.802C452.919 174.257 436.591 181.754 428.453 186.176Z" fill="url(#paint0_linear)"/>
</g>
<mask id="mask0" mask-type="alpha" maskUnits="userSpaceOnUse" x="236" y="29" width="343" height="231">
<path fill-rule="evenodd" clip-rule="evenodd" d="M428.453 186.176C421.661 199.249 408.792 209.05 393.28 212.367C381.114 240.241 351.836 259.885 317.652 259.885C272.557 259.885 236 225.701 236 183.533C236 162.612 244.998 143.656 259.573 129.865C264.529 89.8246 300.914 58.7398 345.063 58.7398C351.834 58.7398 358.422 59.471 364.743 60.8535C381.854 56.8618 479.435 29.218 479.435 29.218L579 144.762C579 144.762 499.805 163.642 472.599 169.802C452.919 174.257 436.591 181.754 428.453 186.176Z" fill="white"/>
</mask>
<g mask="url(#mask0)">
<path fill-rule="evenodd" clip-rule="evenodd" d="M503.38 148.609C503.38 148.609 469.856 149.646 448.707 157.209C427.558 164.772 414.689 171.253 407.588 184.913C400.487 198.574 394.033 213.366 394.033 213.366C394.033 213.366 436.9 201.211 456.507 192.578C469.508 186.854 491.859 170.296 491.859 170.296L503.38 148.609Z" fill="#EECD50"/>
<path fill-rule="evenodd" clip-rule="evenodd" d="M352.282 154.148C354.022 154.148 355.433 149.164 355.433 143.016C355.433 136.869 354.022 131.885 352.282 131.885C350.541 131.885 349.131 136.869 349.131 143.016C349.131 149.164 350.541 154.148 352.282 154.148Z" fill="#505050"/>
<path fill-rule="evenodd" clip-rule="evenodd" d="M281.887 142.317C283.445 142.317 284.708 137.929 284.708 132.517C284.708 127.105 283.445 122.718 281.887 122.718C280.329 122.718 279.066 127.105 279.066 132.517C279.066 137.929 280.329 142.317 281.887 142.317Z" fill="#505050"/>
<path d="M318.32 251.712C338.996 251.712 362.975 252.173 381.575 212.621" stroke="#6F6F6F" stroke-width="2"/>
</g>
<path fill-rule="evenodd" clip-rule="evenodd" d="M444.738 5.0504C441.731 6.00269 431.149 13.5747 427.095 22.0811C423.713 29.1775 422.317 37.0352 421.749 42.7593C421.602 42.1626 421.445 41.6108 421.28 41.1403C421.102 40.6336 420.912 39.7372 420.667 38.5829C419.873 34.8327 418.501 28.3592 415.083 23.6728C410.062 16.7884 401.325 15.7564 397.131 16.8623C387.231 19.4735 380.142 25.8862 375.834 32.3291C372.721 36.9842 371.27 44.522 370.599 51.0178L370.587 50.9517C370.104 48.3171 368.599 40.1007 364.182 34.4504C362.116 31.8072 355.733 27.2833 348.88 28.5211C340.303 30.0704 330.953 38.3417 328.021 44.239C321.325 57.704 320.9 78.3594 320.9 78.3594C320.9 78.3594 340.597 66.6137 348.88 65.3333C357.164 64.0528 370.75 63.6414 370.75 63.6414C370.75 63.6414 370.769 63.4727 370.798 63.1739C374.664 61.5465 392.45 54.1419 398.882 52.9208C404.726 51.8111 416.911 50.9852 421.375 50.7089C421.377 50.8693 421.38 50.953 421.38 50.953C421.38 50.953 421.629 50.8504 422.088 50.6654C422.71 50.628 423.06 50.6086 423.06 50.6086C423.06 50.6086 423.048 50.4948 423.023 50.2904C427.814 48.3826 442.038 42.893 451.677 41.0041C463.422 38.7026 477.311 38.6713 477.311 38.6713C477.311 38.6713 475.703 22.3917 468.184 13.0862C461.636 4.9833 449.443 3.56064 444.738 5.0504Z" fill="#34491C"/>
<path fill-rule="evenodd" clip-rule="evenodd" d="M444.738 5.0504C441.731 6.00269 431.149 13.5747 427.095 22.0811C423.713 29.1775 422.317 37.0352 421.749 42.7593C421.602 42.1626 421.445 41.6108 421.28 41.1403C421.102 40.6336 420.912 39.7372 420.667 38.5829C419.873 34.8327 418.501 28.3592 415.083 23.6728C410.062 16.7884 401.325 15.7564 397.131 16.8623C387.231 19.4735 380.142 25.8862 375.834 32.3291C372.721 36.9842 371.27 44.522 370.599 51.0178L370.587 50.9517C370.104 48.3171 368.599 40.1007 364.182 34.4504C362.116 31.8072 355.733 27.2833 348.88 28.5211C340.303 30.0704 330.953 38.3417 328.021 44.239C321.325 57.704 320.9 78.3594 320.9 78.3594C320.9 78.3594 340.597 66.6137 348.88 65.3333C357.164 64.0528 370.75 63.6414 370.75 63.6414C370.75 63.6414 370.769 63.4727 370.798 63.1739C374.664 61.5465 392.45 54.1419 398.882 52.9208C404.726 51.8111 416.911 50.9852 421.375 50.7089C421.377 50.8693 421.38 50.953 421.38 50.953C421.38 50.953 421.629 50.8504 422.088 50.6654C422.71 50.628 423.06 50.6086 423.06 50.6086C423.06 50.6086 423.048 50.4948 423.023 50.2904C427.814 48.3826 442.038 42.893 451.677 41.0041C463.422 38.7026 477.311 38.6713 477.311 38.6713C477.311 38.6713 475.703 22.3917 468.184 13.0862C461.636 4.9833 449.443 3.56064 444.738 5.0504Z" fill="url(#paint1_linear)" fill-opacity="0.7" style="mix-blend-mode:overlay"/>
<path d="M356.69 115.743C366.787 115.743 367.98 124.007 367.98 124.007" stroke="#3A512F" stroke-width="2"/>
<path d="M283.66 109.158C276.505 109.158 275.66 115.014 275.66 115.014" stroke="#3A512F" stroke-width="2"/>
<path fill-rule="evenodd" clip-rule="evenodd" d="M270.836 202.93C270.836 202.93 270.146 208.51 274.189 208.096C278.233 207.683 270.836 202.93 270.836 202.93Z" fill="#656565"/>
<path fill-rule="evenodd" clip-rule="evenodd" d="M294.867 205.693C294.867 205.693 294.481 211.302 290.59 210.124C286.7 208.947 294.867 205.693 294.867 205.693Z" fill="#656565"/>
<g filter="url(#filter1_d)">
<path fill-rule="evenodd" clip-rule="evenodd" d="M1.33201 586.701C3.791 541.465 48.501 489.909 90.3777 477.549C132.254 465.19 163.613 477.937 161.496 484.305C159.38 490.673 121.847 491.479 100.91 522.46C87.4903 542.317 83.7843 557.899 87.456 583.809C91.1277 609.72 114.627 638.881 114.627 638.881C114.627 638.881 8.17967 640.297 8.17967 635.416C8.17967 633.437 -1.12697 631.937 1.33201 586.701Z" fill="#7ACB55"/>
<path fill-rule="evenodd" clip-rule="evenodd" d="M1.33201 586.701C3.791 541.465 48.501 489.909 90.3777 477.549C132.254 465.19 163.613 477.937 161.496 484.305C159.38 490.673 121.847 491.479 100.91 522.46C87.4903 542.317 83.7843 557.899 87.456 583.809C91.1277 609.72 114.627 638.881 114.627 638.881C114.627 638.881 8.17967 640.297 8.17967 635.416C8.17967 633.437 -1.12697 631.937 1.33201 586.701Z" fill="url(#paint2_linear)"/>
</g>
<path fill-rule="evenodd" clip-rule="evenodd" d="M145.633 503.486C156.027 498.371 153.343 487.199 153.343 487.199C153.343 487.199 145.633 484.933 137.919 488.044C131.975 490.441 127.977 495.276 126.455 497.368C124.234 497.438 116.622 498.04 110.149 502.91C103.472 507.935 100.493 515.686 99.8332 517.61C96.668 519.347 92.216 522.448 89.0252 527.354C85.2378 533.178 84.3577 539.856 84.1756 543.431C83.2938 544.483 77.2822 552.005 76.7469 562.084C76.3816 568.964 78.6907 575.196 80.4383 578.85C79.9997 580.499 77.3374 591.594 81.8132 602.694C86.6641 614.725 97.9188 621.643 97.9188 621.643C97.9188 621.643 113.874 606.873 105.896 590.664C101.766 582.271 95.104 579.346 89.6388 578.476C94.3395 575.268 99.5264 569.824 99.3509 561.475C99.186 553.634 95.1664 549.044 91.3208 546.439C96.6219 546.122 103.558 544.249 107.377 537.301C110.968 530.768 109.701 525.105 107.729 521.236C112.394 522.285 118.325 522.234 123.363 517.822C130.112 511.914 129.485 504.724 128.341 500.632C131.852 503.307 138.527 506.983 145.633 503.486Z" fill="#406328"/>
<path fill-rule="evenodd" clip-rule="evenodd" d="M145.633 503.486C156.027 498.371 153.343 487.199 153.343 487.199C153.343 487.199 145.633 484.933 137.919 488.044C131.975 490.441 127.977 495.276 126.455 497.368C124.234 497.438 116.622 498.04 110.149 502.91C103.472 507.935 100.493 515.686 99.8332 517.61C96.668 519.347 92.216 522.448 89.0252 527.354C85.2378 533.178 84.3577 539.856 84.1756 543.431C83.2938 544.483 77.2822 552.005 76.7469 562.084C76.3816 568.964 78.6907 575.196 80.4383 578.85C79.9997 580.499 77.3374 591.594 81.8132 602.694C86.6641 614.725 97.9188 621.643 97.9188 621.643C97.9188 621.643 113.874 606.873 105.896 590.664C101.766 582.271 95.104 579.346 89.6388 578.476C94.3395 575.268 99.5264 569.824 99.3509 561.475C99.186 553.634 95.1664 549.044 91.3208 546.439C96.6219 546.122 103.558 544.249 107.377 537.301C110.968 530.768 109.701 525.105 107.729 521.236C112.394 522.285 118.325 522.234 123.363 517.822C130.112 511.914 129.485 504.724 128.341 500.632C131.852 503.307 138.527 506.983 145.633 503.486Z" fill="url(#paint3_linear)" fill-opacity="0.7" style="mix-blend-mode:overlay"/>
<path fill-rule="evenodd" clip-rule="evenodd" d="M129.396 374.774C130.323 374.52 131.239 374.309 132.139 374.126C133.022 373.95 133.673 373.85 134.051 373.845C134.21 373.836 134.408 373.871 134.504 374.459C134.599 375.031 134.492 376.207 134.137 378.025C132.347 387.218 130.89 394.845 129.765 400.893C128.633 406.944 127.713 411.717 127.009 415.196C126.836 416.137 126.64 416.8 126.438 417.194C126.232 417.593 125.978 417.875 125.651 418.067C125.147 418.328 124.244 418.605 122.907 418.909C121.725 419.17 120.53 419.346 119.313 419.429C119.971 416.332 120.757 412.534 121.678 408.031C122.651 403.303 123.561 398.564 124.427 393.807C126.312 383.462 127.348 377.319 127.531 375.358C127.983 375.179 128.608 374.987 129.396 374.774" fill="white"/>
<path fill-rule="evenodd" clip-rule="evenodd" d="M134.658 351.712C135.342 351.662 136.088 351.866 136.896 352.371C137.58 352.806 138.037 353.804 138.107 355.576C138.031 357.34 137.487 358.555 136.537 359.333C135.529 360.154 134.544 360.539 133.606 360.524C132.667 360.548 131.858 360.277 131.186 359.717C130.565 359.195 130.183 358.27 130.152 356.812C130.249 354.749 130.836 353.451 131.803 352.76C132.874 351.993 133.783 351.672 134.538 351.712H134.658" fill="white"/>
<path fill-rule="evenodd" clip-rule="evenodd" d="M171.128 379.022C174.007 379.026 176.346 380.053 178.194 382.259C177.565 385.387 176.93 388.525 176.103 391.613L175.127 395.111C174.526 396.316 173.506 397.937 172.093 399.935C169.191 404.033 165.421 408.393 161.326 411.345C159.331 412.786 157.434 413.547 155.652 413.616C152.046 413.547 151.555 409.547 151.57 406.818C151.658 401.543 152.745 396.819 154.839 392.649C156.938 388.485 159.474 385.189 162.468 382.756C165.458 380.332 168.347 379.071 171.128 379.022V379.022ZM172.375 373.868C173.801 373.879 175.1 374.104 176.278 374.54C177.476 374.976 178.391 375.524 179.04 376.182C179.288 376.426 179.57 376.341 179.652 376.005C180.088 374.055 180.622 371.432 181.248 368.152C181.877 364.862 182.472 361.639 183.031 358.467C183.564 355.442 183.953 353.121 184.178 351.507C184.994 351.256 186.064 351.005 187.383 350.75C188.81 350.468 189.961 350.322 190.815 350.298C190.949 350.288 191.146 350.322 191.234 350.902C191.322 351.477 191.191 352.628 190.818 354.417C190.135 357.904 189.238 362.298 188.144 367.602L184.694 384.218C183.498 389.996 182.418 395.338 181.464 400.243C180.498 405.151 179.82 408.944 179.425 411.632C179.33 412.094 179.308 412.505 179.413 412.829C179.545 413.197 179.854 413.416 180.245 413.436C180.8 413.41 181.612 413.044 182.601 412.445C183.529 411.873 184.483 411.175 185.46 410.333C185.731 410.733 185.903 411.324 185.939 412.145C186.011 413.449 185.487 414.653 184.281 415.784C182.603 417.243 180.915 418.282 179.197 418.929C177.459 419.586 175.986 419.891 174.776 419.885C173.733 419.922 172.985 419.555 172.494 418.8C172.005 418.051 171.874 416.598 172.238 414.288C172.572 412.454 172.901 410.794 173.223 409.308C173.535 407.818 173.867 406.394 174.204 405.023C174.321 404.564 173.834 404.341 173.562 404.734C170.569 409.035 167.755 412.273 165.125 414.458C162.474 416.649 160.08 418.111 157.939 418.849C155.76 419.598 153.903 419.939 152.369 419.885C149.925 419.859 147.903 418.857 146.309 416.838C144.721 414.829 143.865 411.939 143.811 408.109C143.902 402.127 145.325 396.564 148.074 391.391C150.821 386.214 154.352 382.018 158.659 378.807C162.963 375.605 167.472 373.962 172.215 373.868H172.375V373.868Z" fill="white"/>
<path fill-rule="evenodd" clip-rule="evenodd" d="M326.118 373.905C329.203 373.865 330.744 375.487 330.747 379.023C330.722 380.719 330.352 383.23 329.62 386.576C328.89 389.935 327.982 393.818 326.902 398.231C325.831 402.649 324.757 407.309 323.7 412.22C323.533 412.873 323.854 413.338 324.507 413.49C325.148 413.484 325.945 413.143 326.933 412.568C327.871 412.025 328.834 411.309 329.828 410.425C330.073 410.821 330.22 411.396 330.235 412.197C330.254 412.82 330.17 413.407 329.984 413.977C329.801 414.509 329.414 415.077 328.765 415.693C327.173 417.102 325.467 418.156 323.64 418.86C321.801 419.577 320.226 419.922 318.933 419.922C316.178 420.017 315.177 418.309 316.46 413.946C316.895 412.14 317.553 409.466 318.433 405.96C319.309 402.451 320.203 398.749 321.099 394.86C322.002 390.971 322.701 387.554 323.194 384.613C323.703 381.935 323.321 380.062 321.34 380.196C319.539 380.275 317.497 381.289 315.218 383.143C312.945 384.99 310.663 387.256 308.39 389.93C306.111 392.603 304.109 395.225 302.394 397.792C300.67 400.359 299.489 402.451 298.881 404.013L297.307 410.566L296.355 414.587C296.128 415.781 295.883 416.631 295.625 417.156C295.37 417.671 295.033 418.045 294.628 418.282C294.211 418.558 293.416 418.831 292.207 419.076C291.123 419.293 289.858 419.429 288.396 419.501C289.131 416.391 289.995 412.58 290.988 408.07C292.033 403.329 293.008 398.576 293.916 393.804C294.984 388.299 295.723 384.01 296.149 380.958C296.361 379.442 296.514 378.864 296.608 378.589L296.776 377.98C297.166 377.811 297.745 377.62 298.551 377.409C299.489 377.159 300.425 376.941 301.349 376.76C302.255 376.59 302.903 376.49 303.265 376.484C303.501 376.719 303.571 376.994 303.59 377.443L303.541 377.908C303.339 378.376 303.158 378.902 302.903 380.28C302.423 383.006 301.604 387.02 300.468 392.327C300.415 392.575 300.574 392.763 300.818 392.763C301.184 392.763 301.383 392.664 301.42 392.615C305.397 387.095 308.968 382.997 312.118 380.308C315.283 377.606 318.017 375.858 320.311 375.031C322.65 374.198 324.546 373.833 326 373.905H326.118" fill="white"/>
<path fill-rule="evenodd" clip-rule="evenodd" d="M265.031 379.106C266.973 379.172 268.898 379.485 270.396 380.645C270.018 381.719 269.679 383.065 269.411 384.14L268.138 389.358C267.687 391.236 267.25 392.937 266.859 394.426C263.717 400.147 258.9 406.434 253.721 410.468C251.3 412.349 249.098 413.344 247.131 413.41C244.538 413.344 243.324 411.414 243.394 407.872C243.415 400.498 247.016 392.773 251.483 387.064C254.004 384.002 256.414 381.888 258.72 380.742C261.006 379.596 263.105 379.046 265.031 379.106V379.106ZM265.888 373.871C267.725 373.905 269.184 374.1 270.274 374.453C271.41 374.812 272.2 375.133 272.661 375.399C274.231 375.125 275.233 374.896 275.945 374.761C276.541 374.645 277.399 374.508 278.498 374.35C278.141 375.518 277.66 377.291 277.062 379.651C276.364 382.403 275.61 385.607 274.795 389.271C273.977 392.931 273.213 396.687 272.49 400.544C271.764 404.4 271.192 407.991 270.775 411.33C270.691 411.915 270.684 412.402 270.775 412.763C270.867 413.143 271.126 413.461 271.578 413.467C272.215 413.437 273.04 413.087 274.009 412.468C274.895 411.911 275.812 411.22 276.76 410.386C276.845 410.544 276.926 410.742 276.993 410.991C277.116 411.421 277.182 411.867 277.182 412.313C277.204 412.933 277.116 413.556 276.936 414.194C276.76 414.773 276.331 415.394 275.61 416.04C274.344 417.234 272.877 418.165 271.211 418.846C269.536 419.526 267.953 419.871 266.477 419.879C265.548 419.919 264.839 419.555 264.327 418.74C263.82 417.944 263.686 416.37 264.036 413.898C264.269 412.274 264.517 410.749 264.785 409.328C265.05 407.909 265.372 406.466 265.751 405.001C265.874 404.546 265.392 404.325 265.116 404.702C261.781 409.286 258.73 412.657 255.966 414.83C253.186 417.017 250.742 418.407 248.64 419.035C246.493 419.67 244.724 419.948 243.356 419.879C241.313 419.903 239.554 419.076 238.087 417.366C236.633 415.669 235.837 412.949 235.768 409.128C235.756 406.856 236.17 404.159 237.016 401.031C237.865 397.902 239.22 394.668 241.086 391.32C242.946 387.988 245.387 384.85 248.42 381.915C252.227 378.414 255.621 376.188 258.59 375.202C261.612 374.192 264.014 373.758 265.78 373.871H265.888V373.871Z" fill="white"/>
<path fill-rule="evenodd" clip-rule="evenodd" d="M221.811 373.897C225.208 373.99 227.638 374.958 229.202 376.748C230.786 378.565 231.572 380.713 231.563 383.197C231.503 386.42 230.669 389.06 229.103 391.144C227.507 393.266 225.57 394.926 223.274 396.139C220.961 397.361 218.717 398.221 216.547 398.722C214.356 399.232 212.693 399.472 211.521 399.453C210.402 399.391 209.608 398.892 209.078 397.945C208.568 397.042 208.316 396.09 208.309 395.085C213.219 394.587 216.882 393.657 219.269 392.261C221.664 390.854 223.254 389.323 223.947 387.626C224.622 386.016 224.929 384.631 224.844 383.45C224.827 382.098 224.422 380.97 223.596 380.065C222.758 379.152 221.585 378.697 220.127 378.664C217.378 378.752 214.732 380.062 212.217 382.52C209.709 384.975 207.639 388.1 206.01 391.887C204.386 395.684 203.545 399.654 203.497 403.794C203.497 406.878 204.133 409.389 205.432 411.282C206.755 413.216 208.738 414.194 211.314 414.237C212.575 414.188 213.076 415.325 212.615 416.904C212.166 418.429 210.901 419.879 209.231 419.906C204.788 419.84 201.541 418.441 199.404 415.756C197.261 413.038 196.166 409.34 196.177 404.621C196.23 400.362 196.972 396.466 198.412 392.928C199.856 389.37 201.617 386.305 203.679 383.737C205.757 381.159 207.762 379.226 209.682 377.92C213.724 375.143 217.737 373.812 221.716 373.897H221.811" fill="white"/>
<path fill-rule="evenodd" clip-rule="evenodd" d="M355.704 310.152C355.704 310.152 356.091 309.496 356.888 309.448C357.449 309.418 357.734 309.657 358.051 309.912C358.289 310.1 369.934 320.964 369.934 320.964C369.934 320.964 370.538 321.612 370.273 322.387C370.068 322.957 369.787 323.183 369.405 323.35C369.018 323.52 347.07 330.052 347.07 330.052C347.07 330.052 346.227 330.274 345.636 329.578C344.911 328.743 345.509 327.818 345.509 327.818L355.704 310.152" fill="white"/>
<path fill-rule="evenodd" clip-rule="evenodd" d="M378.026 341.083C378.026 341.083 377.306 341.47 376.543 341.008C376.064 340.721 375.947 340.324 375.877 339.972C375.822 339.682 374.038 324.209 374.038 324.209C374.038 324.209 373.942 323.662 374.292 323.137C374.409 322.951 374.84 322.48 375.475 322.48C375.93 322.48 398.507 324.317 398.507 324.317C398.507 324.317 399.639 324.355 399.826 325.604C399.965 326.483 399.236 326.974 399.236 326.974L378.026 341.083" fill="white"/>
<path fill-rule="evenodd" clip-rule="evenodd" d="M342.241 333.995C342.241 333.995 342.931 333.461 343.763 333.949C344.381 334.314 344.475 334.789 344.525 335.147C344.565 335.442 345.637 350.756 345.637 350.756C345.637 350.756 345.705 351.316 345.331 351.813C345.203 351.99 344.748 352.442 344.107 352.406C343.657 352.386 322.804 350.106 322.804 350.106C322.804 350.106 321.653 350.021 321.53 348.757C321.441 347.893 322.208 347.384 322.208 347.384L342.241 333.995" fill="white"/>
<path fill-rule="evenodd" clip-rule="evenodd" d="M363.624 366.002C363.624 366.002 363.285 366.551 362.616 366.657C361.918 366.765 361.352 366.263 361.254 366.179C361.036 365.979 349.004 353.734 349.004 353.734C349.004 353.734 348.497 353.125 348.667 352.412C348.711 352.197 348.924 351.616 349.514 351.379C349.93 351.209 372.543 344.79 372.543 344.79C372.543 344.79 373.598 344.406 374.246 345.488C374.703 346.258 374.213 346.984 374.213 346.984L363.624 366.002" fill="white"/>
</g>
<defs>
<filter id="filter0_d" x="216" y="11.218" width="383" height="270.667" filterUnits="userSpaceOnUse" color-interpolation-filters="sRGB">
<feFlood flood-opacity="0" result="BackgroundImageFix"/>
<feColorMatrix in="SourceAlpha" type="matrix" values="0 0 0 0 0 0 0 0 0 0 0 0 0 0 0 0 0 0 127 0"/>
<feOffset dy="2"/>
<feGaussianBlur stdDeviation="10"/>
<feColorMatrix type="matrix" values="0 0 0 0 0 0 0 0 0 0.578205 0 0 0 0 0.029853 0 0 0 0.205022 0"/>
<feBlend mode="normal" in2="BackgroundImageFix" result="effect1_dropShadow"/>
<feBlend mode="normal" in="SourceGraphic" in2="effect1_dropShadow" result="shape"/>
</filter>
<filter id="filter1_d" x="-12.0817" y="459.354" width="186.679" height="192.718" filterUnits="userSpaceOnUse" color-interpolation-filters="sRGB">
<feFlood flood-opacity="0" result="BackgroundImageFix"/>
<feColorMatrix in="SourceAlpha" type="matrix" values="0 0 0 0 0 0 0 0 0 0 0 0 0 0 0 0 0 0 127 0"/>
<feOffset/>
<feGaussianBlur stdDeviation="6.5"/>
<feColorMatrix type="matrix" values="0 0 0 0 0 0 0 0 0 0 0 0 0 0 0 0 0 0 0.123896 0"/>
<feBlend mode="normal" in2="BackgroundImageFix" result="effect1_dropShadow"/>
<feBlend mode="normal" in="SourceGraphic" in2="effect1_dropShadow" result="shape"/>
</filter>
<linearGradient id="paint0_linear" x1="684.071" y1="188.148" x2="583.753" y2="-18.6866" gradientUnits="userSpaceOnUse">
<stop stop-color="#008A26" stop-opacity="0.748075"/>
<stop offset="1" stop-color="#2AA700" stop-opacity="0.212749"/>
</linearGradient>
<linearGradient id="paint1_linear" x1="339.049" y1="25.2494" x2="342.476" y2="82.6481" gradientUnits="userSpaceOnUse">
<stop stop-color="#DBB21F"/>
<stop offset="1" stop-color="#913400"/>
</linearGradient>
<linearGradient id="paint2_linear" x1="-33.6292" y1="534.429" x2="72.0318" y2="646.512" gradientUnits="userSpaceOnUse">
<stop stop-color="#71FF84" stop-opacity="0.481601"/>
<stop offset="1" stop-color="#008A26" stop-opacity="0.5"/>
</linearGradient>
<linearGradient id="paint3_linear" x1="140.98" y1="502.085" x2="75.8786" y2="492.944" gradientUnits="userSpaceOnUse">
<stop stop-color="#EBD273"/>
<stop offset="1" stop-color="#A86C4B"/>
</linearGradient>
<clipPath id="clip0">
<rect width="480" height="640" rx="32" fill="white"/>
</clipPath>
</defs>
</svg>
