<svg width="480" height="640" viewBox="0 0 480 640" fill="none" xmlns="http://www.w3.org/2000/svg">
<rect width="480" height="640" rx="32" fill="#4B5568"/>
<rect x="88" y="144" width="303.707" height="303.707" rx="25" fill="#4A90E2"/>
<g filter="url(#filter0_d)">
<path fill-rule="evenodd" clip-rule="evenodd" d="M113.414 216.423C113.414 212.005 116.996 208.423 121.414 208.423H359.414C363.832 208.423 367.414 212.005 367.414 216.423V307.96C362.237 308.187 358.122 311.808 358.122 316.242C358.122 320.676 362.237 324.297 367.414 324.524V415.188C367.414 419.606 363.832 423.188 359.414 423.188H121.414C116.996 423.188 113.414 419.606 113.414 415.188V324.524C118.592 324.297 122.707 320.676 122.707 316.242C122.707 311.808 118.592 308.187 113.414 307.96V216.423Z" fill="white"/>
</g>
<mask id="mask0" mask-type="alpha" maskUnits="userSpaceOnUse" x="113" y="208" width="255" height="216">
<path fill-rule="evenodd" clip-rule="evenodd" d="M113.414 216.423C113.414 212.005 116.996 208.423 121.414 208.423H359.414C363.832 208.423 367.414 212.005 367.414 216.423V307.96C362.237 308.187 358.122 311.808 358.122 316.242C358.122 320.676 362.237 324.297 367.414 324.524V415.188C367.414 419.606 363.832 423.188 359.414 423.188H121.414C116.996 423.188 113.414 419.606 113.414 415.188V324.524C118.592 324.297 122.707 320.676 122.707 316.242C122.707 311.808 118.592 308.187 113.414 307.96V216.423Z" fill="white"/>
</mask>
<g mask="url(#mask0)">
<rect x="100" y="183" width="278.76" height="133.414" fill="#F2F2F2"/>
<path fill-rule="evenodd" clip-rule="evenodd" d="M107 316L218.594 427.112L373.828 428.805L369.208 316H107Z" fill="#FBFBFB"/>
</g>
<path fill-rule="evenodd" clip-rule="evenodd" d="M237.8 368.568H163.135V355.832L199.285 316.402C202.336 313.047 204.865 310.06 206.874 307.441C208.882 304.823 210.484 302.433 211.679 300.272C212.873 298.111 213.712 296.09 214.195 294.209C214.678 292.328 214.92 290.447 214.92 288.565C214.92 286.023 214.551 283.672 213.814 281.511C213.077 279.35 212.009 277.482 210.611 275.905C209.213 274.329 207.497 273.096 205.463 272.206C203.429 271.317 201.09 270.872 198.446 270.872C195.243 270.872 192.46 271.38 190.095 272.397C187.731 273.414 185.774 274.825 184.223 276.63C182.672 278.435 181.503 280.596 180.715 283.112C179.927 285.629 179.533 288.387 179.533 291.387H161C161 286.506 161.826 281.918 163.479 277.621C165.131 273.325 167.559 269.575 170.762 266.372C173.965 263.169 177.906 260.64 182.583 258.784C187.261 256.928 192.599 256 198.599 256C204.141 256 209.073 256.725 213.395 258.174C217.716 259.623 221.364 261.669 224.339 264.313C227.313 266.957 229.576 270.173 231.126 273.961C232.677 277.748 233.452 281.956 233.452 286.583C233.452 290.04 232.893 293.459 231.775 296.84C230.656 300.221 229.105 303.59 227.122 306.945C225.139 310.301 222.775 313.67 220.03 317.051C217.284 320.432 214.284 323.826 211.03 327.232L186.244 353.773H237.8V368.568ZM302.092 368.568H283.635V279.414L256.408 288.718V273.084L299.727 257.144H302.092V368.568Z" fill="#1E88E5"/>
<mask id="mask1" mask-type="alpha" maskUnits="userSpaceOnUse" x="161" y="256" width="142" height="113">
<path fill-rule="evenodd" clip-rule="evenodd" d="M237.8 368.568H163.135V355.832L199.285 316.402C202.336 313.047 204.865 310.06 206.874 307.441C208.882 304.823 210.484 302.433 211.679 300.272C212.873 298.111 213.712 296.09 214.195 294.209C214.678 292.328 214.92 290.447 214.92 288.565C214.92 286.023 214.551 283.672 213.814 281.511C213.077 279.35 212.009 277.482 210.611 275.905C209.213 274.329 207.497 273.096 205.463 272.206C203.429 271.317 201.09 270.872 198.446 270.872C195.243 270.872 192.46 271.38 190.095 272.397C187.731 273.414 185.774 274.825 184.223 276.63C182.672 278.435 181.503 280.596 180.715 283.112C179.927 285.629 179.533 288.387 179.533 291.387H161C161 286.506 161.826 281.918 163.479 277.621C165.131 273.325 167.559 269.575 170.762 266.372C173.965 263.169 177.906 260.64 182.583 258.784C187.261 256.928 192.599 256 198.599 256C204.141 256 209.073 256.725 213.395 258.174C217.716 259.623 221.364 261.669 224.339 264.313C227.313 266.957 229.576 270.173 231.126 273.961C232.677 277.748 233.452 281.956 233.452 286.583C233.452 290.04 232.893 293.459 231.775 296.84C230.656 300.221 229.105 303.59 227.122 306.945C225.139 310.301 222.775 313.67 220.03 317.051C217.284 320.432 214.284 323.826 211.03 327.232L186.244 353.773H237.8V368.568ZM302.092 368.568H283.635V279.414L256.408 288.718V273.084L299.727 257.144H302.092V368.568Z" fill="white"/>
</mask>
<g mask="url(#mask1)">
<rect x="107" y="203" width="267.913" height="112.805" fill="#0870CB"/>
</g>
<g filter="url(#filter1_d)">
<path fill-rule="evenodd" clip-rule="evenodd" d="M159.677 182.355C164.47 182.355 168.355 178.47 168.355 173.677C168.355 168.885 164.47 165 159.677 165C154.885 165 151 168.885 151 173.677C151 178.47 154.885 182.355 159.677 182.355Z" fill="white"/>
</g>
<g filter="url(#filter2_d)">
<path fill-rule="evenodd" clip-rule="evenodd" d="M320.677 182.355C325.47 182.355 329.355 178.47 329.355 173.677C329.355 168.885 325.47 165 320.677 165C315.885 165 312 168.885 312 173.677C312 178.47 315.885 182.355 320.677 182.355Z" fill="white"/>
</g>
<defs>
<filter id="filter0_d" x="109.414" y="206.423" width="262" height="222.764" filterUnits="userSpaceOnUse" color-interpolation-filters="sRGB">
<feFlood flood-opacity="0" result="BackgroundImageFix"/>
<feColorMatrix in="SourceAlpha" type="matrix" values="0 0 0 0 0 0 0 0 0 0 0 0 0 0 0 0 0 0 127 0"/>
<feOffset dy="2"/>
<feGaussianBlur stdDeviation="2"/>
<feColorMatrix type="matrix" values="0 0 0 0 0 0 0 0 0 0 0 0 0 0 0 0 0 0 0.3 0"/>
<feBlend mode="normal" in2="BackgroundImageFix" result="effect1_dropShadow"/>
<feBlend mode="normal" in="SourceGraphic" in2="effect1_dropShadow" result="shape"/>
</filter>
<filter id="filter1_d" x="151" y="165" width="23.3547" height="23.3547" filterUnits="userSpaceOnUse" color-interpolation-filters="sRGB">
<feFlood flood-opacity="0" result="BackgroundImageFix"/>
<feColorMatrix in="SourceAlpha" type="matrix" values="0 0 0 0 0 0 0 0 0 0 0 0 0 0 0 0 0 0 127 0"/>
<feOffset dx="3" dy="3"/>
<feGaussianBlur stdDeviation="1.5"/>
<feColorMatrix type="matrix" values="0 0 0 0 0 0 0 0 0 0 0 0 0 0 0 0 0 0 0.162987 0"/>
<feBlend mode="normal" in2="BackgroundImageFix" result="effect1_dropShadow"/>
<feBlend mode="normal" in="SourceGraphic" in2="effect1_dropShadow" result="shape"/>
</filter>
<filter id="filter2_d" x="312" y="165" width="23.3547" height="23.3547" filterUnits="userSpaceOnUse" color-interpolation-filters="sRGB">
<feFlood flood-opacity="0" result="BackgroundImageFix"/>
<feColorMatrix in="SourceAlpha" type="matrix" values="0 0 0 0 0 0 0 0 0 0 0 0 0 0 0 0 0 0 127 0"/>
<feOffset dx="3" dy="3"/>
<feGaussianBlur stdDeviation="1.5"/>
<feColorMatrix type="matrix" values="0 0 0 0 0 0 0 0 0 0 0 0 0 0 0 0 0 0 0.162987 0"/>
<feBlend mode="normal" in2="BackgroundImageFix" result="effect1_dropShadow"/>
<feBlend mode="normal" in="SourceGraphic" in2="effect1_dropShadow" result="shape"/>
</filter>
</defs>
</svg>
