<svg width="480" height="640" viewBox="0 0 480 640" fill="none" xmlns="http://www.w3.org/2000/svg">
<g clip-path="url(#clip0)">
<rect width="480" height="640" rx="32" fill="#53BC69"/>
<g filter="url(#filter0_d)">
<path fill-rule="evenodd" clip-rule="evenodd" d="M399 177.721C399 174.111 395.858 171.187 391.984 171.187V162.069C392.221 162.069 392.461 162.057 392.699 162.037C396.237 161.699 399 158.917 399 155.535C399 152.149 396.237 149.369 392.699 149.034C392.461 149.01 392.221 149 391.984 149C391.74 149 391.5 149.01 391.266 149.034C387.726 149.369 384.964 152.149 384.964 155.535H375.174C375.174 151.924 372.035 149 368.156 149C364.281 149 361.138 151.924 361.138 155.535H351.35C351.35 151.924 348.208 149 344.334 149C340.46 149 337.314 151.924 337.314 155.535H327.527C327.527 151.924 324.385 149 320.509 149C316.635 149 313.493 151.924 313.493 155.535H303.705C303.705 151.924 300.562 149 296.686 149C292.813 149 289.67 151.924 289.67 155.535H279.876C279.876 151.924 276.734 149 272.863 149C268.984 149 265.846 151.924 265.846 155.535H256.056C256.056 151.924 252.912 149 249.036 149C245.162 149 242.02 151.924 242.02 155.535H232.231C232.231 151.924 229.087 149 225.215 149C221.339 149 218.197 151.924 218.197 155.535H208.408C208.408 151.924 205.266 149 201.39 149C197.512 149 194.372 151.924 194.372 155.535H184.583C184.583 151.924 181.442 149 177.565 149C173.689 149 170.547 151.924 170.547 155.535H160.76C160.76 151.924 157.614 149 153.743 149C149.867 149 146.722 151.924 146.722 155.535H136.936C136.936 151.924 133.793 149 129.918 149C126.041 149 122.901 151.924 122.901 155.535H113.11C113.11 151.924 109.97 149 106.09 149C102.218 149 99.0725 151.924 99.0725 155.535H93.0327C93.0327 151.924 89.8923 149 86.0163 149C82.1372 149 79 151.924 79 155.535C79 159.145 82.1372 162.069 86.0163 162.069V171.187C82.142 171.187 79 174.111 79 177.721C79 181.33 82.142 184.256 86.0163 184.256V193.372C82.142 193.372 79 196.299 79 199.907C79 203.517 82.142 206.441 86.0163 206.441V215.558C82.142 215.558 79 218.486 79 222.092C79 225.702 82.142 228.629 86.0163 228.629V237.745C82.142 237.745 79 240.671 79 244.279C79 247.887 82.142 250.813 86.0163 250.813V259.93C82.142 259.93 79 262.858 79 266.466C79 270.074 82.142 273.001 86.0163 273.001V282.115C82.142 282.115 79 285.043 79 288.649C79 292.259 82.142 295.185 86.0163 295.185V304.302C82.142 304.302 79 307.228 79 310.838C79 314.444 82.142 317.373 86.0163 317.373V326.487C82.142 326.487 79 329.413 79 333.023C79 336.632 82.142 339.558 86.0163 339.558V348.674C82.142 348.674 79 351.6 79 355.215C79 358.829 82.142 361.754 86.0163 361.754V370.853C82.142 370.853 79 373.781 79 377.387C79 380.997 82.142 383.923 86.0163 383.923V393.038C82.142 393.038 79 395.964 79 399.575C79 403.191 82.142 406.118 86.0163 406.118V415.235C82.142 415.235 79 418.16 79 421.771C79 425.38 82.142 428.305 86.0163 428.305V433.931C82.3829 433.931 79.3947 436.502 79.0349 439.796C79.0095 440.017 79 440.242 79 440.465C79 440.689 79.0095 440.913 79.0349 441.135C79.3947 444.424 82.3829 447 86.0163 447C89.6482 447 92.638 444.424 92.9978 441.135C93.02 440.913 93.0327 440.689 93.0327 440.465H99.0725C99.0725 444.073 102.218 447 106.09 447C109.97 447 113.11 444.073 113.11 440.465H122.901C122.901 444.073 126.041 447 129.918 447C133.793 447 136.936 444.073 136.936 440.465H146.722C146.722 444.073 149.867 447 153.743 447C157.614 447 160.76 444.073 160.76 440.465H170.547C170.547 444.073 173.689 447 177.565 447C181.442 447 184.583 444.073 184.583 440.465H194.372C194.372 444.073 197.512 447 201.39 447C205.266 447 208.408 444.073 208.408 440.465H218.197C218.197 444.073 221.339 447 225.215 447C229.087 447 232.231 444.073 232.231 440.465H242.02C242.02 444.073 245.162 447 249.036 447C252.912 447 256.056 444.073 256.056 440.465H265.846C265.846 444.073 268.984 447 272.863 447C276.734 447 279.876 444.073 279.876 440.465H289.67C289.67 444.073 292.813 447 296.686 447C300.562 447 303.705 444.073 303.705 440.465H313.493C313.493 444.073 316.635 447 320.509 447C324.385 447 327.527 444.073 327.527 440.465H337.314C337.314 444.073 340.46 447 344.334 447C348.208 447 351.35 444.073 351.35 440.465H361.138C361.138 444.073 364.281 447 368.156 447C372.035 447 375.174 444.073 375.174 440.465H384.964C384.964 444.073 388.105 447 391.984 447C395.858 447 399 444.073 399 440.465C399 436.854 395.858 433.931 391.984 433.931V428.305C395.858 428.305 399 425.38 399 421.771C399 418.16 395.858 415.235 391.984 415.235V406.118C395.858 406.118 399 403.191 399 399.575C399 395.964 395.858 393.038 391.984 393.038V383.923C395.858 383.923 399 380.997 399 377.387C399 373.781 395.858 370.853 391.984 370.853V361.754C395.858 361.754 399 358.829 399 355.215C399 351.6 395.858 348.674 391.984 348.674V339.558C395.858 339.558 399 336.632 399 333.023C399 329.413 395.858 326.487 391.984 326.487V317.373C395.858 317.373 399 314.444 399 310.838C399 307.228 395.858 304.302 391.984 304.302V295.185C395.858 295.185 399 292.259 399 288.649C399 285.043 395.858 282.115 391.984 282.115V273.001C395.858 273.001 399 270.074 399 266.466C399 262.858 395.858 259.93 391.984 259.93V250.813C395.858 250.813 399 247.887 399 244.279C399 240.671 395.858 237.745 391.984 237.745V228.629C395.858 228.629 399 225.702 399 222.092C399 218.486 395.858 215.558 391.984 215.558V206.441C395.858 206.441 399 203.517 399 199.907C399 196.299 395.858 193.372 391.984 193.372V184.256C395.858 184.256 399 181.33 399 177.721" fill="#F9F1DB"/>
</g>
<rect x="108" y="176" width="262" height="240" fill="#81D4FA"/>
<rect x="108" y="176" width="262" height="240" fill="url(#paint0_radial)" fill-opacity="0.5"/>
<g clip-path="url(#clip1)">
<mask id="mask0" mask-type="alpha" maskUnits="userSpaceOnUse" x="108" y="176" width="262" height="241">
<rect x="108" y="176" width="262" height="240" fill="white"/>
<rect x="108" y="176" width="262" height="240" stroke="white"/>
</mask>
<g mask="url(#mask0)">
<path fill-rule="evenodd" clip-rule="evenodd" d="M133.661 419.143L137.018 373.083L251.928 385.878L219.543 419.143H133.661Z" fill="#7EE089"/>
<path fill-rule="evenodd" clip-rule="evenodd" d="M133.661 419.143L137.018 373.083L107.991 436.416L133.661 419.143Z" fill="#53BC69"/>
<path fill-rule="evenodd" clip-rule="evenodd" d="M94.3181 337.899L137.02 373.084L107.991 436.416L94.3181 337.899Z" fill="#3EAF60"/>
<path fill-rule="evenodd" clip-rule="evenodd" d="M94.3181 337.899L137.02 373.084L220.503 343.657L137.02 317.428L94.3181 337.899Z" fill="#53BC69"/>
<path fill-rule="evenodd" clip-rule="evenodd" d="M94.318 337.899L137.02 317.428L30.7469 337.899H94.318Z" fill="#6CD37B"/>
<path fill-rule="evenodd" clip-rule="evenodd" d="M72.0879 312.95L137.019 317.429L30.7455 337.898L72.0879 312.95Z" fill="#7EE089"/>
<path fill-rule="evenodd" clip-rule="evenodd" d="M380.751 305.913L370.196 289.84L349.086 305.913H380.751Z" fill="#267F41"/>
<path fill-rule="evenodd" clip-rule="evenodd" d="M319.658 293.918L370.197 289.84L349.085 305.913L319.658 293.918Z" fill="#1D743D"/>
<path fill-rule="evenodd" clip-rule="evenodd" d="M319.658 293.918L370.197 289.84L343.087 281.684L321.497 277.605L319.658 293.918Z" fill="#1B6639"/>
<path fill-rule="evenodd" clip-rule="evenodd" d="M319.658 343.656L324.216 398.512L397.033 317.427L380.751 305.912L319.658 343.656Z" fill="#236E9E"/>
<path fill-rule="evenodd" clip-rule="evenodd" d="M319.658 343.656L349.085 305.912H380.751L319.658 343.656Z" fill="#216897"/>
<path fill-rule="evenodd" clip-rule="evenodd" d="M319.658 343.656L349.085 305.912L319.658 293.918V343.656Z" fill="#297EB2"/>
<path fill-rule="evenodd" clip-rule="evenodd" d="M319.658 343.656H283.833L319.658 293.918V343.656Z" fill="#216897"/>
<path fill-rule="evenodd" clip-rule="evenodd" d="M219.543 419.143L305.345 422.982L324.216 398.512L219.543 419.143Z" fill="#297EB2"/>
<path fill-rule="evenodd" clip-rule="evenodd" d="M283.835 343.656L319.658 293.92L321.498 277.606L279.037 273.681L283.835 343.656Z" fill="#236E9E"/>
<path fill-rule="evenodd" clip-rule="evenodd" d="M279.037 273.681L220.502 343.656H283.835L279.037 273.681Z" fill="#297EB2"/>
<path fill-rule="evenodd" clip-rule="evenodd" d="M192.794 300.636L137.019 317.428L72.0886 312.951L137.019 289.124L192.794 300.636Z" fill="#216897"/>
<path fill-rule="evenodd" clip-rule="evenodd" d="M133.661 419.143L137.018 373.083L251.928 385.878L219.543 419.143H133.661Z" fill="#7EE089"/>
<path fill-rule="evenodd" clip-rule="evenodd" d="M133.661 419.143L137.018 373.083L107.991 436.416L133.661 419.143Z" fill="#53BC69"/>
<path fill-rule="evenodd" clip-rule="evenodd" d="M94.3181 337.899L137.02 373.084L107.991 436.416L94.3181 337.899Z" fill="#3EAF60"/>
<path fill-rule="evenodd" clip-rule="evenodd" d="M94.3181 337.899L137.02 373.084L220.503 343.657L137.02 317.428L94.3181 337.899Z" fill="#53BC69"/>
<path fill-rule="evenodd" clip-rule="evenodd" d="M94.318 337.899L137.02 317.428L30.7469 337.899H94.318Z" fill="#6CD37B"/>
<path fill-rule="evenodd" clip-rule="evenodd" d="M72.0879 312.95L137.019 317.429L30.7455 337.898L72.0879 312.95Z" fill="#7EE089"/>
<path fill-rule="evenodd" clip-rule="evenodd" d="M220.502 343.656L137.019 373.083L251.929 385.878L283.835 343.656H220.502Z" fill="#6CD37B"/>
<path fill-rule="evenodd" clip-rule="evenodd" d="M319.658 343.656L251.927 385.878L283.833 343.656H319.658Z" fill="#7EE089"/>
<path fill-rule="evenodd" clip-rule="evenodd" d="M319.658 343.656L251.927 385.878L324.216 398.512L319.658 343.656Z" fill="#297EB2"/>
<path fill-rule="evenodd" clip-rule="evenodd" d="M219.543 419.143L324.216 398.512L251.929 385.878L219.543 419.143Z" fill="#378FC3"/>
<path fill-rule="evenodd" clip-rule="evenodd" d="M279.037 273.681L210.426 274.675L192.795 300.637L220.502 343.656L279.037 273.681Z" fill="#236E9E"/>
<path fill-rule="evenodd" clip-rule="evenodd" d="M137.019 289.123L192.794 300.635L210.427 274.673L137.019 289.123Z" fill="#1F6084"/>
<path fill-rule="evenodd" clip-rule="evenodd" d="M192.794 300.635L137.019 317.428L220.502 343.657L192.794 300.635Z" fill="#378FC3"/>
<path fill-rule="evenodd" clip-rule="evenodd" d="M220.502 343.656L137.019 373.083L251.929 385.878L283.835 343.656H220.502Z" fill="#6CD37B"/>
<path fill-rule="evenodd" clip-rule="evenodd" d="M319.658 343.656L251.927 385.878L283.833 343.656H319.658Z" fill="#7EE089"/>
<path fill-rule="evenodd" clip-rule="evenodd" d="M380.751 305.913L370.196 289.84L349.086 305.913H380.751Z" fill="#267F41"/>
<path fill-rule="evenodd" clip-rule="evenodd" d="M319.658 293.918L370.197 289.84L349.085 305.913L319.658 293.918Z" fill="#1D743D"/>
<path fill-rule="evenodd" clip-rule="evenodd" d="M319.658 293.918L370.197 289.84L343.087 281.684L321.497 277.605L319.658 293.918Z" fill="#1B6639"/>
<path fill-rule="evenodd" clip-rule="evenodd" d="M374.994 425.86L305.344 452.249V422.981L324.217 398.512L374.994 425.86Z" fill="#7EE089"/>
<path fill-rule="evenodd" clip-rule="evenodd" d="M374.994 425.86L324.217 398.512L397.034 317.427L374.994 425.86Z" fill="#216897"/>
<path fill-rule="evenodd" clip-rule="evenodd" d="M374.994 425.86L305.344 452.249V422.981L324.217 398.512L374.994 425.86Z" fill="#7EE089"/>
</g>
</g>
<mask id="mask1" mask-type="alpha" maskUnits="userSpaceOnUse" x="102" y="237" width="241" height="180">
<path fill-rule="evenodd" clip-rule="evenodd" d="M108.593 416.402C108.593 416.402 182.966 416.402 205.721 416.402C261.827 416.402 333.527 416.402 333.527 416.402C333.527 416.402 343 392.559 343 375C343 298.785 283.902 237 211 237C169.682 237 132.797 256.847 108.593 287.919C95.8669 304.257 108.593 416.402 108.593 416.402Z" fill="white"/>
</mask>
<g mask="url(#mask1)">
<path opacity="0.6" fill-rule="evenodd" clip-rule="evenodd" d="M306.844 211C189.801 239.836 103 345.507 103 471.451C103 475.25 103.079 479.031 103.235 482.792C108.223 356.101 191.954 249.642 306.844 211Z" fill="white" fill-opacity="0.7"/>
<path opacity="0.6" fill-rule="evenodd" clip-rule="evenodd" d="M413.844 312C296.801 340.836 210 446.507 210 572.451C210 576.25 210.079 580.031 210.235 583.792C215.223 457.101 298.954 350.642 413.844 312Z" fill="white" fill-opacity="0.7"/>
<path opacity="0.6" fill-rule="evenodd" clip-rule="evenodd" d="M335.844 230C218.801 258.836 132 364.507 132 490.451C132 494.25 132.079 498.031 132.235 501.792C137.223 375.101 220.954 268.642 335.844 230Z" fill="white" fill-opacity="0.7"/>
<path opacity="0.6" fill-rule="evenodd" clip-rule="evenodd" d="M400.844 281C283.801 309.836 197 415.507 197 541.451C197 545.25 197.079 549.031 197.235 552.792C202.223 426.101 285.954 319.642 400.844 281Z" fill="white" fill-opacity="0.7"/>
</g>
<g filter="url(#filter1_d)">
<g clip-path="url(#clip2)">
<g clip-path="url(#clip3)">
<path fill-rule="evenodd" clip-rule="evenodd" d="M190.931 317.147C186.936 316.637 178.56 323.618 178.503 323.665C178.503 323.665 190.825 330.88 196.986 334.487C204.681 338.992 220.072 348.003 220.072 348.003L225.863 343.143L232.305 324.51C232.305 324.51 199.013 318.179 190.931 317.147Z" fill="#F9F9F9"/>
<mask id="mask2" mask-type="alpha" maskUnits="userSpaceOnUse" x="178" y="317" width="55" height="32">
<path fill-rule="evenodd" clip-rule="evenodd" d="M190.931 317.147C186.936 316.637 178.56 323.618 178.503 323.665C178.503 323.665 190.825 330.88 196.986 334.487C204.681 338.992 220.072 348.003 220.072 348.003L225.863 343.143L232.305 324.51C232.305 324.51 199.013 318.179 190.931 317.147Z" fill="white"/>
</mask>
<g mask="url(#mask2)">
<path fill-rule="evenodd" clip-rule="evenodd" d="M228.04 341.311C228.04 341.311 195.305 327 188.631 324.589C181.957 322.178 177.172 323.995 177.172 323.995L216.903 350.656L228.04 341.311Z" fill="#09CA5B"/>
</g>
</g>
<g clip-path="url(#clip4)">
<path fill-rule="evenodd" clip-rule="evenodd" d="M245.393 382.052C245.201 386.075 236.872 393.112 236.815 393.16C236.815 393.16 231.85 379.772 229.368 373.078C226.267 364.717 220.066 347.996 220.066 347.996L225.857 343.137L245.326 340.028C245.326 340.028 245.78 373.914 245.393 382.052Z" fill="#F9F9F9"/>
<mask id="mask3" mask-type="alpha" maskUnits="userSpaceOnUse" x="220" y="340" width="26" height="54">
<path fill-rule="evenodd" clip-rule="evenodd" d="M245.393 382.052C245.201 386.075 236.872 393.112 236.815 393.16C236.815 393.16 231.85 379.772 229.368 373.078C226.267 364.717 220.066 347.996 220.066 347.996L225.857 343.137L245.326 340.028C245.326 340.028 245.78 373.914 245.393 382.052Z" fill="white"/>
</mask>
<g mask="url(#mask3)">
<path fill-rule="evenodd" clip-rule="evenodd" d="M228.04 341.311C228.04 341.311 236.449 376.034 237.664 383.025C238.88 390.017 236.26 394.413 236.26 394.413L216.903 350.656L228.04 341.311Z" fill="#09CA5B"/>
<path fill-rule="evenodd" clip-rule="evenodd" d="M247.125 342.919L256.713 317.252L208.338 356.433L226.395 383.208L247.125 342.919Z" fill="#BAC7BA" style="mix-blend-mode:multiply"/>
</g>
</g>
<g clip-path="url(#clip5)">
<g clip-path="url(#clip6)">
<path fill-rule="evenodd" clip-rule="evenodd" d="M284.518 233.845C284.518 233.845 283.792 232.853 282.258 232.535C280.724 232.217 277.672 234.913 277.672 234.913L257.198 251.993C257.198 251.993 247.032 264.592 246.308 268.864C247.547 270.368 248.705 271.808 248.705 271.808L288.414 238.488L284.518 233.845V233.845ZM292.31 243.131C292.31 243.131 293.161 244.018 293.208 245.584C293.254 247.15 290.069 249.688 290.069 249.688L269.694 266.885C269.694 266.885 255.521 274.708 251.188 274.679C249.922 273.198 248.705 271.808 248.705 271.808L288.414 238.488L292.31 243.131V243.131Z" fill="#09CA5B"/>
<mask id="mask4" mask-type="alpha" maskUnits="userSpaceOnUse" x="242" y="231" width="53" height="49">
<path fill-rule="evenodd" clip-rule="evenodd" d="M284.518 233.845C284.518 233.845 283.792 232.853 282.258 232.535C280.724 232.217 277.672 234.913 277.672 234.913L257.198 251.993C257.198 251.993 247.032 264.592 246.308 268.864C247.547 270.368 248.705 271.808 248.705 271.808L288.414 238.488L284.518 233.845V233.845ZM292.31 243.131C292.31 243.131 293.161 244.018 293.208 245.584C293.254 247.15 290.069 249.688 290.069 249.688L269.694 266.885C269.694 266.885 255.521 274.708 251.188 274.679C249.922 273.198 248.705 271.808 248.705 271.808L288.414 238.488L292.31 243.131V243.131Z" fill="white"/>
</mask>
<g mask="url(#mask4)">
<rect x="288.358" y="221.617" width="25.9194" height="14.0397" transform="rotate(50 288.358 221.617)" fill="#EAEAEA"/>
<path fill-rule="evenodd" clip-rule="evenodd" d="M259.327 275.587L206.845 243.139L229.163 221.945L296.955 246.984L259.327 275.587Z" fill="#AEB9AE" style="mix-blend-mode:multiply"/>
</g>
<path fill-rule="evenodd" clip-rule="evenodd" d="M253.765 217.356C253.765 217.356 253.038 216.364 251.505 216.046C249.971 215.728 246.918 218.424 246.918 218.424L226.444 235.504C226.444 235.504 216.279 248.103 215.555 252.375C216.794 253.879 217.951 255.319 217.951 255.319L257.661 221.999L253.765 217.356V217.356ZM261.557 226.642C261.557 226.642 262.407 227.529 262.454 229.095C262.501 230.661 259.315 233.199 259.315 233.199L238.94 250.396C238.94 250.396 224.767 258.219 220.434 258.19C219.169 256.709 217.951 255.319 217.951 255.319L257.661 221.999L261.557 226.642V226.642Z" fill="#09CA5B"/>
<mask id="mask5" mask-type="alpha" maskUnits="userSpaceOnUse" x="211" y="214" width="53" height="49">
<path fill-rule="evenodd" clip-rule="evenodd" d="M253.765 217.356C253.765 217.356 253.038 216.364 251.505 216.046C249.971 215.728 246.918 218.424 246.918 218.424L226.444 235.504C226.444 235.504 216.279 248.103 215.555 252.375C216.794 253.879 217.951 255.319 217.951 255.319L257.661 221.999L253.765 217.356V217.356ZM261.557 226.642C261.557 226.642 262.407 227.529 262.454 229.095C262.501 230.661 259.315 233.199 259.315 233.199L238.94 250.396C238.94 250.396 224.767 258.219 220.434 258.19C219.169 256.709 217.951 255.319 217.951 255.319L257.661 221.999L261.557 226.642V226.642Z" fill="white"/>
</mask>
<g mask="url(#mask5)">
<rect x="257.605" y="205.128" width="25.9194" height="14.0397" transform="rotate(50 257.605 205.128)" fill="#EAEAEA"/>
<path fill-rule="evenodd" clip-rule="evenodd" d="M258.423 276.19L205.943 243.744L228.261 222.55L296.052 247.587L258.423 276.19Z" fill="#AEB9AE" style="mix-blend-mode:multiply"/>
</g>
</g>
<path fill-rule="evenodd" clip-rule="evenodd" d="M214.744 219.791C210.862 218.141 190.744 224.576 190.744 224.576L263.439 272.82C263.758 273.032 264.045 273.288 264.291 273.582L282.663 295.477L327.338 257.99C327.338 257.99 218.625 221.44 214.744 219.791Z" fill="#F9F9F9"/>
<mask id="mask6" mask-type="alpha" maskUnits="userSpaceOnUse" x="190" y="219" width="138" height="77">
<path fill-rule="evenodd" clip-rule="evenodd" d="M214.744 219.791C210.862 218.141 190.744 224.576 190.744 224.576L263.439 272.82C263.758 273.032 264.045 273.288 264.291 273.582L282.663 295.477L327.338 257.99C327.338 257.99 218.625 221.44 214.744 219.791Z" fill="white"/>
</mask>
<g mask="url(#mask6)">
<path fill-rule="evenodd" clip-rule="evenodd" d="M203.792 224.784C208.301 225.628 211.116 226.827 215.774 229.027C226.331 234.013 257.006 248.37 276.001 259.819C286.78 266.317 292.081 273.476 292.081 273.476L256.834 303.052L191.086 224.695C191.086 224.695 199.283 223.939 203.792 224.784Z" fill="#09CA5B"/>
<path fill-rule="evenodd" clip-rule="evenodd" d="M208.191 234.049C226.815 245.315 261.937 265.96 267.109 270.558C272.282 275.156 279.521 284.015 279.521 284.015L256.834 303.052L191.086 224.695C191.086 224.695 201.371 229.924 208.191 234.049Z" fill="#A2A2A2" style="mix-blend-mode:darken"/>
<path fill-rule="evenodd" clip-rule="evenodd" d="M315.149 246.825L325.529 259.194L275.063 301.54L262.947 288.816L315.149 246.825Z" fill="#DBE6DB" fill-opacity="0.5" style="mix-blend-mode:multiply"/>
</g>
</g>
<g clip-path="url(#clip7)">
<g clip-path="url(#clip8)">
<path fill-rule="evenodd" clip-rule="evenodd" d="M344.375 305.179C344.375 305.179 345.225 306.067 345.272 307.632C345.319 309.198 342.134 311.736 342.134 311.736L321.758 328.933C321.758 328.933 307.586 336.756 303.252 336.728C301.987 335.247 300.769 333.857 300.769 333.857L340.479 300.536L344.375 305.179V305.179ZM336.583 295.893C336.583 295.893 335.857 294.901 334.323 294.583C332.789 294.265 329.736 296.962 329.736 296.962L309.263 314.041C309.263 314.041 299.097 326.64 298.373 330.913C299.612 332.416 300.769 333.857 300.769 333.857L340.479 300.536L336.583 295.893V295.893Z" fill="#09CA5B"/>
<mask id="mask7" mask-type="alpha" maskUnits="userSpaceOnUse" x="294" y="293" width="53" height="49">
<path fill-rule="evenodd" clip-rule="evenodd" d="M344.375 305.179C344.375 305.179 345.225 306.067 345.272 307.632C345.319 309.198 342.134 311.736 342.134 311.736L321.758 328.933C321.758 328.933 307.586 336.756 303.252 336.728C301.987 335.247 300.769 333.857 300.769 333.857L340.479 300.536L344.375 305.179V305.179ZM336.583 295.893C336.583 295.893 335.857 294.901 334.323 294.583C332.789 294.265 329.736 296.962 329.736 296.962L309.263 314.041C309.263 314.041 299.097 326.64 298.373 330.913C299.612 332.416 300.769 333.857 300.769 333.857L340.479 300.536L336.583 295.893V295.893Z" fill="white"/>
</mask>
<g mask="url(#mask7)">
<rect width="25.9194" height="14.0397" transform="matrix(-0.642788 -0.766044 -0.766044 0.642788 357.084 303.521)" fill="#EAEAEA"/>
<path fill-rule="evenodd" clip-rule="evenodd" d="M298.333 320.393L321.173 377.71L345.92 359.412L333.036 288.303L298.333 320.393Z" fill="#AEB9AE" style="mix-blend-mode:multiply"/>
</g>
<path fill-rule="evenodd" clip-rule="evenodd" d="M355.273 338.329C355.273 338.329 356.124 339.216 356.17 340.782C356.217 342.348 353.032 344.886 353.032 344.886L332.656 362.083C332.656 362.083 318.484 369.906 314.15 369.877C312.885 368.396 311.667 367.006 311.667 367.006L351.377 333.686L355.273 338.329V338.329ZM347.481 329.043C347.481 329.043 346.755 328.051 345.221 327.733C343.687 327.415 340.634 330.111 340.634 330.111L320.161 347.191C320.161 347.191 309.995 359.79 309.271 364.062C310.51 365.566 311.667 367.006 311.667 367.006L351.377 333.686L347.481 329.043V329.043Z" fill="#09CA5B"/>
<mask id="mask8" mask-type="alpha" maskUnits="userSpaceOnUse" x="305" y="326" width="53" height="49">
<path fill-rule="evenodd" clip-rule="evenodd" d="M355.273 338.329C355.273 338.329 356.124 339.216 356.17 340.782C356.217 342.348 353.032 344.886 353.032 344.886L332.656 362.083C332.656 362.083 318.484 369.906 314.15 369.877C312.885 368.396 311.667 367.006 311.667 367.006L351.377 333.686L355.273 338.329V338.329ZM347.481 329.043C347.481 329.043 346.755 328.051 345.221 327.733C343.687 327.415 340.634 330.111 340.634 330.111L320.161 347.191C320.161 347.191 309.995 359.79 309.271 364.062C310.51 365.566 311.667 367.006 311.667 367.006L351.377 333.686L347.481 329.043V329.043Z" fill="white"/>
</mask>
<g mask="url(#mask8)">
<rect width="25.9194" height="14.0397" transform="matrix(-0.642788 -0.766044 -0.766044 0.642788 367.982 336.671)" fill="#EAEAEA"/>
<path fill-rule="evenodd" clip-rule="evenodd" d="M297.506 321.087L320.346 378.404L345.093 360.106L332.208 288.997L297.506 321.087Z" fill="#AEB9AE" style="mix-blend-mode:multiply"/>
</g>
</g>
<path fill-rule="evenodd" clip-rule="evenodd" d="M346.099 376.334C347.049 380.443 337.22 399.138 337.22 399.138L302.331 319.171C302.178 318.82 301.975 318.492 301.729 318.199L283.357 296.304L328.032 258.818C328.032 258.818 345.149 372.225 346.099 376.334Z" fill="#F9F9F9"/>
<mask id="mask9" mask-type="alpha" maskUnits="userSpaceOnUse" x="283" y="258" width="64" height="142">
<path fill-rule="evenodd" clip-rule="evenodd" d="M346.099 376.334C347.049 380.443 337.22 399.138 337.22 399.138L302.331 319.171C302.178 318.82 301.975 318.492 301.729 318.199L283.357 296.304L328.032 258.818C328.032 258.818 345.149 372.225 346.099 376.334Z" fill="white"/>
</mask>
<g mask="url(#mask9)">
<path fill-rule="evenodd" clip-rule="evenodd" d="M339.28 386.253C339.232 381.666 338.54 378.685 337.182 373.716C334.106 362.453 325.293 329.751 317.316 309.057C312.789 297.314 306.659 290.85 306.659 290.85L271.412 320.425L337.161 398.781C337.161 398.781 339.329 390.839 339.28 386.253Z" fill="#09CA5B"/>
<path fill-rule="evenodd" clip-rule="evenodd" d="M330.919 380.312C323.059 360.014 308.827 321.841 305.196 315.948C301.566 310.056 294.1 301.388 294.1 301.388L271.412 320.425L337.161 398.781C337.161 398.781 333.798 387.744 330.919 380.312Z" fill="#A2A2A2" style="mix-blend-mode:darken"/>
<path fill-rule="evenodd" clip-rule="evenodd" d="M340.921 277.539L330.542 265.17L280.077 307.516L293.112 323.051L340.921 277.539Z" fill="#BAC7BA" style="mix-blend-mode:multiply"/>
</g>
</g>
<g clip-path="url(#clip9)">
<g clip-path="url(#clip10)">
<path fill-rule="evenodd" clip-rule="evenodd" d="M380.77 229.402C379.02 234.605 374.467 239.591 371.688 241.923C368.399 244.683 343.798 264.976 318.695 285.682C292.547 307.25 265.855 329.268 262.138 332.387C254.851 338.501 248.233 341.578 241.405 344.053C235.147 346.321 223.011 346.72 221.667 346.757L221.594 346.818C221.594 346.818 221.598 346.798 221.606 346.759C221.566 346.76 221.545 346.76 221.545 346.76L221.618 346.699C221.889 345.382 224.389 333.499 227.709 327.731C231.332 321.437 235.511 315.453 242.798 309.339C246.516 306.219 272.833 283.756 298.615 261.751C323.365 240.625 347.622 219.922 350.911 217.162C353.69 214.83 359.391 211.212 364.819 210.392C372.402 209.245 379.818 211.508 381.111 212.869L381.113 212.867C381.121 212.877 381.129 212.887 381.137 212.897C381.145 212.906 381.154 212.916 381.162 212.926L381.16 212.927C382.276 214.436 383.216 222.133 380.77 229.402Z" fill="#F9F9F9"/>
<mask id="mask10" mask-type="alpha" maskUnits="userSpaceOnUse" x="211" y="200" width="181" height="160">
<path fill-rule="evenodd" clip-rule="evenodd" d="M380.77 229.402C379.02 234.605 374.467 239.591 371.688 241.923C368.399 244.683 343.798 264.976 318.695 285.682C292.547 307.25 265.855 329.268 262.138 332.387C254.851 338.501 248.233 341.578 241.405 344.053C235.147 346.321 223.011 346.72 221.667 346.757L221.594 346.818C221.594 346.818 221.598 346.798 221.606 346.759C221.566 346.76 221.545 346.76 221.545 346.76L221.618 346.699C221.889 345.382 224.389 333.499 227.709 327.731C231.332 321.437 235.511 315.453 242.798 309.339C246.516 306.219 272.833 283.756 298.615 261.751C323.365 240.625 347.622 219.922 350.911 217.162C353.69 214.83 359.391 211.212 364.819 210.392C372.402 209.245 379.818 211.508 381.111 212.869L381.113 212.867C381.121 212.877 381.129 212.887 381.137 212.897C381.145 212.906 381.154 212.916 381.162 212.926L381.16 212.927C382.276 214.436 383.216 222.133 380.77 229.402Z" fill="white"/>
</mask>
<g mask="url(#mask10)">
<path fill-rule="evenodd" clip-rule="evenodd" d="M244.267 327.818C244.267 327.818 242.474 317.686 249.62 305.522C256.766 293.357 288.974 269.974 288.974 269.974C288.974 269.974 282.801 276.054 277.528 282.105C273.734 286.458 270.647 290.824 269.53 292.771C266.616 297.852 264.928 303.345 263.985 305.693C262.547 309.276 262.943 312.147 262.943 312.147L244.267 327.818Z" fill="#09CA5B"/>
<path fill-rule="evenodd" clip-rule="evenodd" d="M230.682 339.347C230.682 339.347 231.608 331.404 234.887 323.43C235.423 322.125 239.048 313.555 245.568 307.004C261.534 290.965 276.594 280.45 276.594 280.45C276.594 280.45 258.098 300.185 253.919 307.459C248.11 317.571 247.543 325.199 247.543 325.199L230.682 339.347Z" fill="#09A25B"/>
<path fill-rule="evenodd" clip-rule="evenodd" d="M244.147 327.676C244.147 327.676 253.814 331.201 267.034 326.275C280.255 321.35 308.876 293.692 308.876 293.692C308.876 293.692 301.817 298.716 294.942 302.858C289.996 305.838 285.16 308.12 283.049 308.882C277.539 310.87 271.836 311.578 269.36 312.099C265.581 312.893 262.824 312.004 262.824 312.004L244.147 327.676Z" fill="#09CA5B"/>
<path fill-rule="evenodd" clip-rule="evenodd" d="M230.403 339.015C230.403 339.015 238.386 339.483 246.809 337.639C248.187 337.337 257.257 335.256 264.84 329.972C283.408 317.034 296.378 304.028 296.378 304.028C296.378 304.028 273.731 318.816 265.842 321.668C254.875 325.633 247.264 324.867 247.264 324.867L230.403 339.015Z" fill="#09A25B"/>
<path fill-rule="evenodd" clip-rule="evenodd" d="M381.113 212.867L392.22 226.104L232.549 360.084L222.195 347.745L215.651 351.706L221.442 346.847L247.916 324.633C247.916 324.633 244.936 331.916 244.103 334.472C243.872 335.181 243.782 336.005 243.77 336.817C247.529 334.773 251.415 332.446 255.124 329.863C266.77 321.754 271.507 317.846 284.28 307.304C284.907 306.787 285.553 306.253 286.221 305.703C302.58 292.207 323.922 274.21 342.38 258.646C350.61 251.706 358.266 245.249 364.652 239.891C364.686 239.862 364.738 239.82 364.805 239.764C365.841 238.905 370.645 234.921 373.665 231.195C376.276 227.974 377.511 225.79 378.711 223.347C382.099 216.447 381.113 212.867 381.113 212.867ZM227.754 344.413C227.696 344.437 227.639 344.461 227.582 344.484L227.734 344.392C227.734 344.392 227.74 344.4 227.754 344.413Z" fill="#D0D7D0" fill-opacity="0.8" style="mix-blend-mode:multiply"/>
</g>
</g>
</g>
<g clip-path="url(#clip11)">
<path fill-rule="evenodd" clip-rule="evenodd" d="M224.19 341.722C232.306 335.018 247.222 323.806 247.916 324.633L215.651 351.707C215.651 351.707 216.285 348.461 224.19 341.722Z" fill="#F9F9F9"/>
<path fill-rule="evenodd" clip-rule="evenodd" d="M226.967 345.031C234.978 338.203 248.61 325.46 247.916 324.633L215.651 351.707C215.651 351.707 218.957 351.646 226.967 345.031Z" fill="#D3D9D3"/>
</g>
<g clip-path="url(#clip12)">
<path fill-rule="evenodd" clip-rule="evenodd" d="M371.213 221.1C374.016 224.381 374.939 228.681 374.138 232.818C377.647 228.483 377.896 222.403 374.429 218.344C370.966 214.291 364.926 213.593 360.107 216.396C364.311 216.24 368.41 217.819 371.213 221.1" fill="#A2C3AF"/>
<rect x="371.984" y="212.069" width="1.07998" height="9.71978" transform="rotate(50 371.984 212.069)" fill="#F9F9F9"/>
<rect x="377.138" y="223.252" width="1.07998" height="6.47986" transform="rotate(50 377.138 223.252)" fill="#F9F9F9"/>
<rect x="376.629" y="215.925" width="1.07998" height="9.71978" transform="rotate(50 376.629 215.925)" fill="#F9F9F9"/>
</g>
</g>
</g>
</g>
<defs>
<filter id="filter0_d" x="64" y="135" width="350" height="328" filterUnits="userSpaceOnUse" color-interpolation-filters="sRGB">
<feFlood flood-opacity="0" result="BackgroundImageFix"/>
<feColorMatrix in="SourceAlpha" type="matrix" values="0 0 0 0 0 0 0 0 0 0 0 0 0 0 0 0 0 0 127 0"/>
<feOffset dy="1"/>
<feGaussianBlur stdDeviation="7.5"/>
<feColorMatrix type="matrix" values="0 0 0 0 0.229723 0 0 0 0 0.672725 0 0 0 0 0.339377 0 0 0 1 0"/>
<feBlend mode="normal" in2="BackgroundImageFix" result="effect1_dropShadow"/>
<feBlend mode="normal" in="SourceGraphic" in2="effect1_dropShadow" result="shape"/>
</filter>
<filter id="filter1_d" x="128.33" y="122" width="332.448" height="332.571" filterUnits="userSpaceOnUse" color-interpolation-filters="sRGB">
<feFlood flood-opacity="0" result="BackgroundImageFix"/>
<feColorMatrix in="SourceAlpha" type="matrix" values="0 0 0 0 0 0 0 0 0 0 0 0 0 0 0 0 0 0 127 0"/>
<feOffset dy="2"/>
<feGaussianBlur stdDeviation="3"/>
<feColorMatrix type="matrix" values="0 0 0 0 0 0 0 0 0 0 0 0 0 0 0 0 0 0 0.287619 0"/>
<feBlend mode="normal" in2="BackgroundImageFix" result="effect1_dropShadow"/>
<feBlend mode="normal" in="SourceGraphic" in2="effect1_dropShadow" result="shape"/>
</filter>
<radialGradient id="paint0_radial" cx="0" cy="0" r="1" gradientUnits="userSpaceOnUse" gradientTransform="translate(233.957 373.169) rotate(-90) scale(184.587 201.507)">
<stop stop-color="white"/>
<stop offset="1" stop-color="#0060C0"/>
</radialGradient>
<clipPath id="clip0">
<rect width="480" height="640" rx="32" fill="white"/>
</clipPath>
<clipPath id="clip1">
<rect x="6.00824" y="273.622" width="488" height="233" fill="white"/>
</clipPath>
<clipPath id="clip2">
<rect x="308.222" y="126" width="228" height="227" transform="rotate(50 308.222 126)" fill="white"/>
</clipPath>
<clipPath id="clip3">
<rect x="209.659" y="297.522" width="46.439" height="41.0391" transform="rotate(50 209.659 297.522)" fill="white"/>
</clipPath>
<clipPath id="clip4">
<rect width="46.439" height="41.0391" transform="matrix(-0.642788 -0.766044 -0.766044 0.642788 267.972 367.016)" fill="white"/>
</clipPath>
<clipPath id="clip5">
<rect x="254.447" y="171.123" width="113.397" height="83.1582" transform="rotate(50 254.447 171.123)" fill="white"/>
</clipPath>
<clipPath id="clip6">
<rect x="282.168" y="231.041" width="19.4396" height="51.8388" transform="rotate(50 282.168 231.041)" fill="white"/>
</clipPath>
<clipPath id="clip7">
<rect width="114" height="84" transform="matrix(-0.642788 -0.766044 -0.766044 0.642788 400.922 345.685)" fill="white"/>
</clipPath>
<clipPath id="clip8">
<rect width="20" height="52" transform="matrix(-0.642788 -0.766044 -0.766044 0.642788 346.728 307.981)" fill="white"/>
</clipPath>
<clipPath id="clip9">
<rect x="370.154" y="199.808" width="34" height="209" transform="rotate(50 370.154 199.808)" fill="white"/>
</clipPath>
<clipPath id="clip10">
<rect width="33.0963" height="208.761" transform="matrix(-0.642788 -0.766044 -0.766044 0.642788 391.526 225.277)" fill="white"/>
</clipPath>
<clipPath id="clip11">
<rect x="246.528" y="322.978" width="4.3199" height="42.1191" transform="rotate(50 246.528 322.978)" fill="white"/>
</clipPath>
<clipPath id="clip12">
<rect x="370.034" y="208.065" width="21.5995" height="12.9597" transform="rotate(50 370.034 208.065)" fill="white"/>
</clipPath>
</defs>
</svg>
