<svg width="240" height="320" viewBox="0 0 240 320" fill="none" xmlns="http://www.w3.org/2000/svg">
<rect width="240" height="320" rx="16" fill="#FEA96C"/>
<path opacity="0.6" fill-rule="evenodd" clip-rule="evenodd" d="M69.2503 108.019L47.2251 88.7583L51.1748 84.2417L73.2 103.502L95.2251 84.2417L99.1748 88.7583L77.1497 108.019C74.8879 109.997 71.512 109.997 69.2503 108.019Z" fill="#F2F2F2"/>
<path fill-rule="evenodd" clip-rule="evenodd" d="M97.2 86.5H49.2V122.5H97.2V86.5ZM49.2 80.5C45.8862 80.5 43.2 83.1863 43.2 86.5V122.5C43.2 125.814 45.8862 128.5 49.2 128.5H97.2C100.514 128.5 103.2 125.814 103.2 122.5V86.5C103.2 83.1863 100.514 80.5 97.2 80.5H49.2Z" fill="#F2F2F2"/>
<path opacity="0.5" fill-rule="evenodd" clip-rule="evenodd" d="M151.998 104.356C151.426 105.356 152.148 106.6 153.3 106.6H180.3C181.37 106.6 182.096 105.511 181.685 104.523L175.31 91.0232C174.863 89.9518 173.421 89.7716 172.725 90.7001L166.112 99.5178C165.651 100.133 164.799 100.3 164.14 99.9041L159.114 96.8884C158.393 96.4558 157.457 96.7003 157.04 97.4305L151.998 104.356Z" fill="#B35919"/>
<rect opacity="0.5" x="151.8" y="112.6" width="30" height="6" rx="3" fill="#B35919"/>
<path fill-rule="evenodd" clip-rule="evenodd" d="M184.8 82.6001H148.8V124.6H184.8V82.6001ZM148.8 76.6001C145.486 76.6001 142.8 79.2864 142.8 82.6001V124.6C142.8 127.914 145.486 130.6 148.8 130.6H184.8C188.114 130.6 190.8 127.914 190.8 124.6V82.6001C190.8 79.2864 188.114 76.6001 184.8 76.6001H148.8Z" fill="#B35919"/>
<path fill-rule="evenodd" clip-rule="evenodd" d="M190.8 179.8H142.8V215.8H190.8V179.8ZM142.8 173.8C139.486 173.8 136.8 176.486 136.8 179.8V215.8C136.8 219.114 139.486 221.8 142.8 221.8H190.8C194.114 221.8 196.8 219.114 196.8 215.8V179.8C196.8 176.486 194.114 173.8 190.8 173.8H142.8Z" fill="#B25919"/>
<rect opacity="0.5" x="175.8" y="185.8" width="12" height="12" rx="3" fill="#B25919"/>
<path opacity="0.5" d="M169.8 184.3V211.3C169.8 212.128 170.472 212.8 171.3 212.8C172.128 212.8 172.8 212.128 172.8 211.3V184.3C172.8 183.471 172.128 182.8 171.3 182.8C170.472 182.8 169.8 183.471 169.8 184.3Z" fill="#B25919"/>
<path opacity="0.5" d="M160.791 188.8H148.809C147.147 188.8 145.8 190.143 145.8 191.8C145.8 193.457 147.147 194.8 148.809 194.8H160.791C162.453 194.8 163.8 193.457 163.8 191.8C163.8 190.143 162.453 188.8 160.791 188.8Z" fill="#B25919"/>
<path opacity="0.5" d="M160.791 200.8H148.809C147.147 200.8 145.8 202.143 145.8 203.8C145.8 205.457 147.147 206.8 148.809 206.8H160.791C162.453 206.8 163.8 205.457 163.8 203.8C163.8 202.143 162.453 200.8 160.791 200.8Z" fill="#B25919"/>
<path fill-rule="evenodd" clip-rule="evenodd" d="M43.2 179.8C43.2 176.486 45.8862 173.8 49.2 173.8H97.2C100.514 173.8 103.2 176.486 103.2 179.8V212.8C103.2 216.114 100.514 218.8 97.2 218.8H57.6613L50.3155 224.047C47.3371 226.174 43.2 224.045 43.2 220.385V179.8ZM97.2 179.8L49.2 179.8V217.47L54.1739 213.917C55.1915 213.191 56.4108 212.8 57.6613 212.8H97.2V179.8Z" fill="#B25919"/>
<rect opacity="0.5" x="55.2" y="185.8" width="36" height="6" rx="3" fill="#B25919"/>
<rect opacity="0.5" x="55.2" y="197.8" width="18" height="6" rx="3" fill="#B25919"/>
</svg>
