<svg width="480" height="640" viewBox="0 0 480 640" fill="none" xmlns="http://www.w3.org/2000/svg">
<rect width="480" height="640" rx="32" fill="#FC949A"/>
<rect x="157.268" y="206.783" width="52.0325" height="52.0325" rx="10.4065" transform="rotate(-45 157.268 206.783)" fill="white"/>
<rect x="203.259" y="160.792" width="52.0325" height="52.0325" rx="10.4065" transform="rotate(-45 203.259 160.792)" fill="white"/>
<rect x="249.25" y="206.783" width="52.0325" height="52.0325" rx="10.4065" transform="rotate(-45 249.25 206.783)" fill="white"/>
<rect x="203.259" y="252.773" width="52.0325" height="52.0325" rx="10.4065" transform="rotate(-45 203.259 252.773)" fill="white"/>
<rect x="273.895" y="377.189" width="41.626" height="41.626" rx="5.20325" transform="rotate(-45 273.895 377.189)" stroke="white" stroke-width="10.4065"/>
<rect x="319.886" y="331.199" width="41.626" height="41.626" rx="5.20325" transform="rotate(-45 319.886 331.199)" stroke="white" stroke-width="10.4065"/>
<rect x="365.876" y="377.189" width="41.626" height="41.626" rx="5.20325" transform="rotate(-45 365.876 377.189)" stroke="white" stroke-width="10.4065"/>
<rect x="319.886" y="423.18" width="41.626" height="41.626" rx="5.20325" transform="rotate(-45 319.886 423.18)" stroke="white" stroke-width="10.4065"/>
<rect x="55.3585" y="377.189" width="41.626" height="41.626" rx="5.20325" transform="rotate(-45 55.3585 377.189)" stroke="white" stroke-width="10.4065"/>
<rect x="101.349" y="331.199" width="41.626" height="41.626" rx="5.20325" transform="rotate(-45 101.349 331.199)" stroke="white" stroke-width="10.4065"/>
<rect x="147.34" y="377.189" width="41.626" height="41.626" rx="5.20325" transform="rotate(-45 147.34 377.189)" stroke="white" stroke-width="10.4065"/>
<rect x="101.349" y="423.18" width="41.626" height="41.626" rx="5.20325" transform="rotate(-45 101.349 423.18)" stroke="white" stroke-width="10.4065"/>
</svg>
